<ttFont>
<head>
    <!-- Most of this table will be recalculated by the compiler -->
    <tableVersion value="1.0"/>
    <fontRevision value="1.0"/>
    <checkSumAdjustment value="0x6f6b2d79"/>
    <magicNumber value="0x5f0f3cf5"/>
    <flags value="00000000 00011011"/>
    <unitsPerEm value="1000"/>
    <created value="Tue Jan  8 11:00:00 2013"/>
    <modified value="Thu Nov  6 12:32:02 2014"/>
    <xMin value="-114"/>
    <yMin value="-323"/>
    <xMax value="1269"/>
    <yMax value="1153"/>
    <macStyle value="00000000 00000010"/>
    <lowestRecPPEM value="9"/>
    <fontDirectionHint value="2"/>
    <indexToLocFormat value="0"/>
    <glyphDataFormat value="0"/>
  </head>
    <TTGlyph name=".notdef" xMin="67" yMin="0" xMax="531" yMax="650">
      <contour>
        <pt x="67" y="650" on="1"/>
        <pt x="531" y="650" on="1"/>
        <pt x="531" y="0" on="1"/>
        <pt x="67" y="0" on="1"/>
      </contour>
      <contour>
        <pt x="457" y="604" on="1"/>
        <pt x="141" y="604" on="1"/>
        <pt x="300" y="367" on="1"/>
      </contour>
      <contour>
        <pt x="485" y="88" on="1"/>
        <pt x="485" y="562" on="1"/>
        <pt x="327" y="325" on="1"/>
      </contour>
      <contour>
        <pt x="457" y="47" on="1"/>
        <pt x="300" y="283" on="1"/>
        <pt x="141" y="47" on="1"/>
      </contour>
      <contour>
        <pt x="114" y="88" on="1"/>
        <pt x="271" y="325" on="1"/>
        <pt x="114" y="562" on="1"/>
      </contour>
    </TTGlyph>
    <TTGlyph name="A" xMin="-26" yMin="0" xMax="661" yMax="663">
      <contour>
        <pt x="290" y="663" on="1"/>
        <pt x="460" y="663" on="1"/>
        <pt x="474" y="663" on="0"/>
        <pt x="482" y="656" on="0"/>
        <pt x="484" y="648" on="1"/>
        <pt x="661" y="0" on="1"/>
        <pt x="497" y="0" on="1"/>
        <pt x="488" y="0" on="0"/>
        <pt x="480" y="5" on="0"/>
        <pt x="478" y="15" on="1"/>
        <pt x="456" y="109" on="1"/>
        <pt x="207" y="109" on="1"/>
        <pt x="167" y="15" on="1"/>
        <pt x="162" y="5" on="0"/>
        <pt x="153" y="0" on="0"/>
        <pt x="144" y="0" on="1"/>
        <pt x="-26" y="0" on="1"/>
      </contour>
      <contour>
        <pt x="370" y="503" on="1"/>
        <pt x="369" y="503" on="1"/>
        <pt x="359" y="471" on="0"/>
        <pt x="345" y="430" on="0"/>
        <pt x="330" y="391" on="0"/>
        <pt x="310" y="343" on="0"/>
        <pt x="294" y="304" on="1"/>
        <pt x="272" y="250" on="1"/>
        <pt x="420" y="250" on="1"/>
        <pt x="410" y="296" on="1"/>
        <pt x="401" y="335" on="0"/>
        <pt x="389" y="396" on="0"/>
        <pt x="380" y="445" on="0"/>
        <pt x="373" y="485" on="0"/>
      </contour>
    </TTGlyph>
    <TTGlyph name="AE" xMin="-40" yMin="0" xMax="1034" yMax="663">
      <contour>
        <pt x="451" y="663" on="1"/>
        <pt x="1034" y="663" on="1"/>
        <pt x="1016" y="516" on="1"/>
        <pt x="696" y="516" on="1"/>
        <pt x="684" y="407" on="1"/>
        <pt x="971" y="407" on="1"/>
        <pt x="954" y="263" on="1"/>
        <pt x="667" y="263" on="1"/>
        <pt x="653" y="147" on="1"/>
        <pt x="982" y="147" on="1"/>
        <pt x="964" y="0" on="1"/>
        <pt x="458" y="0" on="1"/>
        <pt x="471" y="109" on="1"/>
        <pt x="241" y="109" on="1"/>
        <pt x="171" y="14" on="1"/>
        <pt x="164" y="5" on="0"/>
        <pt x="153" y="0" on="0"/>
        <pt x="142" y="0" on="1"/>
        <pt x="-40" y="0" on="1"/>
      </contour>
      <contour>
        <pt x="520" y="515" on="1"/>
        <pt x="512" y="497" on="0"/>
        <pt x="478" y="442" on="0"/>
        <pt x="438" y="382" on="0"/>
        <pt x="396" y="323" on="0"/>
        <pt x="380" y="301" on="1"/>
        <pt x="345" y="250" on="1"/>
        <pt x="488" y="250" on="1"/>
      </contour>
    </TTGlyph>
    <TTGlyph name="AEacute" xMin="-40" yMin="0" xMax="1034" yMax="940">
      <component glyphName="AE" x="0" y="0" flags="0x204"/>
      <component glyphName="acute.cap" x="446" y="0" flags="0x4"/>
    </TTGlyph>
    <TTGlyph name="Aacute" xMin="-26" yMin="0" xMax="661" yMax="940">
      <component glyphName="A" x="0" y="0" flags="0x204"/>
      <component glyphName="acute.cap" x="130" y="0" flags="0x4"/>
    </TTGlyph>
    <TTGlyph name="Abreve" xMin="-26" yMin="0" xMax="661" yMax="908">
      <component glyphName="A" x="0" y="0" flags="0x204"/>
      <component glyphName="breve.cap" x="123" y="0" flags="0x4"/>
    </TTGlyph>
    <TTGlyph name="Acaron" xMin="-26" yMin="0" xMax="661" yMax="936">
      <component glyphName="A" x="0" y="0" flags="0x204"/>
      <component glyphName="caron.cap" x="131" y="0" flags="0x4"/>
    </TTGlyph>
    <TTGlyph name="Acircumflex" xMin="-26" yMin="0" xMax="661" yMax="923">
      <component glyphName="A" x="0" y="0" flags="0x204"/>
      <component glyphName="circumflex.cap" x="134" y="0" flags="0x4"/>
    </TTGlyph>
    <TTGlyph name="Adieresis" xMin="-26" yMin="0" xMax="661" yMax="884">
      <component glyphName="A" x="0" y="0" flags="0x204"/>
      <component glyphName="dieresis.cap" x="140" y="0" flags="0x4"/>
    </TTGlyph>
    <TTGlyph name="Agrave" xMin="-26" yMin="0" xMax="661" yMax="941">
      <component glyphName="A" x="0" y="0" flags="0x204"/>
      <component glyphName="grave.cap" x="146" y="0" flags="0x4"/>
    </TTGlyph>
    <TTGlyph name="Amacron" xMin="-26" yMin="0" xMax="661" yMax="873">
      <component glyphName="A" x="0" y="0" flags="0x204"/>
      <component glyphName="macron.cap" x="138" y="0" flags="0x4"/>
    </TTGlyph>
    <TTGlyph name="Aogonek" xMin="-26" yMin="-229" xMax="661" yMax="663">
      <contour>
        <pt x="456" y="109" on="1"/>
        <pt x="207" y="109" on="1"/>
        <pt x="167" y="15" on="1"/>
        <pt x="162" y="5" on="0"/>
        <pt x="153" y="0" on="0"/>
        <pt x="144" y="0" on="1"/>
        <pt x="-26" y="0" on="1"/>
        <pt x="290" y="663" on="1"/>
        <pt x="460" y="663" on="1"/>
        <pt x="474" y="663" on="0"/>
        <pt x="482" y="656" on="0"/>
        <pt x="484" y="648" on="1"/>
        <pt x="661" y="0" on="1"/>
        <pt x="609" y="0" on="1"/>
        <pt x="586" y="0" on="0"/>
        <pt x="547" y="-11" on="0"/>
        <pt x="534" y="-24" on="1"/>
        <pt x="513" y="-45" on="0"/>
        <pt x="513" y="-79" on="1"/>
        <pt x="513" y="-99" on="0"/>
        <pt x="539" y="-125" on="0"/>
        <pt x="566" y="-125" on="1"/>
        <pt x="575" y="-125" on="0"/>
        <pt x="609" y="-121" on="0"/>
        <pt x="624" y="-119" on="1"/>
        <pt x="637" y="-201" on="1"/>
        <pt x="613" y="-215" on="0"/>
        <pt x="548" y="-229" on="0"/>
        <pt x="523" y="-229" on="1"/>
        <pt x="464" y="-229" on="0"/>
        <pt x="395" y="-165" on="0"/>
        <pt x="395" y="-116" on="1"/>
        <pt x="395" y="-80" on="0"/>
        <pt x="437" y="-11" on="0"/>
        <pt x="477" y="20" on="1"/>
      </contour>
      <contour>
        <pt x="370" y="503" on="1"/>
        <pt x="369" y="503" on="1"/>
        <pt x="359" y="471" on="0"/>
        <pt x="345" y="430" on="0"/>
        <pt x="330" y="391" on="0"/>
        <pt x="310" y="343" on="0"/>
        <pt x="294" y="304" on="1"/>
        <pt x="272" y="250" on="1"/>
        <pt x="420" y="250" on="1"/>
        <pt x="410" y="296" on="1"/>
        <pt x="401" y="335" on="0"/>
        <pt x="389" y="396" on="0"/>
        <pt x="380" y="445" on="0"/>
        <pt x="373" y="485" on="0"/>
      </contour>
    </TTGlyph>
    <TTGlyph name="Aring" xMin="-26" yMin="0" xMax="661" yMax="905">
      <contour>
        <pt x="661" y="0" on="1"/>
        <pt x="497" y="0" on="1"/>
        <pt x="488" y="0" on="0"/>
        <pt x="480" y="5" on="0"/>
        <pt x="478" y="15" on="1"/>
        <pt x="456" y="109" on="1"/>
        <pt x="207" y="109" on="1"/>
        <pt x="167" y="15" on="1"/>
        <pt x="162" y="5" on="0"/>
        <pt x="153" y="0" on="0"/>
        <pt x="144" y="0" on="1"/>
        <pt x="-26" y="0" on="1"/>
        <pt x="297" y="676" on="1"/>
        <pt x="263" y="712" on="0"/>
        <pt x="263" y="766" on="1"/>
        <pt x="263" y="796" on="0"/>
        <pt x="284" y="846" on="0"/>
        <pt x="322" y="884" on="0"/>
        <pt x="374" y="905" on="0"/>
        <pt x="405" y="905" on="1"/>
        <pt x="433" y="905" on="0"/>
        <pt x="481" y="885" on="0"/>
        <pt x="515" y="850" on="0"/>
        <pt x="534" y="803" on="0"/>
        <pt x="534" y="776" on="1"/>
        <pt x="534" y="738" on="0"/>
        <pt x="502" y="681" on="0"/>
        <pt x="479" y="666" on="1"/>
      </contour>
      <contour>
        <pt x="370" y="503" on="1"/>
        <pt x="369" y="503" on="1"/>
        <pt x="359" y="471" on="0"/>
        <pt x="345" y="430" on="0"/>
        <pt x="330" y="391" on="0"/>
        <pt x="310" y="343" on="0"/>
        <pt x="294" y="304" on="1"/>
        <pt x="272" y="250" on="1"/>
        <pt x="420" y="250" on="1"/>
        <pt x="410" y="296" on="1"/>
        <pt x="401" y="335" on="0"/>
        <pt x="389" y="396" on="0"/>
        <pt x="380" y="445" on="0"/>
        <pt x="373" y="485" on="0"/>
      </contour>
      <contour>
        <pt x="396" y="723" on="1"/>
        <pt x="422" y="723" on="0"/>
        <pt x="447" y="753" on="0"/>
        <pt x="447" y="773" on="1"/>
        <pt x="447" y="793" on="0"/>
        <pt x="424" y="819" on="0"/>
        <pt x="401" y="819" on="1"/>
        <pt x="375" y="819" on="0"/>
        <pt x="350" y="789" on="0"/>
        <pt x="350" y="769" on="1"/>
        <pt x="350" y="749" on="0"/>
        <pt x="373" y="723" on="0"/>
      </contour>
    </TTGlyph>
    <TTGlyph name="Aringacute" xMin="-26" yMin="0" xMax="661" yMax="1153">
      <component glyphName="Aring" x="0" y="0" flags="0x204"/>
      <component glyphName="acute.cap" x="148" y="213" flags="0x4"/>
    </TTGlyph>
    <TTGlyph name="Atilde" xMin="-26" yMin="0" xMax="661" yMax="904">
      <component glyphName="A" x="0" y="0" flags="0x204"/>
      <component glyphName="tilde.cap" x="112" y="0" flags="0x4"/>
    </TTGlyph>
    <TTGlyph name="B" xMin="28" yMin="0" xMax="627" yMax="663">
      <contour>
        <pt x="107" y="663" on="1"/>
        <pt x="408" y="663" on="1"/>
        <pt x="465" y="663" on="0"/>
        <pt x="549" y="642" on="0"/>
        <pt x="577" y="617" on="1"/>
        <pt x="597" y="599" on="0"/>
        <pt x="621" y="547" on="0"/>
        <pt x="621" y="510" on="1"/>
        <pt x="621" y="468" on="0"/>
        <pt x="579" y="388" on="0"/>
        <pt x="544" y="360" on="1"/>
        <pt x="584" y="338" on="0"/>
        <pt x="627" y="263" on="0"/>
        <pt x="627" y="218" on="1"/>
        <pt x="627" y="179" on="0"/>
        <pt x="599" y="103" on="0"/>
        <pt x="568" y="73" on="1"/>
        <pt x="533" y="39" on="0"/>
        <pt x="422" y="0" on="0"/>
        <pt x="342" y="0" on="1"/>
        <pt x="28" y="0" on="1"/>
      </contour>
      <contour>
        <pt x="222" y="145" on="1"/>
        <pt x="355" y="145" on="1"/>
        <pt x="408" y="145" on="0"/>
        <pt x="430" y="166" on="1"/>
        <pt x="439" y="175" on="0"/>
        <pt x="450" y="200" on="0"/>
        <pt x="450" y="219" on="1"/>
        <pt x="450" y="230" on="0"/>
        <pt x="444" y="249" on="0"/>
        <pt x="437" y="255" on="1"/>
        <pt x="429" y="263" on="0"/>
        <pt x="400" y="268" on="0"/>
        <pt x="378" y="268" on="1"/>
        <pt x="237" y="268" on="1"/>
      </contour>
      <contour>
        <pt x="401" y="398" on="1"/>
        <pt x="410" y="398" on="0"/>
        <pt x="423" y="402" on="0"/>
        <pt x="428" y="410" on="1"/>
        <pt x="435" y="419" on="0"/>
        <pt x="444" y="453" on="0"/>
        <pt x="444" y="468" on="1"/>
        <pt x="444" y="494" on="0"/>
        <pt x="431" y="506" on="1"/>
        <pt x="417" y="518" on="0"/>
        <pt x="381" y="518" on="1"/>
        <pt x="267" y="518" on="1"/>
        <pt x="253" y="398" on="1"/>
      </contour>
    </TTGlyph>
    <TTGlyph name="C" xMin="35" yMin="-10" xMax="663" yMax="673">
      <contour>
        <pt x="643" y="111" on="1"/>
        <pt x="575" y="51" on="0"/>
        <pt x="419" y="-10" on="0"/>
        <pt x="336" y="-10" on="1"/>
        <pt x="269" y="-10" on="0"/>
        <pt x="158" y="37" on="0"/>
        <pt x="79" y="121" on="0"/>
        <pt x="35" y="237" on="0"/>
        <pt x="35" y="306" on="1"/>
        <pt x="35" y="377" on="0"/>
        <pt x="85" y="516" on="0"/>
        <pt x="139" y="571" on="1"/>
        <pt x="185" y="619" on="0"/>
        <pt x="310" y="673" on="0"/>
        <pt x="384" y="673" on="1"/>
        <pt x="429" y="673" on="0"/>
        <pt x="514" y="647" on="0"/>
        <pt x="587" y="596" on="0"/>
        <pt x="645" y="520" on="0"/>
        <pt x="663" y="469" on="1"/>
        <pt x="546" y="397" on="1"/>
        <pt x="463" y="469" on="1"/>
        <pt x="440" y="489" on="0"/>
        <pt x="397" y="510" on="0"/>
        <pt x="368" y="510" on="1"/>
        <pt x="333" y="510" on="0"/>
        <pt x="278" y="475" on="0"/>
        <pt x="239" y="418" on="0"/>
        <pt x="219" y="348" on="0"/>
        <pt x="219" y="312" on="1"/>
        <pt x="219" y="243" on="0"/>
        <pt x="292" y="159" on="0"/>
        <pt x="364" y="159" on="1"/>
        <pt x="414" y="159" on="0"/>
        <pt x="489" y="183" on="1"/>
        <pt x="591" y="215" on="1"/>
      </contour>
    </TTGlyph>
    <TTGlyph name="Cacute" xMin="35" yMin="-10" xMax="663" yMax="940">
      <component glyphName="C" x="0" y="0" flags="0x204"/>
      <component glyphName="acute.cap" x="125" y="0" flags="0x4"/>
    </TTGlyph>
    <TTGlyph name="Ccaron" xMin="35" yMin="-10" xMax="663" yMax="936">
      <component glyphName="C" x="0" y="0" flags="0x204"/>
      <component glyphName="caron.cap" x="123" y="0" flags="0x4"/>
    </TTGlyph>
    <TTGlyph name="Ccedilla" xMin="35" yMin="-248" xMax="663" yMax="673">
      <contour>
        <pt x="643" y="111" on="1"/>
        <pt x="583" y="58" on="0"/>
        <pt x="446" y="-2" on="0"/>
        <pt x="373" y="-8" on="1"/>
        <pt x="361" y="-23" on="0"/>
        <pt x="361" y="-32" on="1"/>
        <pt x="361" y="-40" on="0"/>
        <pt x="389" y="-52" on="0"/>
        <pt x="424" y="-71" on="0"/>
        <pt x="452" y="-101" on="0"/>
        <pt x="452" y="-126" on="1"/>
        <pt x="452" y="-153" on="0"/>
        <pt x="421" y="-197" on="0"/>
        <pt x="365" y="-228" on="0"/>
        <pt x="288" y="-247" on="0"/>
        <pt x="243" y="-248" on="1"/>
        <pt x="237" y="-161" on="1"/>
        <pt x="289" y="-153" on="1"/>
        <pt x="322" y="-149" on="0"/>
        <pt x="322" y="-134" on="1"/>
        <pt x="322" y="-126" on="0"/>
        <pt x="298" y="-113" on="0"/>
        <pt x="270" y="-99" on="0"/>
        <pt x="246" y="-80" on="0"/>
        <pt x="246" y="-65" on="1"/>
        <pt x="246" y="-42" on="0"/>
        <pt x="285" y="-6" on="1"/>
        <pt x="229" y="3" on="0"/>
        <pt x="137" y="55" on="0"/>
        <pt x="71" y="137" on="0"/>
        <pt x="35" y="243" on="0"/>
        <pt x="35" y="306" on="1"/>
        <pt x="35" y="377" on="0"/>
        <pt x="85" y="516" on="0"/>
        <pt x="139" y="571" on="1"/>
        <pt x="185" y="619" on="0"/>
        <pt x="310" y="673" on="0"/>
        <pt x="384" y="673" on="1"/>
        <pt x="429" y="673" on="0"/>
        <pt x="514" y="647" on="0"/>
        <pt x="587" y="596" on="0"/>
        <pt x="645" y="520" on="0"/>
        <pt x="663" y="469" on="1"/>
        <pt x="546" y="397" on="1"/>
        <pt x="463" y="469" on="1"/>
        <pt x="440" y="489" on="0"/>
        <pt x="397" y="510" on="0"/>
        <pt x="368" y="510" on="1"/>
        <pt x="333" y="510" on="0"/>
        <pt x="278" y="475" on="0"/>
        <pt x="239" y="418" on="0"/>
        <pt x="219" y="348" on="0"/>
        <pt x="219" y="312" on="1"/>
        <pt x="219" y="243" on="0"/>
        <pt x="292" y="159" on="0"/>
        <pt x="364" y="159" on="1"/>
        <pt x="414" y="159" on="0"/>
        <pt x="489" y="183" on="1"/>
        <pt x="591" y="215" on="1"/>
      </contour>
    </TTGlyph>
    <TTGlyph name="Ccircumflex" xMin="35" yMin="-10" xMax="663" yMax="923">
      <component glyphName="C" x="0" y="0" flags="0x204"/>
      <component glyphName="circumflex.cap" x="124" y="0" flags="0x4"/>
    </TTGlyph>
    <TTGlyph name="Cdotaccent" xMin="35" yMin="-10" xMax="663" yMax="883">
      <component glyphName="C" x="0" y="0" flags="0x204"/>
      <component glyphName="dotaccent.cap" x="132" y="0" flags="0x4"/>
    </TTGlyph>
    <TTGlyph name="D" xMin="28" yMin="0" xMax="682" yMax="663">
      <contour>
        <pt x="107" y="663" on="1"/>
        <pt x="339" y="663" on="1"/>
        <pt x="432" y="663" on="0"/>
        <pt x="561" y="625" on="0"/>
        <pt x="606" y="581" on="1"/>
        <pt x="642" y="546" on="0"/>
        <pt x="682" y="443" on="0"/>
        <pt x="682" y="374" on="1"/>
        <pt x="682" y="289" on="0"/>
        <pt x="617" y="148" on="0"/>
        <pt x="563" y="97" on="1"/>
        <pt x="512" y="49" on="0"/>
        <pt x="366" y="0" on="0"/>
        <pt x="271" y="0" on="1"/>
        <pt x="28" y="0" on="1"/>
      </contour>
      <contour>
        <pt x="279" y="153" on="1"/>
        <pt x="379" y="153" on="0"/>
        <pt x="436" y="205" on="1"/>
        <pt x="466" y="233" on="0"/>
        <pt x="501" y="321" on="0"/>
        <pt x="501" y="374" on="1"/>
        <pt x="501" y="409" on="0"/>
        <pt x="483" y="456" on="0"/>
        <pt x="466" y="472" on="1"/>
        <pt x="443" y="494" on="0"/>
        <pt x="370" y="510" on="0"/>
        <pt x="324" y="510" on="1"/>
        <pt x="266" y="510" on="1"/>
        <pt x="224" y="153" on="1"/>
      </contour>
    </TTGlyph>
    <TTGlyph name="Dcaron" xMin="28" yMin="0" xMax="682" yMax="936">
      <component glyphName="D" x="0" y="0" flags="0x204"/>
      <component glyphName="caron.cap" x="118" y="0" flags="0x4"/>
    </TTGlyph>
    <TTGlyph name="Dcroat" xMin="10" yMin="0" xMax="704" yMax="663">
      <contour>
        <pt x="82" y="271" on="1"/>
        <pt x="10" y="271" on="1"/>
        <pt x="27" y="404" on="1"/>
        <pt x="98" y="404" on="1"/>
        <pt x="129" y="663" on="1"/>
        <pt x="361" y="663" on="1"/>
        <pt x="454" y="663" on="0"/>
        <pt x="583" y="625" on="0"/>
        <pt x="628" y="581" on="1"/>
        <pt x="664" y="546" on="0"/>
        <pt x="704" y="443" on="0"/>
        <pt x="704" y="374" on="1"/>
        <pt x="704" y="289" on="0"/>
        <pt x="639" y="148" on="0"/>
        <pt x="585" y="97" on="1"/>
        <pt x="534" y="49" on="0"/>
        <pt x="388" y="0" on="0"/>
        <pt x="293" y="0" on="1"/>
        <pt x="50" y="0" on="1"/>
      </contour>
      <contour>
        <pt x="301" y="153" on="1"/>
        <pt x="401" y="153" on="0"/>
        <pt x="458" y="205" on="1"/>
        <pt x="488" y="233" on="0"/>
        <pt x="523" y="321" on="0"/>
        <pt x="523" y="374" on="1"/>
        <pt x="523" y="416" on="0"/>
        <pt x="497" y="469" on="0"/>
        <pt x="451" y="499" on="0"/>
        <pt x="389" y="510" on="0"/>
        <pt x="353" y="510" on="1"/>
        <pt x="288" y="510" on="1"/>
        <pt x="275" y="404" on="1"/>
        <pt x="408" y="404" on="1"/>
        <pt x="392" y="271" on="1"/>
        <pt x="259" y="271" on="1"/>
        <pt x="245" y="153" on="1"/>
      </contour>
    </TTGlyph>
    <TTGlyph name="Delta" xMin="0" yMin="0" xMax="611" yMax="663">
      <contour>
        <pt x="394" y="305" on="1"/>
        <pt x="377" y="379" on="0"/>
        <pt x="356" y="473" on="0"/>
        <pt x="354" y="501" on="1"/>
        <pt x="353" y="501" on="1"/>
        <pt x="345" y="474" on="0"/>
        <pt x="305" y="374" on="0"/>
        <pt x="274" y="305" on="1"/>
        <pt x="233" y="214" on="1"/>
        <pt x="225" y="196" on="0"/>
        <pt x="205" y="155" on="0"/>
        <pt x="199" y="147" on="1"/>
        <pt x="212" y="149" on="0"/>
        <pt x="250" y="151" on="0"/>
        <pt x="273" y="151" on="1"/>
        <pt x="361" y="151" on="1"/>
        <pt x="385" y="151" on="0"/>
        <pt x="423" y="149" on="0"/>
        <pt x="434" y="147" on="1"/>
        <pt x="431" y="155" on="0"/>
        <pt x="421" y="191" on="0"/>
        <pt x="415" y="214" on="1"/>
      </contour>
      <contour>
        <pt x="599" y="0" on="1"/>
        <pt x="0" y="0" on="1"/>
        <pt x="10" y="87" on="1"/>
        <pt x="12" y="104" on="0"/>
        <pt x="27" y="142" on="0"/>
        <pt x="44" y="175" on="1"/>
        <pt x="277" y="663" on="1"/>
        <pt x="449" y="663" on="1"/>
        <pt x="458" y="663" on="0"/>
        <pt x="463" y="659" on="0"/>
        <pt x="467" y="648" on="1"/>
        <pt x="597" y="175" on="1"/>
        <pt x="605" y="142" on="0"/>
        <pt x="611" y="104" on="0"/>
        <pt x="609" y="87" on="1"/>
      </contour>
    </TTGlyph>
    <TTGlyph name="E" xMin="28" yMin="0" xMax="604" yMax="663">
      <contour>
        <pt x="604" y="663" on="1"/>
        <pt x="586" y="516" on="1"/>
        <pt x="266" y="516" on="1"/>
        <pt x="254" y="407" on="1"/>
        <pt x="541" y="407" on="1"/>
        <pt x="524" y="263" on="1"/>
        <pt x="237" y="263" on="1"/>
        <pt x="223" y="147" on="1"/>
        <pt x="552" y="147" on="1"/>
        <pt x="534" y="0" on="1"/>
        <pt x="28" y="0" on="1"/>
        <pt x="107" y="663" on="1"/>
      </contour>
    </TTGlyph>
    <TTGlyph name="Eacute" xMin="28" yMin="0" xMax="604" yMax="940">
      <component glyphName="E" x="0" y="0" flags="0x204"/>
      <component glyphName="acute.cap" x="88" y="0" flags="0x4"/>
    </TTGlyph>
    <TTGlyph name="Ebreve" xMin="28" yMin="0" xMax="604" yMax="908">
      <component glyphName="E" x="0" y="0" flags="0x204"/>
      <component glyphName="breve.cap" x="97" y="0" flags="0x4"/>
    </TTGlyph>
    <TTGlyph name="Ecaron" xMin="28" yMin="0" xMax="604" yMax="936">
      <component glyphName="E" x="0" y="0" flags="0x204"/>
      <component glyphName="caron.cap" x="99" y="0" flags="0x4"/>
    </TTGlyph>
    <TTGlyph name="Ecircumflex" xMin="28" yMin="0" xMax="604" yMax="923">
      <component glyphName="E" x="0" y="0" flags="0x204"/>
      <component glyphName="circumflex.cap" x="91" y="0" flags="0x4"/>
    </TTGlyph>
    <TTGlyph name="Edieresis" xMin="28" yMin="0" xMax="604" yMax="884">
      <component glyphName="E" x="0" y="0" flags="0x204"/>
      <component glyphName="dieresis.cap" x="102" y="0" flags="0x4"/>
    </TTGlyph>
    <TTGlyph name="Edotaccent" xMin="28" yMin="0" xMax="604" yMax="883">
      <component glyphName="E" x="0" y="0" flags="0x204"/>
      <component glyphName="dotaccent.cap" x="107" y="0" flags="0x4"/>
    </TTGlyph>
    <TTGlyph name="Egrave" xMin="28" yMin="0" xMax="604" yMax="941">
      <component glyphName="E" x="0" y="0" flags="0x204"/>
      <component glyphName="grave.cap" x="113" y="0" flags="0x4"/>
    </TTGlyph>
    <TTGlyph name="Emacron" xMin="28" yMin="0" xMax="604" yMax="873">
      <component glyphName="E" x="0" y="0" flags="0x204"/>
      <component glyphName="macron.cap" x="91" y="0" flags="0x4"/>
    </TTGlyph>
    <TTGlyph name="Eng" xMin="28" yMin="-238" xMax="716" yMax="663">
      <contour>
        <pt x="394" y="-81" on="1"/>
        <pt x="431" y="-81" on="0"/>
        <pt x="461" y="-56" on="0"/>
        <pt x="465" y="-24" on="1"/>
        <pt x="472" y="33" on="1"/>
        <pt x="240" y="389" on="1"/>
        <pt x="239" y="389" on="1"/>
        <pt x="193" y="0" on="1"/>
        <pt x="28" y="0" on="1"/>
        <pt x="107" y="663" on="1"/>
        <pt x="233" y="663" on="1"/>
        <pt x="245" y="663" on="0"/>
        <pt x="255" y="659" on="0"/>
        <pt x="261" y="649" on="1"/>
        <pt x="504" y="277" on="1"/>
        <pt x="505" y="277" on="1"/>
        <pt x="551" y="663" on="1"/>
        <pt x="716" y="663" on="1"/>
        <pt x="638" y="0" on="1"/>
        <pt x="624" y="-123" on="0"/>
        <pt x="573" y="-179" on="1"/>
        <pt x="520" y="-238" on="0"/>
        <pt x="426" y="-238" on="1"/>
        <pt x="381" y="-238" on="0"/>
        <pt x="292" y="-207" on="0"/>
        <pt x="257" y="-183" on="1"/>
        <pt x="294" y="-74" on="1"/>
        <pt x="303" y="-75" on="0"/>
        <pt x="330" y="-78" on="0"/>
        <pt x="360" y="-80" on="0"/>
        <pt x="386" y="-81" on="0"/>
      </contour>
    </TTGlyph>
    <TTGlyph name="Eogonek" xMin="28" yMin="-229" xMax="604" yMax="663">
      <contour>
        <pt x="604" y="663" on="1"/>
        <pt x="586" y="516" on="1"/>
        <pt x="266" y="516" on="1"/>
        <pt x="254" y="407" on="1"/>
        <pt x="541" y="407" on="1"/>
        <pt x="524" y="263" on="1"/>
        <pt x="237" y="263" on="1"/>
        <pt x="223" y="147" on="1"/>
        <pt x="552" y="147" on="1"/>
        <pt x="534" y="0" on="1"/>
        <pt x="445" y="0" on="1"/>
        <pt x="433" y="0" on="0"/>
        <pt x="419" y="-7" on="0"/>
        <pt x="411" y="-17" on="1"/>
        <pt x="399" y="-33" on="0"/>
        <pt x="384" y="-67" on="0"/>
        <pt x="384" y="-84" on="1"/>
        <pt x="384" y="-125" on="0"/>
        <pt x="437" y="-125" on="1"/>
        <pt x="446" y="-125" on="0"/>
        <pt x="480" y="-121" on="0"/>
        <pt x="495" y="-119" on="1"/>
        <pt x="508" y="-201" on="1"/>
        <pt x="484" y="-215" on="0"/>
        <pt x="419" y="-229" on="0"/>
        <pt x="394" y="-229" on="1"/>
        <pt x="335" y="-229" on="0"/>
        <pt x="266" y="-165" on="0"/>
        <pt x="266" y="-116" on="1"/>
        <pt x="266" y="-85" on="0"/>
        <pt x="295" y="-26" on="0"/>
        <pt x="321" y="0" on="1"/>
        <pt x="28" y="0" on="1"/>
        <pt x="107" y="663" on="1"/>
      </contour>
    </TTGlyph>
    <TTGlyph name="Eth" xMin="10" yMin="0" xMax="704" yMax="663">
      <contour>
        <pt x="82" y="271" on="1"/>
        <pt x="10" y="271" on="1"/>
        <pt x="27" y="404" on="1"/>
        <pt x="98" y="404" on="1"/>
        <pt x="129" y="663" on="1"/>
        <pt x="361" y="663" on="1"/>
        <pt x="454" y="663" on="0"/>
        <pt x="583" y="625" on="0"/>
        <pt x="628" y="581" on="1"/>
        <pt x="664" y="546" on="0"/>
        <pt x="704" y="443" on="0"/>
        <pt x="704" y="374" on="1"/>
        <pt x="704" y="289" on="0"/>
        <pt x="639" y="148" on="0"/>
        <pt x="585" y="97" on="1"/>
        <pt x="534" y="49" on="0"/>
        <pt x="388" y="0" on="0"/>
        <pt x="293" y="0" on="1"/>
        <pt x="50" y="0" on="1"/>
      </contour>
      <contour>
        <pt x="301" y="153" on="1"/>
        <pt x="401" y="153" on="0"/>
        <pt x="458" y="205" on="1"/>
        <pt x="488" y="233" on="0"/>
        <pt x="523" y="321" on="0"/>
        <pt x="523" y="374" on="1"/>
        <pt x="523" y="416" on="0"/>
        <pt x="497" y="469" on="0"/>
        <pt x="451" y="499" on="0"/>
        <pt x="389" y="510" on="0"/>
        <pt x="353" y="510" on="1"/>
        <pt x="288" y="510" on="1"/>
        <pt x="275" y="404" on="1"/>
        <pt x="408" y="404" on="1"/>
        <pt x="392" y="271" on="1"/>
        <pt x="259" y="271" on="1"/>
        <pt x="245" y="153" on="1"/>
      </contour>
    </TTGlyph>
    <TTGlyph name="Euro" xMin="32" yMin="-10" xMax="665" yMax="673">
      <contour>
        <pt x="287" y="232" on="1"/>
        <pt x="292" y="192" on="0"/>
        <pt x="343" y="148" on="0"/>
        <pt x="391" y="148" on="1"/>
        <pt x="420" y="148" on="0"/>
        <pt x="484" y="161" on="0"/>
        <pt x="517" y="171" on="1"/>
        <pt x="586" y="192" on="1"/>
        <pt x="636" y="97" on="1"/>
        <pt x="584" y="47" on="0"/>
        <pt x="443" y="-10" on="0"/>
        <pt x="371" y="-10" on="1"/>
        <pt x="311" y="-10" on="0"/>
        <pt x="217" y="29" on="0"/>
        <pt x="151" y="95" on="0"/>
        <pt x="113" y="183" on="0"/>
        <pt x="110" y="232" on="1"/>
        <pt x="32" y="232" on="1"/>
        <pt x="39" y="291" on="1"/>
        <pt x="108" y="309" on="1"/>
        <pt x="108" y="317" on="0"/>
        <pt x="111" y="342" on="0"/>
        <pt x="113" y="348" on="1"/>
        <pt x="46" y="348" on="1"/>
        <pt x="52" y="407" on="1"/>
        <pt x="126" y="427" on="1"/>
        <pt x="138" y="482" on="0"/>
        <pt x="196" y="572" on="0"/>
        <pt x="275" y="637" on="0"/>
        <pt x="372" y="673" on="0"/>
        <pt x="424" y="673" on="1"/>
        <pt x="464" y="673" on="0"/>
        <pt x="538" y="650" on="0"/>
        <pt x="602" y="608" on="0"/>
        <pt x="651" y="550" on="0"/>
        <pt x="665" y="514" on="1"/>
        <pt x="564" y="438" on="1"/>
        <pt x="513" y="480" on="1"/>
        <pt x="486" y="503" on="0"/>
        <pt x="439" y="519" on="0"/>
        <pt x="413" y="519" on="1"/>
        <pt x="370" y="519" on="0"/>
        <pt x="309" y="472" on="0"/>
        <pt x="298" y="429" on="1"/>
        <pt x="460" y="429" on="1"/>
        <pt x="450" y="348" on="1"/>
        <pt x="287" y="348" on="1"/>
        <pt x="285" y="341" on="0"/>
        <pt x="283" y="320" on="0"/>
        <pt x="283" y="313" on="1"/>
        <pt x="446" y="313" on="1"/>
        <pt x="436" y="232" on="1"/>
      </contour>
    </TTGlyph>
    <TTGlyph name="Euro.lprop" xMin="48" yMin="-10" xMax="681" yMax="673">
      <component glyphName="Euro" x="16" y="0" flags="0x4"/>
    </TTGlyph>
    <TTGlyph name="Euro.oprop" xMin="40" yMin="-8" xMax="580" yMax="496">
      <contour>
        <pt x="271" y="254" on="1"/>
        <pt x="270" y="249" on="0"/>
        <pt x="270" y="239" on="0"/>
        <pt x="270" y="231" on="1"/>
        <pt x="380" y="231" on="1"/>
        <pt x="373" y="174" on="1"/>
        <pt x="285" y="174" on="1"/>
        <pt x="296" y="157" on="0"/>
        <pt x="336" y="136" on="0"/>
        <pt x="362" y="136" on="1"/>
        <pt x="380" y="136" on="0"/>
        <pt x="429" y="147" on="0"/>
        <pt x="466" y="158" on="1"/>
        <pt x="522" y="175" on="1"/>
        <pt x="568" y="87" on="1"/>
        <pt x="546" y="66" on="0"/>
        <pt x="488" y="31" on="0"/>
        <pt x="426" y="6" on="0"/>
        <pt x="363" y="-8" on="0"/>
        <pt x="336" y="-8" on="1"/>
        <pt x="292" y="-8" on="0"/>
        <pt x="215" y="17" on="0"/>
        <pt x="155" y="64" on="0"/>
        <pt x="115" y="131" on="0"/>
        <pt x="107" y="174" on="1"/>
        <pt x="40" y="174" on="1"/>
        <pt x="45" y="217" on="1"/>
        <pt x="103" y="226" on="1"/>
        <pt x="103" y="234" on="0"/>
        <pt x="103" y="247" on="0"/>
        <pt x="104" y="254" on="1"/>
        <pt x="50" y="254" on="1"/>
        <pt x="55" y="297" on="1"/>
        <pt x="114" y="307" on="1"/>
        <pt x="126" y="349" on="0"/>
        <pt x="174" y="419" on="0"/>
        <pt x="239" y="468" on="0"/>
        <pt x="318" y="496" on="0"/>
        <pt x="362" y="496" on="1"/>
        <pt x="402" y="496" on="0"/>
        <pt x="475" y="471" on="0"/>
        <pt x="532" y="424" on="0"/>
        <pt x="572" y="358" on="0"/>
        <pt x="580" y="317" on="1"/>
        <pt x="476" y="268" on="1"/>
        <pt x="436" y="312" on="1"/>
        <pt x="412" y="336" on="0"/>
        <pt x="379" y="353" on="0"/>
        <pt x="362" y="353" on="1"/>
        <pt x="337" y="353" on="0"/>
        <pt x="301" y="329" on="0"/>
        <pt x="290" y="311" on="1"/>
        <pt x="390" y="311" on="1"/>
        <pt x="383" y="254" on="1"/>
        <pt x="271" y="254" on="1"/>
      </contour>
    </TTGlyph>
    <TTGlyph name="Euro.otab" xMin="52" yMin="-8" xMax="592" yMax="496">
      <component glyphName="Euro.oprop" x="12" y="0" flags="0x4"/>
    </TTGlyph>
    <TTGlyph name="F" xMin="28" yMin="0" xMax="595" yMax="663">
      <contour>
        <pt x="266" y="516" on="1"/>
        <pt x="249" y="372" on="1"/>
        <pt x="530" y="372" on="1"/>
        <pt x="513" y="228" on="1"/>
        <pt x="232" y="228" on="1"/>
        <pt x="205" y="0" on="1"/>
        <pt x="28" y="0" on="1"/>
        <pt x="107" y="663" on="1"/>
        <pt x="595" y="663" on="1"/>
        <pt x="577" y="516" on="1"/>
      </contour>
    </TTGlyph>
    <TTGlyph name="G" xMin="35" yMin="-10" xMax="683" yMax="673">
      <contour>
        <pt x="504" y="46" on="1"/>
        <pt x="468" y="27" on="1"/>
        <pt x="431" y="7" on="0"/>
        <pt x="361" y="-10" on="0"/>
        <pt x="326" y="-10" on="1"/>
        <pt x="269" y="-10" on="0"/>
        <pt x="162" y="32" on="0"/>
        <pt x="124" y="71" on="1"/>
        <pt x="82" y="113" on="0"/>
        <pt x="35" y="230" on="0"/>
        <pt x="35" y="299" on="1"/>
        <pt x="35" y="383" on="0"/>
        <pt x="90" y="518" on="0"/>
        <pt x="138" y="567" on="1"/>
        <pt x="188" y="618" on="0"/>
        <pt x="320" y="673" on="0"/>
        <pt x="397" y="673" on="1"/>
        <pt x="441" y="673" on="0"/>
        <pt x="525" y="649" on="0"/>
        <pt x="598" y="604" on="0"/>
        <pt x="657" y="536" on="0"/>
        <pt x="677" y="493" on="1"/>
        <pt x="561" y="416" on="1"/>
        <pt x="477" y="477" on="1"/>
        <pt x="451" y="496" on="0"/>
        <pt x="407" y="513" on="0"/>
        <pt x="381" y="513" on="1"/>
        <pt x="343" y="513" on="0"/>
        <pt x="283" y="477" on="0"/>
        <pt x="241" y="418" on="0"/>
        <pt x="219" y="345" on="0"/>
        <pt x="219" y="309" on="1"/>
        <pt x="219" y="240" on="0"/>
        <pt x="302" y="156" on="0"/>
        <pt x="374" y="156" on="1"/>
        <pt x="400" y="156" on="0"/>
        <pt x="459" y="164" on="0"/>
        <pt x="479" y="171" on="1"/>
        <pt x="486" y="173" on="0"/>
        <pt x="489" y="181" on="0"/>
        <pt x="490" y="186" on="1"/>
        <pt x="496" y="237" on="1"/>
        <pt x="411" y="237" on="1"/>
        <pt x="426" y="358" on="1"/>
        <pt x="654" y="358" on="1"/>
        <pt x="671" y="358" on="0"/>
        <pt x="683" y="347" on="0"/>
        <pt x="681" y="331" on="1"/>
        <pt x="641" y="0" on="1"/>
        <pt x="519" y="0" on="1"/>
      </contour>
    </TTGlyph>
    <TTGlyph name="Gbreve" xMin="35" yMin="-10" xMax="683" yMax="908">
      <component glyphName="G" x="0" y="0" flags="0x204"/>
      <component glyphName="breve.cap" x="141" y="0" flags="0x4"/>
    </TTGlyph>
    <TTGlyph name="Gcircumflex" xMin="35" yMin="-10" xMax="683" yMax="923">
      <component glyphName="G" x="0" y="0" flags="0x204"/>
      <component glyphName="circumflex.cap" x="136" y="0" flags="0x4"/>
    </TTGlyph>
    <TTGlyph name="Gcommaaccent" xMin="35" yMin="-323" xMax="683" yMax="673">
      <component glyphName="G" x="0" y="0" flags="0x204"/>
      <component glyphName="commaaccent" x="162" y="0" flags="0x4"/>
    </TTGlyph>
    <TTGlyph name="Gdotaccent" xMin="35" yMin="-10" xMax="683" yMax="883">
      <component glyphName="G" x="0" y="0" flags="0x204"/>
      <component glyphName="dotaccent.cap" x="148" y="0" flags="0x4"/>
    </TTGlyph>
    <TTGlyph name="H" xMin="28" yMin="0" xMax="709" yMax="663">
      <contour>
        <pt x="630" y="0" on="1"/>
        <pt x="453" y="0" on="1"/>
        <pt x="484" y="263" on="1"/>
        <pt x="236" y="263" on="1"/>
        <pt x="205" y="0" on="1"/>
        <pt x="28" y="0" on="1"/>
        <pt x="107" y="663" on="1"/>
        <pt x="284" y="663" on="1"/>
        <pt x="254" y="416" on="1"/>
        <pt x="502" y="416" on="1"/>
        <pt x="532" y="663" on="1"/>
        <pt x="709" y="663" on="1"/>
      </contour>
    </TTGlyph>
    <TTGlyph name="Hbar" xMin="32" yMin="0" xMax="778" yMax="663">
      <contour>
        <pt x="642" y="0" on="1"/>
        <pt x="465" y="0" on="1"/>
        <pt x="496" y="263" on="1"/>
        <pt x="248" y="263" on="1"/>
        <pt x="217" y="0" on="1"/>
        <pt x="40" y="0" on="1"/>
        <pt x="97" y="484" on="1"/>
        <pt x="32" y="484" on="1"/>
        <pt x="45" y="590" on="1"/>
        <pt x="110" y="590" on="1"/>
        <pt x="119" y="663" on="1"/>
        <pt x="296" y="663" on="1"/>
        <pt x="287" y="590" on="1"/>
        <pt x="535" y="590" on="1"/>
        <pt x="544" y="663" on="1"/>
        <pt x="721" y="663" on="1"/>
        <pt x="712" y="590" on="1"/>
        <pt x="778" y="590" on="1"/>
        <pt x="765" y="484" on="1"/>
        <pt x="699" y="484" on="1"/>
      </contour>
      <contour>
        <pt x="514" y="416" on="1"/>
        <pt x="522" y="484" on="1"/>
        <pt x="274" y="484" on="1"/>
        <pt x="266" y="416" on="1"/>
      </contour>
    </TTGlyph>
    <TTGlyph name="Hcircumflex" xMin="28" yMin="0" xMax="709" yMax="923">
      <component glyphName="H" x="0" y="0" flags="0x204"/>
      <component glyphName="circumflex.cap" x="140" y="0" flags="0x4"/>
    </TTGlyph>
    <TTGlyph name="I" xMin="30" yMin="0" xMax="286" yMax="663">
      <contour>
        <pt x="207" y="0" on="1"/>
        <pt x="30" y="0" on="1"/>
        <pt x="109" y="663" on="1"/>
        <pt x="286" y="663" on="1"/>
      </contour>
    </TTGlyph>
    <TTGlyph name="IJ" xMin="30" yMin="-10" xMax="813" yMax="663">
      <component glyphName="I" x="0" y="0" flags="0x4"/>
      <component glyphName="J" x="302" y="0" flags="0x4"/>
    </TTGlyph>
    <TTGlyph name="Iacute" xMin="30" yMin="0" xMax="369" yMax="940">
      <component glyphName="I" x="0" y="0" flags="0x204"/>
      <component glyphName="acute.cap" x="-54" y="0" flags="0x4"/>
    </TTGlyph>
    <TTGlyph name="Ibreve" xMin="30" yMin="0" xMax="400" yMax="908">
      <component glyphName="I" x="0" y="0" flags="0x204"/>
      <component glyphName="breve.cap" x="-56" y="0" flags="0x4"/>
    </TTGlyph>
    <TTGlyph name="Icircumflex" xMin="30" yMin="0" xMax="395" yMax="923">
      <component glyphName="I" x="0" y="0" flags="0x204"/>
      <component glyphName="circumflex.cap" x="-57" y="0" flags="0x4"/>
    </TTGlyph>
    <TTGlyph name="Idieresis" xMin="30" yMin="0" xMax="404" yMax="884">
      <component glyphName="I" x="0" y="0" flags="0x204"/>
      <component glyphName="dieresis.cap" x="-48" y="0" flags="0x4"/>
    </TTGlyph>
    <TTGlyph name="Idotaccent" xMin="30" yMin="0" xMax="297" yMax="883">
      <component glyphName="I" x="0" y="0" flags="0x204"/>
      <component glyphName="dotaccent.cap" x="-48" y="0" flags="0x4"/>
    </TTGlyph>
    <TTGlyph name="Igrave" xMin="30" yMin="0" xMax="351" yMax="941">
      <component glyphName="I" x="0" y="0" flags="0x204"/>
      <component glyphName="grave.cap" x="-36" y="0" flags="0x4"/>
    </TTGlyph>
    <TTGlyph name="Imacron" xMin="30" yMin="0" xMax="387" yMax="873">
      <component glyphName="I" x="0" y="0" flags="0x204"/>
      <component glyphName="macron.cap" x="-47" y="0" flags="0x4"/>
    </TTGlyph>
    <TTGlyph name="Iogonek" xMin="-34" yMin="-229" xMax="292" yMax="663">
      <contour>
        <pt x="213" y="0" on="1"/>
        <pt x="179" y="0" on="1"/>
        <pt x="147" y="0" on="0"/>
        <pt x="112" y="-16" on="0"/>
        <pt x="98" y="-37" on="1"/>
        <pt x="84" y="-60" on="0"/>
        <pt x="84" y="-84" on="1"/>
        <pt x="84" y="-125" on="0"/>
        <pt x="137" y="-125" on="1"/>
        <pt x="146" y="-125" on="0"/>
        <pt x="180" y="-121" on="0"/>
        <pt x="195" y="-119" on="1"/>
        <pt x="208" y="-201" on="1"/>
        <pt x="184" y="-215" on="0"/>
        <pt x="119" y="-229" on="0"/>
        <pt x="94" y="-229" on="1"/>
        <pt x="35" y="-229" on="0"/>
        <pt x="-34" y="-165" on="0"/>
        <pt x="-34" y="-116" on="1"/>
        <pt x="-34" y="-84" on="0"/>
        <pt x="-2" y="-28" on="0"/>
        <pt x="30" y="1" on="1"/>
        <pt x="109" y="663" on="1"/>
        <pt x="292" y="663" on="1"/>
      </contour>
    </TTGlyph>
    <TTGlyph name="Itilde" xMin="21" yMin="0" xMax="415" yMax="904">
      <component glyphName="I" x="0" y="0" flags="0x204"/>
      <component glyphName="tilde.cap" x="-72" y="0" flags="0x4"/>
    </TTGlyph>
    <TTGlyph name="J" xMin="-8" yMin="-10" xMax="511" yMax="663">
      <contour>
        <pt x="30" y="170" on="1"/>
        <pt x="109" y="160" on="1"/>
        <pt x="138" y="156" on="0"/>
        <pt x="183" y="153" on="0"/>
        <pt x="198" y="153" on="1"/>
        <pt x="223" y="153" on="0"/>
        <pt x="254" y="162" on="0"/>
        <pt x="272" y="180" on="0"/>
        <pt x="281" y="208" on="0"/>
        <pt x="283" y="228" on="1"/>
        <pt x="334" y="663" on="1"/>
        <pt x="511" y="663" on="1"/>
        <pt x="460" y="232" on="1"/>
        <pt x="453" y="174" on="0"/>
        <pt x="419" y="87" on="0"/>
        <pt x="389" y="57" on="1"/>
        <pt x="356" y="24" on="0"/>
        <pt x="265" y="-10" on="0"/>
        <pt x="212" y="-10" on="1"/>
        <pt x="158" y="-10" on="0"/>
        <pt x="42" y="27" on="0"/>
        <pt x="-8" y="56" on="1"/>
      </contour>
    </TTGlyph>
    <TTGlyph name="Jcircumflex" xMin="-8" yMin="-10" xMax="610" yMax="923">
      <component glyphName="J" x="0" y="0" flags="0x204"/>
      <component glyphName="circumflex.cap" x="158" y="0" flags="0x4"/>
    </TTGlyph>
    <TTGlyph name="K" xMin="28" yMin="0" xMax="685" yMax="671">
      <contour>
        <pt x="205" y="0" on="1"/>
        <pt x="28" y="0" on="1"/>
        <pt x="107" y="663" on="1"/>
        <pt x="284" y="663" on="1"/>
        <pt x="252" y="390" on="1"/>
        <pt x="592" y="671" on="1"/>
        <pt x="685" y="559" on="1"/>
        <pt x="464" y="381" on="1"/>
        <pt x="648" y="0" on="1"/>
        <pt x="481" y="0" on="1"/>
        <pt x="468" y="0" on="0"/>
        <pt x="455" y="4" on="0"/>
        <pt x="449" y="18" on="1"/>
        <pt x="329" y="278" on="1"/>
        <pt x="307" y="264" on="0"/>
        <pt x="254" y="238" on="0"/>
        <pt x="233" y="232" on="1"/>
      </contour>
    </TTGlyph>
    <TTGlyph name="Kcommaaccent" xMin="28" yMin="-323" xMax="685" yMax="671">
      <component glyphName="K" x="0" y="0" flags="0x204"/>
      <component glyphName="commaaccent" x="139" y="0" flags="0x4"/>
    </TTGlyph>
    <TTGlyph name="L" xMin="28" yMin="0" xMax="532" yMax="663">
      <contour>
        <pt x="107" y="663" on="1"/>
        <pt x="284" y="663" on="1"/>
        <pt x="223" y="147" on="1"/>
        <pt x="532" y="147" on="1"/>
        <pt x="514" y="0" on="1"/>
        <pt x="28" y="0" on="1"/>
      </contour>
    </TTGlyph>
    <TTGlyph name="Lacute" xMin="28" yMin="0" xMax="532" yMax="940">
      <component glyphName="L" x="0" y="0" flags="0x204"/>
      <component glyphName="acute.cap" x="-26" y="0" flags="0x4"/>
    </TTGlyph>
    <TTGlyph name="Lcaron" xMin="28" yMin="0" xMax="532" yMax="663">
      <component glyphName="L" x="0" y="0" flags="0x204"/>
      <component glyphName="commaaccent" x="274" y="721" flags="0x4"/>
    </TTGlyph>
    <TTGlyph name="Lcommaaccent" xMin="28" yMin="-323" xMax="532" yMax="663">
      <component glyphName="L" x="0" y="0" flags="0x204"/>
      <component glyphName="commaaccent" x="110" y="0" flags="0x4"/>
    </TTGlyph>
    <TTGlyph name="Ldot" xMin="28" yMin="0" xMax="532" yMax="663">
      <component glyphName="L" x="0" y="0" flags="0x204"/>
      <component glyphName="dotaccent" x="199" y="-248" flags="0x4"/>
    </TTGlyph>
    <TTGlyph name="Lslash" xMin="-10" yMin="0" xMax="592" yMax="663">
      <contour>
        <pt x="167" y="663" on="1"/>
        <pt x="344" y="663" on="1"/>
        <pt x="324" y="491" on="1"/>
        <pt x="453" y="570" on="1"/>
        <pt x="516" y="449" on="1"/>
        <pt x="304" y="318" on="1"/>
        <pt x="283" y="147" on="1"/>
        <pt x="592" y="147" on="1"/>
        <pt x="574" y="0" on="1"/>
        <pt x="88" y="0" on="1"/>
        <pt x="114" y="216" on="1"/>
        <pt x="53" y="179" on="1"/>
        <pt x="-10" y="300" on="1"/>
        <pt x="134" y="389" on="1"/>
      </contour>
    </TTGlyph>
    <TTGlyph name="M" xMin="28" yMin="0" xMax="825" yMax="663">
      <contour>
        <pt x="638" y="646" on="1"/>
        <pt x="648" y="657" on="0"/>
        <pt x="662" y="663" on="0"/>
        <pt x="676" y="663" on="1"/>
        <pt x="825" y="663" on="1"/>
        <pt x="746" y="0" on="1"/>
        <pt x="576" y="0" on="1"/>
        <pt x="626" y="414" on="1"/>
        <pt x="625" y="414" on="1"/>
        <pt x="472" y="233" on="1"/>
        <pt x="372" y="233" on="1"/>
        <pt x="361" y="233" on="0"/>
        <pt x="349" y="237" on="0"/>
        <pt x="344" y="246" on="1"/>
        <pt x="247" y="414" on="1"/>
        <pt x="246" y="414" on="1"/>
        <pt x="196" y="0" on="1"/>
        <pt x="28" y="0" on="1"/>
        <pt x="107" y="663" on="1"/>
        <pt x="253" y="663" on="1"/>
        <pt x="267" y="663" on="0"/>
        <pt x="278" y="657" on="0"/>
        <pt x="286" y="646" on="1"/>
        <pt x="428" y="401" on="1"/>
        <pt x="431" y="401" on="1"/>
      </contour>
    </TTGlyph>
    <TTGlyph name="N" xMin="28" yMin="0" xMax="716" yMax="663">
      <contour>
        <pt x="239" y="389" on="1"/>
        <pt x="193" y="0" on="1"/>
        <pt x="28" y="0" on="1"/>
        <pt x="107" y="663" on="1"/>
        <pt x="233" y="663" on="1"/>
        <pt x="245" y="663" on="0"/>
        <pt x="255" y="659" on="0"/>
        <pt x="261" y="649" on="1"/>
        <pt x="504" y="277" on="1"/>
        <pt x="505" y="277" on="1"/>
        <pt x="551" y="663" on="1"/>
        <pt x="716" y="663" on="1"/>
        <pt x="637" y="0" on="1"/>
        <pt x="512" y="0" on="1"/>
        <pt x="501" y="0" on="0"/>
        <pt x="490" y="5" on="0"/>
        <pt x="485" y="13" on="1"/>
        <pt x="240" y="389" on="1"/>
      </contour>
    </TTGlyph>
    <TTGlyph name="Nacute" xMin="28" yMin="0" xMax="716" yMax="940">
      <component glyphName="N" x="0" y="0" flags="0x204"/>
      <component glyphName="acute.cap" x="177" y="0" flags="0x4"/>
    </TTGlyph>
    <TTGlyph name="Ncaron" xMin="28" yMin="0" xMax="716" yMax="936">
      <component glyphName="N" x="0" y="0" flags="0x204"/>
      <component glyphName="caron.cap" x="151" y="0" flags="0x4"/>
    </TTGlyph>
    <TTGlyph name="Ncommaaccent" xMin="28" yMin="-323" xMax="716" yMax="663">
      <component glyphName="N" x="0" y="0" flags="0x204"/>
      <component glyphName="commaaccent" x="175" y="0" flags="0x4"/>
    </TTGlyph>
    <TTGlyph name="Ntilde" xMin="28" yMin="0" xMax="716" yMax="904">
      <component glyphName="N" x="0" y="0" flags="0x204"/>
      <component glyphName="tilde.cap" x="138" y="0" flags="0x4"/>
    </TTGlyph>
    <TTGlyph name="O" xMin="35" yMin="-10" xMax="703" yMax="673">
      <contour>
        <pt x="703" y="363" on="1"/>
        <pt x="703" y="282" on="0"/>
        <pt x="644" y="145" on="0"/>
        <pt x="545" y="46" on="0"/>
        <pt x="415" y="-10" on="0"/>
        <pt x="343" y="-10" on="1"/>
        <pt x="277" y="-10" on="0"/>
        <pt x="165" y="37" on="0"/>
        <pt x="82" y="120" on="0"/>
        <pt x="35" y="233" on="0"/>
        <pt x="35" y="300" on="1"/>
        <pt x="35" y="381" on="0"/>
        <pt x="93" y="518" on="0"/>
        <pt x="192" y="617" on="0"/>
        <pt x="323" y="673" on="0"/>
        <pt x="395" y="673" on="1"/>
        <pt x="461" y="673" on="0"/>
        <pt x="573" y="626" on="0"/>
        <pt x="656" y="543" on="0"/>
        <pt x="703" y="430" on="0"/>
      </contour>
      <contour>
        <pt x="519" y="351" on="1"/>
        <pt x="519" y="384" on="0"/>
        <pt x="499" y="439" on="0"/>
        <pt x="463" y="479" on="0"/>
        <pt x="413" y="501" on="0"/>
        <pt x="383" y="501" on="1"/>
        <pt x="348" y="501" on="0"/>
        <pt x="288" y="473" on="0"/>
        <pt x="244" y="422" on="0"/>
        <pt x="219" y="353" on="0"/>
        <pt x="219" y="312" on="1"/>
        <pt x="219" y="279" on="0"/>
        <pt x="239" y="224" on="0"/>
        <pt x="275" y="184" on="0"/>
        <pt x="325" y="162" on="0"/>
        <pt x="355" y="162" on="1"/>
        <pt x="390" y="162" on="0"/>
        <pt x="450" y="190" on="0"/>
        <pt x="494" y="241" on="0"/>
        <pt x="519" y="310" on="0"/>
      </contour>
    </TTGlyph>
    <TTGlyph name="OE" xMin="35" yMin="-10" xMax="1051" yMax="673">
      <contour>
        <pt x="1051" y="663" on="1"/>
        <pt x="1033" y="516" on="1"/>
        <pt x="713" y="516" on="1"/>
        <pt x="701" y="407" on="1"/>
        <pt x="988" y="407" on="1"/>
        <pt x="971" y="263" on="1"/>
        <pt x="684" y="263" on="1"/>
        <pt x="670" y="147" on="1"/>
        <pt x="999" y="147" on="1"/>
        <pt x="981" y="0" on="1"/>
        <pt x="475" y="0" on="1"/>
        <pt x="481" y="55" on="1"/>
        <pt x="448" y="25" on="0"/>
        <pt x="361" y="-10" on="0"/>
        <pt x="313" y="-10" on="1"/>
        <pt x="250" y="-10" on="0"/>
        <pt x="147" y="40" on="0"/>
        <pt x="75" y="125" on="0"/>
        <pt x="35" y="239" on="0"/>
        <pt x="35" y="303" on="1"/>
        <pt x="35" y="376" on="0"/>
        <pt x="82" y="510" on="0"/>
        <pt x="168" y="612" on="0"/>
        <pt x="286" y="673" on="0"/>
        <pt x="357" y="673" on="1"/>
        <pt x="416" y="673" on="0"/>
        <pt x="513" y="619" on="0"/>
        <pt x="544" y="582" on="1"/>
        <pt x="554" y="663" on="1"/>
      </contour>
      <contour>
        <pt x="527" y="350" on="1"/>
        <pt x="527" y="384" on="0"/>
        <pt x="506" y="440" on="0"/>
        <pt x="468" y="480" on="0"/>
        <pt x="417" y="501" on="0"/>
        <pt x="387" y="501" on="1"/>
        <pt x="352" y="501" on="0"/>
        <pt x="291" y="475" on="0"/>
        <pt x="245" y="425" on="0"/>
        <pt x="219" y="355" on="0"/>
        <pt x="219" y="312" on="1"/>
        <pt x="219" y="277" on="0"/>
        <pt x="240" y="222" on="0"/>
        <pt x="278" y="183" on="0"/>
        <pt x="329" y="162" on="0"/>
        <pt x="359" y="162" on="1"/>
        <pt x="394" y="162" on="0"/>
        <pt x="455" y="189" on="0"/>
        <pt x="501" y="239" on="0"/>
        <pt x="527" y="308" on="0"/>
      </contour>
    </TTGlyph>
    <TTGlyph name="Oacute" xMin="35" yMin="-10" xMax="703" yMax="940">
      <component glyphName="O" x="0" y="0" flags="0x204"/>
      <component glyphName="acute.cap" x="136" y="0" flags="0x4"/>
    </TTGlyph>
    <TTGlyph name="Obreve" xMin="35" yMin="-10" xMax="703" yMax="908">
      <component glyphName="O" x="0" y="0" flags="0x204"/>
      <component glyphName="breve.cap" x="141" y="0" flags="0x4"/>
    </TTGlyph>
    <TTGlyph name="Ocircumflex" xMin="35" yMin="-10" xMax="703" yMax="923">
      <component glyphName="O" x="0" y="0" flags="0x204"/>
      <component glyphName="circumflex.cap" x="137" y="0" flags="0x4"/>
    </TTGlyph>
    <TTGlyph name="Odieresis" xMin="35" yMin="-10" xMax="703" yMax="884">
      <component glyphName="O" x="0" y="0" flags="0x204"/>
      <component glyphName="dieresis.cap" x="143" y="0" flags="0x4"/>
    </TTGlyph>
    <TTGlyph name="Ograve" xMin="35" yMin="-10" xMax="703" yMax="941">
      <component glyphName="O" x="0" y="0" flags="0x204"/>
      <component glyphName="grave.cap" x="166" y="0" flags="0x4"/>
    </TTGlyph>
    <TTGlyph name="Ohungarumlaut" xMin="35" yMin="-10" xMax="703" yMax="999">
      <component glyphName="O" x="0" y="0" flags="0x204"/>
      <component glyphName="hungarumlaut.cap" x="132" y="0" flags="0x4"/>
    </TTGlyph>
    <TTGlyph name="Omacron" xMin="35" yMin="-10" xMax="703" yMax="873">
      <component glyphName="O" x="0" y="0" flags="0x204"/>
      <component glyphName="macron.cap" x="145" y="0" flags="0x4"/>
    </TTGlyph>
    <TTGlyph name="Omega" xMin="14" yMin="0" xMax="706" yMax="673">
      <contour>
        <pt x="376" y="70" on="1"/>
        <pt x="378" y="83" on="0"/>
        <pt x="382" y="97" on="0"/>
        <pt x="393" y="111" on="1"/>
        <pt x="448" y="188" on="1"/>
        <pt x="491" y="248" on="0"/>
        <pt x="530" y="340" on="0"/>
        <pt x="530" y="388" on="1"/>
        <pt x="530" y="417" on="0"/>
        <pt x="508" y="460" on="0"/>
        <pt x="470" y="489" on="0"/>
        <pt x="418" y="504" on="0"/>
        <pt x="389" y="504" on="1"/>
        <pt x="357" y="504" on="0"/>
        <pt x="299" y="487" on="0"/>
        <pt x="255" y="451" on="0"/>
        <pt x="229" y="393" on="0"/>
        <pt x="229" y="352" on="1"/>
        <pt x="229" y="320" on="0"/>
        <pt x="247" y="239" on="0"/>
        <pt x="269" y="188" on="1"/>
        <pt x="302" y="111" on="1"/>
        <pt x="308" y="97" on="0"/>
        <pt x="310" y="83" on="0"/>
        <pt x="308" y="70" on="1"/>
        <pt x="300" y="0" on="1"/>
        <pt x="14" y="0" on="1"/>
        <pt x="32" y="142" on="1"/>
        <pt x="150" y="142" on="1"/>
        <pt x="110" y="191" on="0"/>
        <pt x="57" y="310" on="0"/>
        <pt x="57" y="375" on="1"/>
        <pt x="57" y="439" on="0"/>
        <pt x="107" y="548" on="0"/>
        <pt x="197" y="628" on="0"/>
        <pt x="324" y="673" on="0"/>
        <pt x="401" y="673" on="1"/>
        <pt x="473" y="673" on="0"/>
        <pt x="586" y="634" on="0"/>
        <pt x="664" y="565" on="0"/>
        <pt x="706" y="472" on="0"/>
        <pt x="706" y="419" on="1"/>
        <pt x="706" y="378" on="0"/>
        <pt x="684" y="304" on="0"/>
        <pt x="645" y="237" on="0"/>
        <pt x="591" y="173" on="0"/>
        <pt x="558" y="142" on="1"/>
        <pt x="671" y="142" on="1"/>
        <pt x="654" y="0" on="1"/>
        <pt x="368" y="0" on="1"/>
      </contour>
    </TTGlyph>
    <TTGlyph name="Oslash" xMin="31" yMin="-51" xMax="725" yMax="724">
      <contour>
        <pt x="102" y="102" on="1"/>
        <pt x="70" y="142" on="0"/>
        <pt x="35" y="242" on="0"/>
        <pt x="35" y="300" on="1"/>
        <pt x="35" y="381" on="0"/>
        <pt x="93" y="518" on="0"/>
        <pt x="192" y="617" on="0"/>
        <pt x="323" y="673" on="0"/>
        <pt x="395" y="673" on="1"/>
        <pt x="442" y="673" on="0"/>
        <pt x="525" y="649" on="0"/>
        <pt x="561" y="627" on="1"/>
        <pt x="646" y="724" on="1"/>
        <pt x="725" y="652" on="1"/>
        <pt x="640" y="555" on="1"/>
        <pt x="670" y="516" on="0"/>
        <pt x="703" y="419" on="0"/>
        <pt x="703" y="363" on="1"/>
        <pt x="703" y="282" on="0"/>
        <pt x="644" y="145" on="0"/>
        <pt x="545" y="46" on="0"/>
        <pt x="415" y="-10" on="0"/>
        <pt x="343" y="-10" on="1"/>
        <pt x="298" y="-10" on="0"/>
        <pt x="218" y="12" on="0"/>
        <pt x="183" y="32" on="1"/>
        <pt x="111" y="-51" on="1"/>
        <pt x="31" y="21" on="1"/>
      </contour>
      <contour>
        <pt x="219" y="312" on="1"/>
        <pt x="219" y="295" on="0"/>
        <pt x="225" y="262" on="0"/>
        <pt x="230" y="248" on="1"/>
        <pt x="441" y="489" on="1"/>
        <pt x="429" y="494" on="0"/>
        <pt x="399" y="501" on="0"/>
        <pt x="384" y="501" on="1"/>
        <pt x="349" y="501" on="0"/>
        <pt x="289" y="471" on="0"/>
        <pt x="244" y="420" on="0"/>
        <pt x="219" y="351" on="0"/>
      </contour>
      <contour>
        <pt x="519" y="351" on="1"/>
        <pt x="519" y="365" on="0"/>
        <pt x="515" y="396" on="0"/>
        <pt x="511" y="407" on="1"/>
        <pt x="305" y="171" on="1"/>
        <pt x="316" y="166" on="0"/>
        <pt x="342" y="162" on="0"/>
        <pt x="355" y="162" on="1"/>
        <pt x="390" y="162" on="0"/>
        <pt x="450" y="192" on="0"/>
        <pt x="494" y="243" on="0"/>
        <pt x="519" y="312" on="0"/>
      </contour>
    </TTGlyph>
    <TTGlyph name="Oslashacute" xMin="31" yMin="-51" xMax="725" yMax="940">
      <component glyphName="Oslash" x="0" y="0" flags="0x204"/>
      <component glyphName="acute.cap" x="150" y="0" flags="0x4"/>
    </TTGlyph>
    <TTGlyph name="Otilde" xMin="35" yMin="-10" xMax="703" yMax="904">
      <component glyphName="O" x="0" y="0" flags="0x204"/>
      <component glyphName="tilde.cap" x="122" y="0" flags="0x4"/>
    </TTGlyph>
    <TTGlyph name="P" xMin="28" yMin="0" xMax="635" yMax="663">
      <contour>
        <pt x="228" y="195" on="1"/>
        <pt x="205" y="0" on="1"/>
        <pt x="28" y="0" on="1"/>
        <pt x="107" y="663" on="1"/>
        <pt x="372" y="663" on="1"/>
        <pt x="446" y="663" on="0"/>
        <pt x="552" y="635" on="0"/>
        <pt x="584" y="603" on="1"/>
        <pt x="635" y="552" on="0"/>
        <pt x="635" y="457" on="1"/>
        <pt x="635" y="403" on="0"/>
        <pt x="589" y="288" on="0"/>
        <pt x="544" y="247" on="1"/>
        <pt x="513" y="219" on="0"/>
        <pt x="432" y="195" on="0"/>
        <pt x="370" y="195" on="1"/>
      </contour>
      <contour>
        <pt x="266" y="514" on="1"/>
        <pt x="246" y="338" on="1"/>
        <pt x="391" y="338" on="1"/>
        <pt x="406" y="338" on="0"/>
        <pt x="422" y="344" on="0"/>
        <pt x="431" y="355" on="1"/>
        <pt x="444" y="372" on="0"/>
        <pt x="458" y="421" on="0"/>
        <pt x="458" y="442" on="1"/>
        <pt x="458" y="480" on="0"/>
        <pt x="422" y="514" on="0"/>
        <pt x="371" y="514" on="1"/>
      </contour>
    </TTGlyph>
    <TTGlyph name="Q" xMin="35" yMin="-205" xMax="703" yMax="673">
      <contour>
        <pt x="703" y="363" on="1"/>
        <pt x="703" y="306" on="0"/>
        <pt x="673" y="204" on="0"/>
        <pt x="621" y="119" on="0"/>
        <pt x="550" y="53" on="0"/>
        <pt x="509" y="31" on="1"/>
        <pt x="612" y="-128" on="1"/>
        <pt x="426" y="-205" on="1"/>
        <pt x="346" y="-10" on="1"/>
        <pt x="343" y="-10" on="1"/>
        <pt x="277" y="-10" on="0"/>
        <pt x="165" y="37" on="0"/>
        <pt x="82" y="120" on="0"/>
        <pt x="35" y="233" on="0"/>
        <pt x="35" y="300" on="1"/>
        <pt x="35" y="381" on="0"/>
        <pt x="93" y="518" on="0"/>
        <pt x="192" y="617" on="0"/>
        <pt x="323" y="673" on="0"/>
        <pt x="395" y="673" on="1"/>
        <pt x="461" y="673" on="0"/>
        <pt x="573" y="626" on="0"/>
        <pt x="656" y="543" on="0"/>
        <pt x="703" y="430" on="0"/>
      </contour>
      <contour>
        <pt x="519" y="351" on="1"/>
        <pt x="519" y="384" on="0"/>
        <pt x="499" y="439" on="0"/>
        <pt x="463" y="479" on="0"/>
        <pt x="413" y="501" on="0"/>
        <pt x="383" y="501" on="1"/>
        <pt x="348" y="501" on="0"/>
        <pt x="288" y="473" on="0"/>
        <pt x="244" y="422" on="0"/>
        <pt x="219" y="353" on="0"/>
        <pt x="219" y="312" on="1"/>
        <pt x="219" y="279" on="0"/>
        <pt x="239" y="224" on="0"/>
        <pt x="275" y="184" on="0"/>
        <pt x="325" y="162" on="0"/>
        <pt x="355" y="162" on="1"/>
        <pt x="390" y="162" on="0"/>
        <pt x="450" y="190" on="0"/>
        <pt x="494" y="241" on="0"/>
        <pt x="519" y="310" on="0"/>
      </contour>
    </TTGlyph>
    <TTGlyph name="R" xMin="28" yMin="0" xMax="641" yMax="663">
      <contour>
        <pt x="384" y="663" on="1"/>
        <pt x="453" y="663" on="0"/>
        <pt x="555" y="636" on="0"/>
        <pt x="590" y="602" on="1"/>
        <pt x="641" y="551" on="0"/>
        <pt x="641" y="462" on="1"/>
        <pt x="641" y="390" on="0"/>
        <pt x="574" y="275" on="0"/>
        <pt x="514" y="233" on="1"/>
        <pt x="625" y="0" on="1"/>
        <pt x="463" y="0" on="1"/>
        <pt x="451" y="0" on="0"/>
        <pt x="438" y="6" on="0"/>
        <pt x="433" y="17" on="1"/>
        <pt x="356" y="189" on="1"/>
        <pt x="350" y="203" on="0"/>
        <pt x="341" y="209" on="0"/>
        <pt x="327" y="209" on="1"/>
        <pt x="230" y="209" on="1"/>
        <pt x="205" y="0" on="1"/>
        <pt x="28" y="0" on="1"/>
        <pt x="107" y="663" on="1"/>
      </contour>
      <contour>
        <pt x="266" y="514" on="1"/>
        <pt x="246" y="350" on="1"/>
        <pt x="403" y="350" on="1"/>
        <pt x="416" y="350" on="0"/>
        <pt x="430" y="356" on="0"/>
        <pt x="439" y="367" on="1"/>
        <pt x="451" y="383" on="0"/>
        <pt x="464" y="426" on="0"/>
        <pt x="464" y="446" on="1"/>
        <pt x="464" y="482" on="0"/>
        <pt x="430" y="514" on="0"/>
        <pt x="382" y="514" on="1"/>
      </contour>
    </TTGlyph>
    <TTGlyph name="Racute" xMin="28" yMin="0" xMax="641" yMax="940">
      <component glyphName="R" x="0" y="0" flags="0x204"/>
      <component glyphName="acute.cap" x="123" y="0" flags="0x4"/>
    </TTGlyph>
    <TTGlyph name="Rcaron" xMin="28" yMin="0" xMax="641" yMax="936">
      <component glyphName="R" x="0" y="0" flags="0x204"/>
      <component glyphName="caron.cap" x="109" y="0" flags="0x4"/>
    </TTGlyph>
    <TTGlyph name="Rcommaaccent" xMin="28" yMin="-323" xMax="641" yMax="663">
      <component glyphName="R" x="0" y="0" flags="0x204"/>
      <component glyphName="commaaccent" x="142" y="0" flags="0x4"/>
    </TTGlyph>
    <TTGlyph name="S" xMin="14" yMin="-10" xMax="570" yMax="673">
      <contour>
        <pt x="130" y="159" on="1"/>
        <pt x="190" y="151" on="0"/>
        <pt x="270" y="143" on="0"/>
        <pt x="305" y="143" on="1"/>
        <pt x="349" y="143" on="0"/>
        <pt x="395" y="170" on="0"/>
        <pt x="395" y="197" on="1"/>
        <pt x="395" y="208" on="0"/>
        <pt x="387" y="224" on="0"/>
        <pt x="366" y="239" on="0"/>
        <pt x="330" y="254" on="0"/>
        <pt x="303" y="263" on="1"/>
        <pt x="263" y="277" on="1"/>
        <pt x="214" y="294" on="0"/>
        <pt x="137" y="333" on="0"/>
        <pt x="83" y="381" on="0"/>
        <pt x="55" y="443" on="0"/>
        <pt x="55" y="483" on="1"/>
        <pt x="55" y="531" on="0"/>
        <pt x="97" y="602" on="0"/>
        <pt x="170" y="650" on="0"/>
        <pt x="270" y="673" on="0"/>
        <pt x="329" y="673" on="1"/>
        <pt x="394" y="673" on="0"/>
        <pt x="516" y="651" on="0"/>
        <pt x="568" y="633" on="1"/>
        <pt x="546" y="512" on="1"/>
        <pt x="477" y="515" on="1"/>
        <pt x="431" y="517" on="0"/>
        <pt x="360" y="520" on="0"/>
        <pt x="338" y="520" on="1"/>
        <pt x="306" y="520" on="0"/>
        <pt x="263" y="516" on="0"/>
        <pt x="237" y="508" on="0"/>
        <pt x="226" y="495" on="0"/>
        <pt x="226" y="486" on="1"/>
        <pt x="226" y="471" on="0"/>
        <pt x="260" y="451" on="0"/>
        <pt x="300" y="437" on="1"/>
        <pt x="352" y="419" on="1"/>
        <pt x="406" y="400" on="0"/>
        <pt x="488" y="362" on="0"/>
        <pt x="542" y="314" on="0"/>
        <pt x="570" y="253" on="0"/>
        <pt x="570" y="211" on="1"/>
        <pt x="570" y="165" on="0"/>
        <pt x="536" y="84" on="0"/>
        <pt x="467" y="24" on="0"/>
        <pt x="363" y="-10" on="0"/>
        <pt x="293" y="-10" on="1"/>
        <pt x="258" y="-10" on="0"/>
        <pt x="183" y="-1" on="0"/>
        <pt x="111" y="16" on="0"/>
        <pt x="43" y="38" on="0"/>
        <pt x="14" y="51" on="1"/>
        <pt x="51" y="169" on="1"/>
      </contour>
    </TTGlyph>
    <TTGlyph name="Sacute" xMin="14" yMin="-10" xMax="570" yMax="940">
      <component glyphName="S" x="0" y="0" flags="0x204"/>
      <component glyphName="acute.cap" x="78" y="0" flags="0x4"/>
    </TTGlyph>
    <TTGlyph name="Scaron" xMin="14" yMin="-10" xMax="570" yMax="936">
      <component glyphName="S" x="0" y="0" flags="0x204"/>
      <component glyphName="caron.cap" x="88" y="0" flags="0x4"/>
    </TTGlyph>
    <TTGlyph name="Scedilla" xMin="14" yMin="-248" xMax="570" yMax="673">
      <contour>
        <pt x="130" y="159" on="1"/>
        <pt x="190" y="151" on="0"/>
        <pt x="270" y="143" on="0"/>
        <pt x="305" y="143" on="1"/>
        <pt x="349" y="143" on="0"/>
        <pt x="395" y="170" on="0"/>
        <pt x="395" y="197" on="1"/>
        <pt x="395" y="208" on="0"/>
        <pt x="387" y="224" on="0"/>
        <pt x="366" y="239" on="0"/>
        <pt x="330" y="254" on="0"/>
        <pt x="303" y="263" on="1"/>
        <pt x="263" y="277" on="1"/>
        <pt x="214" y="294" on="0"/>
        <pt x="137" y="333" on="0"/>
        <pt x="83" y="381" on="0"/>
        <pt x="55" y="443" on="0"/>
        <pt x="55" y="483" on="1"/>
        <pt x="55" y="531" on="0"/>
        <pt x="97" y="602" on="0"/>
        <pt x="170" y="650" on="0"/>
        <pt x="270" y="673" on="0"/>
        <pt x="329" y="673" on="1"/>
        <pt x="394" y="673" on="0"/>
        <pt x="516" y="651" on="0"/>
        <pt x="568" y="633" on="1"/>
        <pt x="546" y="512" on="1"/>
        <pt x="477" y="515" on="1"/>
        <pt x="431" y="517" on="0"/>
        <pt x="360" y="520" on="0"/>
        <pt x="338" y="520" on="1"/>
        <pt x="306" y="520" on="0"/>
        <pt x="263" y="516" on="0"/>
        <pt x="237" y="508" on="0"/>
        <pt x="226" y="495" on="0"/>
        <pt x="226" y="486" on="1"/>
        <pt x="226" y="471" on="0"/>
        <pt x="260" y="451" on="0"/>
        <pt x="300" y="437" on="1"/>
        <pt x="352" y="419" on="1"/>
        <pt x="406" y="400" on="0"/>
        <pt x="488" y="362" on="0"/>
        <pt x="542" y="314" on="0"/>
        <pt x="570" y="253" on="0"/>
        <pt x="570" y="211" on="1"/>
        <pt x="570" y="167" on="0"/>
        <pt x="540" y="91" on="0"/>
        <pt x="478" y="32" on="0"/>
        <pt x="386" y="-5" on="0"/>
        <pt x="325" y="-9" on="1"/>
        <pt x="314" y="-23" on="0"/>
        <pt x="314" y="-32" on="1"/>
        <pt x="314" y="-40" on="0"/>
        <pt x="342" y="-52" on="0"/>
        <pt x="377" y="-71" on="0"/>
        <pt x="405" y="-101" on="0"/>
        <pt x="405" y="-126" on="1"/>
        <pt x="405" y="-153" on="0"/>
        <pt x="374" y="-197" on="0"/>
        <pt x="318" y="-228" on="0"/>
        <pt x="241" y="-247" on="0"/>
        <pt x="196" y="-248" on="1"/>
        <pt x="190" y="-161" on="1"/>
        <pt x="242" y="-153" on="1"/>
        <pt x="275" y="-149" on="0"/>
        <pt x="275" y="-134" on="1"/>
        <pt x="275" y="-126" on="0"/>
        <pt x="251" y="-113" on="0"/>
        <pt x="223" y="-99" on="0"/>
        <pt x="199" y="-80" on="0"/>
        <pt x="199" y="-65" on="1"/>
        <pt x="199" y="-42" on="0"/>
        <pt x="236" y="-7" on="1"/>
        <pt x="177" y="-2" on="0"/>
        <pt x="61" y="30" on="0"/>
        <pt x="14" y="51" on="1"/>
        <pt x="51" y="169" on="1"/>
      </contour>
    </TTGlyph>
    <TTGlyph name="Scircumflex" xMin="14" yMin="-10" xMax="570" yMax="923">
      <component glyphName="S" x="0" y="0" flags="0x204"/>
      <component glyphName="circumflex.cap" x="84" y="0" flags="0x4"/>
    </TTGlyph>
    <TTGlyph name="Scommaaccent" xMin="14" yMin="-323" xMax="570" yMax="673">
      <component glyphName="S" x="0" y="0" flags="0x204"/>
      <component glyphName="commaaccent" x="109" y="0" flags="0x4"/>
    </TTGlyph>
    <TTGlyph name="T" xMin="42" yMin="0" xMax="657" yMax="663">
      <contour>
        <pt x="253" y="516" on="1"/>
        <pt x="42" y="516" on="1"/>
        <pt x="60" y="663" on="1"/>
        <pt x="657" y="663" on="1"/>
        <pt x="639" y="516" on="1"/>
        <pt x="430" y="516" on="1"/>
        <pt x="369" y="0" on="1"/>
        <pt x="192" y="0" on="1"/>
      </contour>
    </TTGlyph>
    <TTGlyph name="Tbar" xMin="42" yMin="0" xMax="657" yMax="663">
      <contour>
        <pt x="253" y="516" on="1"/>
        <pt x="42" y="516" on="1"/>
        <pt x="60" y="663" on="1"/>
        <pt x="657" y="663" on="1"/>
        <pt x="639" y="516" on="1"/>
        <pt x="430" y="516" on="1"/>
        <pt x="413" y="376" on="1"/>
        <pt x="537" y="376" on="1"/>
        <pt x="523" y="253" on="1"/>
        <pt x="399" y="253" on="1"/>
        <pt x="369" y="0" on="1"/>
        <pt x="192" y="0" on="1"/>
        <pt x="222" y="253" on="1"/>
        <pt x="99" y="253" on="1"/>
        <pt x="114" y="376" on="1"/>
        <pt x="237" y="376" on="1"/>
      </contour>
    </TTGlyph>
    <TTGlyph name="Tcaron" xMin="42" yMin="0" xMax="657" yMax="936">
      <component glyphName="T" x="0" y="0" flags="0x204"/>
      <component glyphName="caron.cap" x="99" y="0" flags="0x4"/>
    </TTGlyph>
    <TTGlyph name="Tcommaaccent" xMin="42" yMin="-323" xMax="657" yMax="663">
      <component glyphName="T" x="0" y="0" flags="0x204"/>
      <component glyphName="commaaccent" x="96" y="0" flags="0x4"/>
    </TTGlyph>
    <TTGlyph name="Thorn" xMin="28" yMin="0" xMax="624" yMax="663">
      <contour>
        <pt x="272" y="565" on="1"/>
        <pt x="361" y="565" on="1"/>
        <pt x="435" y="565" on="0"/>
        <pt x="541" y="537" on="0"/>
        <pt x="573" y="505" on="1"/>
        <pt x="624" y="454" on="0"/>
        <pt x="624" y="359" on="1"/>
        <pt x="624" y="305" on="0"/>
        <pt x="578" y="190" on="0"/>
        <pt x="533" y="149" on="1"/>
        <pt x="502" y="121" on="0"/>
        <pt x="421" y="98" on="0"/>
        <pt x="359" y="98" on="1"/>
        <pt x="217" y="98" on="1"/>
        <pt x="205" y="0" on="1"/>
        <pt x="28" y="0" on="1"/>
        <pt x="107" y="663" on="1"/>
        <pt x="284" y="663" on="1"/>
      </contour>
      <contour>
        <pt x="255" y="415" on="1"/>
        <pt x="234" y="240" on="1"/>
        <pt x="380" y="240" on="1"/>
        <pt x="395" y="240" on="0"/>
        <pt x="411" y="246" on="0"/>
        <pt x="420" y="257" on="1"/>
        <pt x="433" y="274" on="0"/>
        <pt x="447" y="323" on="0"/>
        <pt x="447" y="344" on="1"/>
        <pt x="447" y="382" on="0"/>
        <pt x="411" y="415" on="0"/>
        <pt x="360" y="415" on="1"/>
      </contour>
    </TTGlyph>
    <TTGlyph name="U" xMin="48" yMin="-10" xMax="691" yMax="663">
      <contour>
        <pt x="517" y="663" on="1"/>
        <pt x="691" y="663" on="1"/>
        <pt x="649" y="309" on="1"/>
        <pt x="639" y="227" on="0"/>
        <pt x="590" y="116" on="0"/>
        <pt x="552" y="78" on="1"/>
        <pt x="507" y="33" on="0"/>
        <pt x="388" y="-10" on="0"/>
        <pt x="318" y="-10" on="1"/>
        <pt x="260" y="-10" on="0"/>
        <pt x="161" y="25" on="0"/>
        <pt x="89" y="90" on="0"/>
        <pt x="48" y="183" on="0"/>
        <pt x="48" y="241" on="1"/>
        <pt x="48" y="269" on="0"/>
        <pt x="54" y="336" on="0"/>
        <pt x="60" y="387" on="1"/>
        <pt x="92" y="663" on="1"/>
        <pt x="269" y="663" on="1"/>
        <pt x="231" y="347" on="1"/>
        <pt x="227" y="315" on="0"/>
        <pt x="224" y="276" on="0"/>
        <pt x="224" y="262" on="1"/>
        <pt x="224" y="214" on="0"/>
        <pt x="284" y="162" on="0"/>
        <pt x="333" y="162" on="1"/>
        <pt x="402" y="162" on="0"/>
        <pt x="467" y="246" on="0"/>
        <pt x="477" y="327" on="1"/>
      </contour>
    </TTGlyph>
    <TTGlyph name="Uacute" xMin="48" yMin="-10" xMax="691" yMax="940">
      <component glyphName="U" x="0" y="0" flags="0x204"/>
      <component glyphName="acute.cap" x="143" y="0" flags="0x4"/>
    </TTGlyph>
    <TTGlyph name="Ubreve" xMin="48" yMin="-10" xMax="691" yMax="908">
      <component glyphName="U" x="0" y="0" flags="0x204"/>
      <component glyphName="breve.cap" x="132" y="0" flags="0x4"/>
    </TTGlyph>
    <TTGlyph name="Ucircumflex" xMin="48" yMin="-10" xMax="691" yMax="923">
      <component glyphName="U" x="0" y="0" flags="0x204"/>
      <component glyphName="circumflex.cap" x="139" y="0" flags="0x4"/>
    </TTGlyph>
    <TTGlyph name="Udieresis" xMin="48" yMin="-10" xMax="691" yMax="884">
      <component glyphName="U" x="0" y="0" flags="0x204"/>
      <component glyphName="dieresis.cap" x="137" y="0" flags="0x4"/>
    </TTGlyph>
    <TTGlyph name="Ugrave" xMin="48" yMin="-10" xMax="691" yMax="941">
      <component glyphName="U" x="0" y="0" flags="0x204"/>
      <component glyphName="grave.cap" x="130" y="0" flags="0x4"/>
    </TTGlyph>
    <TTGlyph name="Uhungarumlaut" xMin="48" yMin="-10" xMax="691" yMax="999">
      <component glyphName="U" x="0" y="0" flags="0x204"/>
      <component glyphName="hungarumlaut.cap" x="119" y="0" flags="0x4"/>
    </TTGlyph>
    <TTGlyph name="Umacron" xMin="48" yMin="-10" xMax="691" yMax="873">
      <component glyphName="U" x="0" y="0" flags="0x204"/>
      <component glyphName="macron.cap" x="138" y="0" flags="0x4"/>
    </TTGlyph>
    <TTGlyph name="Uogonek" xMin="48" yMin="-229" xMax="691" yMax="663">
      <contour>
        <pt x="691" y="663" on="1"/>
        <pt x="649" y="309" on="1"/>
        <pt x="642" y="249" on="0"/>
        <pt x="611" y="147" on="0"/>
        <pt x="574" y="104" on="1"/>
        <pt x="557" y="83" on="0"/>
        <pt x="515" y="51" on="0"/>
        <pt x="468" y="24" on="0"/>
        <pt x="418" y="0" on="0"/>
        <pt x="393" y="-13" on="1"/>
        <pt x="365" y="-27" on="0"/>
        <pt x="329" y="-60" on="0"/>
        <pt x="329" y="-84" on="1"/>
        <pt x="329" y="-125" on="0"/>
        <pt x="382" y="-125" on="1"/>
        <pt x="391" y="-125" on="0"/>
        <pt x="425" y="-121" on="0"/>
        <pt x="440" y="-119" on="1"/>
        <pt x="453" y="-201" on="1"/>
        <pt x="429" y="-215" on="0"/>
        <pt x="364" y="-229" on="0"/>
        <pt x="339" y="-229" on="1"/>
        <pt x="280" y="-229" on="0"/>
        <pt x="211" y="-165" on="0"/>
        <pt x="211" y="-116" on="1"/>
        <pt x="211" y="-85" on="0"/>
        <pt x="246" y="-30" on="0"/>
        <pt x="277" y="-7" on="1"/>
        <pt x="227" y="-1" on="0"/>
        <pt x="143" y="38" on="0"/>
        <pt x="82" y="102" on="0"/>
        <pt x="48" y="188" on="0"/>
        <pt x="48" y="241" on="1"/>
        <pt x="48" y="269" on="0"/>
        <pt x="54" y="336" on="0"/>
        <pt x="60" y="387" on="1"/>
        <pt x="92" y="663" on="1"/>
        <pt x="269" y="663" on="1"/>
        <pt x="231" y="347" on="1"/>
        <pt x="227" y="315" on="0"/>
        <pt x="224" y="276" on="0"/>
        <pt x="224" y="262" on="1"/>
        <pt x="224" y="214" on="0"/>
        <pt x="284" y="162" on="0"/>
        <pt x="333" y="162" on="1"/>
        <pt x="402" y="162" on="0"/>
        <pt x="467" y="246" on="0"/>
        <pt x="477" y="327" on="1"/>
        <pt x="517" y="663" on="1"/>
      </contour>
    </TTGlyph>
    <TTGlyph name="Uring" xMin="48" yMin="-10" xMax="691" yMax="995">
      <component glyphName="U" x="0" y="0" flags="0x204"/>
      <component glyphName="ring.cap" x="151" y="0" flags="0x4"/>
    </TTGlyph>
    <TTGlyph name="Utilde" xMin="48" yMin="-10" xMax="691" yMax="904">
      <component glyphName="U" x="0" y="0" flags="0x204"/>
      <component glyphName="tilde.cap" x="127" y="0" flags="0x4"/>
    </TTGlyph>
    <TTGlyph name="V" xMin="38" yMin="0" xMax="717" yMax="663">
      <contour>
        <pt x="518" y="651" on="1"/>
        <pt x="522" y="659" on="0"/>
        <pt x="529" y="663" on="0"/>
        <pt x="536" y="663" on="1"/>
        <pt x="717" y="663" on="1"/>
        <pt x="413" y="0" on="1"/>
        <pt x="212" y="0" on="1"/>
        <pt x="201" y="0" on="0"/>
        <pt x="192" y="9" on="0"/>
        <pt x="190" y="19" on="1"/>
        <pt x="38" y="663" on="1"/>
        <pt x="212" y="663" on="1"/>
        <pt x="220" y="663" on="0"/>
        <pt x="226" y="658" on="0"/>
        <pt x="228" y="651" on="1"/>
        <pt x="274" y="432" on="1"/>
        <pt x="282" y="392" on="0"/>
        <pt x="296" y="311" on="0"/>
        <pt x="308" y="237" on="0"/>
        <pt x="316" y="172" on="0"/>
        <pt x="319" y="148" on="1"/>
        <pt x="320" y="148" on="1"/>
        <pt x="328" y="174" on="0"/>
        <pt x="358" y="258" on="0"/>
        <pt x="389" y="343" on="0"/>
        <pt x="415" y="414" on="0"/>
        <pt x="421" y="427" on="1"/>
      </contour>
    </TTGlyph>
    <TTGlyph name="W" xMin="37" yMin="0" xMax="1043" yMax="663">
      <contour>
        <pt x="652" y="469" on="1"/>
        <pt x="657" y="437" on="0"/>
        <pt x="666" y="355" on="0"/>
        <pt x="672" y="272" on="0"/>
        <pt x="676" y="195" on="0"/>
        <pt x="676" y="168" on="1"/>
        <pt x="677" y="168" on="1"/>
        <pt x="696" y="230" on="0"/>
        <pt x="749" y="383" on="0"/>
        <pt x="787" y="478" on="1"/>
        <pt x="857" y="651" on="1"/>
        <pt x="860" y="658" on="0"/>
        <pt x="867" y="663" on="0"/>
        <pt x="876" y="663" on="1"/>
        <pt x="1043" y="663" on="1"/>
        <pt x="775" y="0" on="1"/>
        <pt x="578" y="0" on="1"/>
        <pt x="566" y="0" on="0"/>
        <pt x="558" y="8" on="0"/>
        <pt x="556" y="16" on="1"/>
        <pt x="544" y="101" on="1"/>
        <pt x="538" y="140" on="0"/>
        <pt x="528" y="228" on="0"/>
        <pt x="519" y="315" on="0"/>
        <pt x="513" y="395" on="0"/>
        <pt x="511" y="427" on="1"/>
        <pt x="510" y="427" on="1"/>
        <pt x="499" y="388" on="0"/>
        <pt x="473" y="302" on="0"/>
        <pt x="447" y="217" on="0"/>
        <pt x="421" y="140" on="0"/>
        <pt x="409" y="111" on="1"/>
        <pt x="365" y="0" on="1"/>
        <pt x="170" y="0" on="1"/>
        <pt x="158" y="0" on="0"/>
        <pt x="149" y="7" on="0"/>
        <pt x="147" y="16" on="1"/>
        <pt x="37" y="663" on="1"/>
        <pt x="203" y="663" on="1"/>
        <pt x="211" y="663" on="0"/>
        <pt x="218" y="658" on="0"/>
        <pt x="220" y="650" on="1"/>
        <pt x="248" y="478" on="1"/>
        <pt x="263" y="384" on="0"/>
        <pt x="281" y="223" on="0"/>
        <pt x="284" y="168" on="1"/>
        <pt x="285" y="168" on="1"/>
        <pt x="301" y="228" on="0"/>
        <pt x="347" y="377" on="0"/>
        <pt x="386" y="474" on="1"/>
        <pt x="462" y="663" on="1"/>
        <pt x="604" y="663" on="1"/>
        <pt x="614" y="663" on="0"/>
        <pt x="621" y="657" on="0"/>
        <pt x="623" y="649" on="1"/>
      </contour>
    </TTGlyph>
    <TTGlyph name="Wacute" xMin="37" yMin="0" xMax="1043" yMax="940">
      <component glyphName="W" x="0" y="0" flags="0x204"/>
      <component glyphName="acute.cap" x="281" y="0" flags="0x4"/>
    </TTGlyph>
    <TTGlyph name="Wcircumflex" xMin="37" yMin="0" xMax="1043" yMax="923">
      <component glyphName="W" x="0" y="0" flags="0x204"/>
      <component glyphName="circumflex.cap" x="284" y="0" flags="0x4"/>
    </TTGlyph>
    <TTGlyph name="Wdieresis" xMin="37" yMin="0" xMax="1043" yMax="884">
      <component glyphName="W" x="0" y="0" flags="0x204"/>
      <component glyphName="dieresis.cap" x="287" y="0" flags="0x4"/>
    </TTGlyph>
    <TTGlyph name="Wgrave" xMin="37" yMin="0" xMax="1043" yMax="941">
      <component glyphName="W" x="0" y="0" flags="0x204"/>
      <component glyphName="grave.cap" x="297" y="0" flags="0x4"/>
    </TTGlyph>
    <TTGlyph name="X" xMin="-36" yMin="0" xMax="726" yMax="663">
      <contour>
        <pt x="459" y="331" on="1"/>
        <pt x="669" y="0" on="1"/>
        <pt x="492" y="0" on="1"/>
        <pt x="483" y="0" on="0"/>
        <pt x="472" y="5" on="0"/>
        <pt x="467" y="13" on="1"/>
        <pt x="340" y="216" on="1"/>
        <pt x="177" y="13" on="1"/>
        <pt x="170" y="5" on="0"/>
        <pt x="161" y="0" on="0"/>
        <pt x="151" y="0" on="1"/>
        <pt x="-36" y="0" on="1"/>
        <pt x="250" y="348" on="1"/>
        <pt x="50" y="663" on="1"/>
        <pt x="226" y="663" on="1"/>
        <pt x="236" y="663" on="0"/>
        <pt x="246" y="658" on="0"/>
        <pt x="252" y="648" on="1"/>
        <pt x="367" y="463" on="1"/>
        <pt x="514" y="648" on="1"/>
        <pt x="522" y="657" on="0"/>
        <pt x="533" y="663" on="0"/>
        <pt x="543" y="663" on="1"/>
        <pt x="726" y="663" on="1"/>
      </contour>
    </TTGlyph>
    <TTGlyph name="Y" xMin="35" yMin="0" xMax="744" yMax="663">
      <contour>
        <pt x="354" y="346" on="1"/>
        <pt x="371" y="380" on="0"/>
        <pt x="430" y="482" on="0"/>
        <pt x="465" y="538" on="1"/>
        <pt x="535" y="651" on="1"/>
        <pt x="540" y="659" on="0"/>
        <pt x="548" y="663" on="0"/>
        <pt x="556" y="663" on="1"/>
        <pt x="744" y="663" on="1"/>
        <pt x="427" y="200" on="1"/>
        <pt x="403" y="0" on="1"/>
        <pt x="225" y="0" on="1"/>
        <pt x="249" y="200" on="1"/>
        <pt x="35" y="663" on="1"/>
        <pt x="218" y="663" on="1"/>
        <pt x="226" y="663" on="0"/>
        <pt x="231" y="659" on="0"/>
        <pt x="235" y="651" on="1"/>
        <pt x="285" y="533" on="1"/>
        <pt x="299" y="499" on="0"/>
        <pt x="320" y="447" on="0"/>
        <pt x="335" y="404" on="0"/>
        <pt x="347" y="366" on="0"/>
        <pt x="353" y="346" on="1"/>
      </contour>
    </TTGlyph>
    <TTGlyph name="Yacute" xMin="35" yMin="0" xMax="744" yMax="940">
      <component glyphName="Y" x="0" y="0" flags="0x204"/>
      <component glyphName="acute.cap" x="139" y="0" flags="0x4"/>
    </TTGlyph>
    <TTGlyph name="Ycircumflex" xMin="35" yMin="0" xMax="744" yMax="923">
      <component glyphName="Y" x="0" y="0" flags="0x204"/>
      <component glyphName="circumflex.cap" x="121" y="0" flags="0x4"/>
    </TTGlyph>
    <TTGlyph name="Ydieresis" xMin="35" yMin="0" xMax="744" yMax="884">
      <component glyphName="Y" x="0" y="0" flags="0x204"/>
      <component glyphName="dieresis.cap" x="125" y="0" flags="0x4"/>
    </TTGlyph>
    <TTGlyph name="Ygrave" xMin="35" yMin="0" xMax="744" yMax="941">
      <component glyphName="Y" x="0" y="0" flags="0x204"/>
      <component glyphName="grave.cap" x="97" y="0" flags="0x4"/>
    </TTGlyph>
    <TTGlyph name="Z" xMin="0" yMin="0" xMax="623" yMax="663">
      <contour>
        <pt x="569" y="147" on="1"/>
        <pt x="551" y="0" on="1"/>
        <pt x="0" y="0" on="1"/>
        <pt x="12" y="99" on="1"/>
        <pt x="14" y="118" on="0"/>
        <pt x="24" y="137" on="0"/>
        <pt x="39" y="154" on="1"/>
        <pt x="238" y="372" on="1"/>
        <pt x="254" y="390" on="0"/>
        <pt x="291" y="430" on="0"/>
        <pt x="328" y="469" on="0"/>
        <pt x="362" y="504" on="0"/>
        <pt x="376" y="516" on="1"/>
        <pt x="64" y="516" on="1"/>
        <pt x="82" y="663" on="1"/>
        <pt x="623" y="663" on="1"/>
        <pt x="611" y="564" on="1"/>
        <pt x="610" y="554" on="0"/>
        <pt x="607" y="541" on="0"/>
        <pt x="601" y="530" on="0"/>
        <pt x="592" y="518" on="0"/>
        <pt x="584" y="509" on="1"/>
        <pt x="382" y="291" on="1"/>
        <pt x="365" y="273" on="0"/>
        <pt x="329" y="232" on="0"/>
        <pt x="293" y="193" on="0"/>
        <pt x="259" y="159" on="0"/>
        <pt x="246" y="147" on="1"/>
      </contour>
    </TTGlyph>
    <TTGlyph name="Zacute" xMin="0" yMin="0" xMax="623" yMax="940">
      <component glyphName="Z" x="0" y="0" flags="0x204"/>
      <component glyphName="acute.cap" x="99" y="0" flags="0x4"/>
    </TTGlyph>
    <TTGlyph name="Zcaron" xMin="0" yMin="0" xMax="623" yMax="936">
      <component glyphName="Z" x="0" y="0" flags="0x204"/>
      <component glyphName="caron.cap" x="91" y="0" flags="0x4"/>
    </TTGlyph>
    <TTGlyph name="Zdotaccent" xMin="0" yMin="0" xMax="623" yMax="883">
      <component glyphName="Z" x="0" y="0" flags="0x204"/>
      <component glyphName="dotaccent.cap" x="101" y="0" flags="0x4"/>
    </TTGlyph>
    <TTGlyph name="a" xMin="20" yMin="-8" xMax="553" yMax="496">
      <contour>
        <pt x="553" y="108" on="1"/>
        <pt x="543" y="24" on="1"/>
        <pt x="518" y="10" on="0"/>
        <pt x="459" y="-3" on="0"/>
        <pt x="436" y="-3" on="1"/>
        <pt x="370" y="-3" on="0"/>
        <pt x="337" y="47" on="1"/>
        <pt x="309" y="31" on="1"/>
        <pt x="280" y="14" on="0"/>
        <pt x="225" y="-8" on="0"/>
        <pt x="198" y="-8" on="1"/>
        <pt x="158" y="-8" on="0"/>
        <pt x="92" y="26" on="0"/>
        <pt x="46" y="85" on="0"/>
        <pt x="20" y="167" on="0"/>
        <pt x="20" y="215" on="1"/>
        <pt x="20" y="270" on="0"/>
        <pt x="58" y="372" on="0"/>
        <pt x="123" y="450" on="0"/>
        <pt x="210" y="496" on="0"/>
        <pt x="260" y="496" on="1"/>
        <pt x="289" y="496" on="0"/>
        <pt x="336" y="476" on="0"/>
        <pt x="358" y="459" on="1"/>
        <pt x="377" y="444" on="1"/>
        <pt x="402" y="490" on="1"/>
        <pt x="527" y="481" on="1"/>
        <pt x="485" y="127" on="1"/>
      </contour>
      <contour>
        <pt x="342" y="323" on="1"/>
        <pt x="343" y="335" on="0"/>
        <pt x="332" y="340" on="1"/>
        <pt x="324" y="343" on="0"/>
        <pt x="299" y="349" on="0"/>
        <pt x="284" y="349" on="1"/>
        <pt x="260" y="349" on="0"/>
        <pt x="224" y="329" on="0"/>
        <pt x="200" y="294" on="0"/>
        <pt x="188" y="248" on="0"/>
        <pt x="188" y="221" on="1"/>
        <pt x="188" y="186" on="0"/>
        <pt x="217" y="141" on="0"/>
        <pt x="255" y="141" on="1"/>
        <pt x="269" y="141" on="0"/>
        <pt x="300" y="149" on="0"/>
        <pt x="311" y="154" on="1"/>
        <pt x="319" y="158" on="0"/>
        <pt x="322" y="166" on="0"/>
        <pt x="323" y="173" on="1"/>
      </contour>
    </TTGlyph>
    <TTGlyph name="aacute" xMin="20" yMin="-8" xMax="553" yMax="770">
      <component glyphName="a" x="0" y="0" flags="0x204"/>
      <component glyphName="acute" x="69" y="0" flags="0x4"/>
    </TTGlyph>
    <TTGlyph name="abreve" xMin="20" yMin="-8" xMax="553" yMax="738">
      <component glyphName="a" x="0" y="0" flags="0x204"/>
      <component glyphName="breve" x="56" y="0" flags="0x4"/>
    </TTGlyph>
    <TTGlyph name="acaron" xMin="20" yMin="-8" xMax="553" yMax="766">
      <component glyphName="a" x="0" y="0" flags="0x204"/>
      <component glyphName="caron" x="57" y="0" flags="0x4"/>
    </TTGlyph>
    <TTGlyph name="acircumflex" xMin="20" yMin="-8" xMax="553" yMax="753">
      <component glyphName="a" x="0" y="0" flags="0x204"/>
      <component glyphName="circumflex" x="65" y="0" flags="0x4"/>
    </TTGlyph>
    <TTGlyph name="acute" xMin="116" yMin="549" xMax="393" yMax="770">
      <contour>
        <pt x="157" y="549" on="1"/>
        <pt x="116" y="613" on="1"/>
        <pt x="302" y="760" on="1"/>
        <pt x="313" y="769" on="0"/>
        <pt x="334" y="770" on="0"/>
        <pt x="343" y="753" on="1"/>
        <pt x="393" y="661" on="1"/>
      </contour>
    </TTGlyph>
    <TTGlyph name="acute.cap" xMin="146" yMin="719" xMax="423" yMax="940">
      <contour>
        <pt x="187" y="719" on="1"/>
        <pt x="146" y="783" on="1"/>
        <pt x="332" y="930" on="1"/>
        <pt x="343" y="939" on="0"/>
        <pt x="364" y="940" on="0"/>
        <pt x="373" y="923" on="1"/>
        <pt x="423" y="831" on="1"/>
      </contour>
    </TTGlyph>
    <TTGlyph name="adieresis" xMin="20" yMin="-8" xMax="553" yMax="714">
      <component glyphName="a" x="0" y="0" flags="0x204"/>
      <component glyphName="dieresis" x="56" y="0" flags="0x4"/>
    </TTGlyph>
    <TTGlyph name="ae" xMin="14" yMin="-8" xMax="784" yMax="496">
      <contour>
        <pt x="536" y="-8" on="1"/>
        <pt x="432" y="-8" on="0"/>
        <pt x="366" y="53" on="1"/>
        <pt x="326" y="32" on="1"/>
        <pt x="284" y="10" on="0"/>
        <pt x="217" y="-8" on="0"/>
        <pt x="183" y="-8" on="1"/>
        <pt x="145" y="-8" on="0"/>
        <pt x="82" y="15" on="0"/>
        <pt x="38" y="57" on="0"/>
        <pt x="14" y="115" on="0"/>
        <pt x="14" y="150" on="1"/>
        <pt x="14" y="185" on="0"/>
        <pt x="40" y="241" on="0"/>
        <pt x="84" y="281" on="0"/>
        <pt x="144" y="302" on="0"/>
        <pt x="179" y="302" on="1"/>
        <pt x="214" y="302" on="0"/>
        <pt x="273" y="287" on="0"/>
        <pt x="300" y="275" on="1"/>
        <pt x="303" y="286" on="0"/>
        <pt x="309" y="312" on="0"/>
        <pt x="309" y="322" on="1"/>
        <pt x="309" y="340" on="0"/>
        <pt x="277" y="361" on="0"/>
        <pt x="245" y="361" on="1"/>
        <pt x="219" y="361" on="0"/>
        <pt x="158" y="353" on="0"/>
        <pt x="131" y="347" on="1"/>
        <pt x="90" y="338" on="1"/>
        <pt x="60" y="426" on="1"/>
        <pt x="83" y="441" on="0"/>
        <pt x="138" y="467" on="0"/>
        <pt x="195" y="485" on="0"/>
        <pt x="250" y="496" on="0"/>
        <pt x="273" y="496" on="1"/>
        <pt x="312" y="496" on="0"/>
        <pt x="382" y="474" on="0"/>
        <pt x="411" y="451" on="1"/>
        <pt x="443" y="473" on="0"/>
        <pt x="518" y="496" on="0"/>
        <pt x="559" y="496" on="1"/>
        <pt x="605" y="496" on="0"/>
        <pt x="687" y="466" on="0"/>
        <pt x="749" y="409" on="0"/>
        <pt x="784" y="327" on="0"/>
        <pt x="784" y="275" on="1"/>
        <pt x="784" y="258" on="0"/>
        <pt x="780" y="225" on="0"/>
        <pt x="778" y="216" on="1"/>
        <pt x="774" y="198" on="0"/>
        <pt x="751" y="198" on="1"/>
        <pt x="464" y="198" on="1"/>
        <pt x="469" y="168" on="0"/>
        <pt x="518" y="134" on="0"/>
        <pt x="558" y="134" on="1"/>
        <pt x="584" y="134" on="0"/>
        <pt x="642" y="144" on="0"/>
        <pt x="668" y="150" on="1"/>
        <pt x="718" y="162" on="1"/>
        <pt x="760" y="70" on="1"/>
        <pt x="742" y="55" on="0"/>
        <pt x="690" y="26" on="0"/>
        <pt x="630" y="5" on="0"/>
        <pt x="566" y="-8" on="0"/>
      </contour>
      <contour>
        <pt x="224" y="115" on="1"/>
        <pt x="246" y="115" on="0"/>
        <pt x="296" y="130" on="0"/>
        <pt x="311" y="138" on="1"/>
        <pt x="302" y="163" on="0"/>
        <pt x="299" y="192" on="1"/>
        <pt x="186" y="192" on="1"/>
        <pt x="178" y="192" on="0"/>
        <pt x="170" y="189" on="0"/>
        <pt x="167" y="185" on="1"/>
        <pt x="161" y="177" on="0"/>
        <pt x="161" y="163" on="1"/>
        <pt x="161" y="144" on="0"/>
        <pt x="189" y="115" on="0"/>
      </contour>
      <contour>
        <pt x="627" y="300" on="1"/>
        <pt x="626" y="329" on="0"/>
        <pt x="588" y="366" on="0"/>
        <pt x="557" y="366" on="1"/>
        <pt x="522" y="366" on="0"/>
        <pt x="479" y="332" on="0"/>
        <pt x="471" y="300" on="1"/>
      </contour>
    </TTGlyph>
    <TTGlyph name="aeacute" xMin="14" yMin="-8" xMax="784" yMax="770">
      <component glyphName="ae" x="0" y="0" flags="0x4"/>
      <component glyphName="acute" x="181" y="0" flags="0x4"/>
    </TTGlyph>
    <TTGlyph name="agrave" xMin="20" yMin="-8" xMax="553" yMax="771">
      <component glyphName="a" x="0" y="0" flags="0x204"/>
      <component glyphName="grave" x="48" y="0" flags="0x4"/>
    </TTGlyph>
    <TTGlyph name="amacron" xMin="20" yMin="-8" xMax="553" yMax="703">
      <component glyphName="a" x="0" y="0" flags="0x204"/>
      <component glyphName="macron" x="64" y="0" flags="0x4"/>
    </TTGlyph>
    <TTGlyph name="ampersand" xMin="13" yMin="-10" xMax="685" yMax="675">
      <contour>
        <pt x="598" y="114" on="1"/>
        <pt x="685" y="103" on="1"/>
        <pt x="677" y="23" on="1"/>
        <pt x="653" y="11" on="0"/>
        <pt x="601" y="-3" on="0"/>
        <pt x="572" y="-3" on="1"/>
        <pt x="542" y="-3" on="0"/>
        <pt x="483" y="25" on="0"/>
        <pt x="451" y="60" on="1"/>
        <pt x="402" y="23" on="0"/>
        <pt x="304" y="-10" on="0"/>
        <pt x="256" y="-10" on="1"/>
        <pt x="205" y="-10" on="0"/>
        <pt x="117" y="21" on="0"/>
        <pt x="51" y="78" on="0"/>
        <pt x="13" y="157" on="0"/>
        <pt x="13" y="204" on="1"/>
        <pt x="13" y="244" on="0"/>
        <pt x="40" y="305" on="0"/>
        <pt x="84" y="349" on="0"/>
        <pt x="141" y="378" on="0"/>
        <pt x="171" y="386" on="1"/>
        <pt x="160" y="402" on="0"/>
        <pt x="144" y="452" on="0"/>
        <pt x="144" y="483" on="1"/>
        <pt x="144" y="525" on="0"/>
        <pt x="178" y="596" on="0"/>
        <pt x="237" y="647" on="0"/>
        <pt x="316" y="675" on="0"/>
        <pt x="361" y="675" on="1"/>
        <pt x="397" y="675" on="0"/>
        <pt x="464" y="652" on="0"/>
        <pt x="517" y="610" on="0"/>
        <pt x="549" y="550" on="0"/>
        <pt x="549" y="512" on="1"/>
        <pt x="549" y="458" on="0"/>
        <pt x="484" y="369" on="0"/>
        <pt x="409" y="325" on="1"/>
        <pt x="481" y="245" on="1"/>
        <pt x="589" y="415" on="1"/>
        <pt x="676" y="380" on="1"/>
        <pt x="653" y="315" on="0"/>
        <pt x="594" y="212" on="0"/>
        <pt x="558" y="160" on="1"/>
      </contour>
      <contour>
        <pt x="225" y="313" on="1"/>
        <pt x="172" y="278" on="0"/>
        <pt x="172" y="225" on="1"/>
        <pt x="172" y="185" on="0"/>
        <pt x="230" y="128" on="0"/>
        <pt x="280" y="128" on="1"/>
        <pt x="304" y="128" on="0"/>
        <pt x="351" y="138" on="0"/>
        <pt x="371" y="149" on="1"/>
      </contour>
      <contour>
        <pt x="349" y="391" on="1"/>
        <pt x="387" y="424" on="0"/>
        <pt x="419" y="467" on="0"/>
        <pt x="419" y="492" on="1"/>
        <pt x="419" y="518" on="0"/>
        <pt x="385" y="546" on="0"/>
        <pt x="359" y="546" on="1"/>
        <pt x="328" y="546" on="0"/>
        <pt x="290" y="512" on="0"/>
        <pt x="290" y="486" on="1"/>
        <pt x="290" y="464" on="0"/>
        <pt x="319" y="424" on="0"/>
      </contour>
    </TTGlyph>
    <TTGlyph name="aogonek" xMin="20" yMin="-238" xMax="553" yMax="496">
      <contour>
        <pt x="553" y="108" on="1"/>
        <pt x="543" y="24" on="1"/>
        <pt x="471" y="0" on="0"/>
        <pt x="386" y="-56" on="0"/>
        <pt x="386" y="-90" on="1"/>
        <pt x="386" y="-110" on="0"/>
        <pt x="413" y="-134" on="0"/>
        <pt x="441" y="-134" on="1"/>
        <pt x="451" y="-134" on="0"/>
        <pt x="483" y="-130" on="0"/>
        <pt x="497" y="-128" on="1"/>
        <pt x="510" y="-210" on="1"/>
        <pt x="487" y="-222" on="0"/>
        <pt x="425" y="-238" on="0"/>
        <pt x="396" y="-238" on="1"/>
        <pt x="336" y="-238" on="0"/>
        <pt x="268" y="-174" on="0"/>
        <pt x="268" y="-125" on="1"/>
        <pt x="268" y="-83" on="0"/>
        <pt x="326" y="-11" on="0"/>
        <pt x="373" y="13" on="1"/>
        <pt x="351" y="24" on="0"/>
        <pt x="337" y="47" on="1"/>
        <pt x="309" y="31" on="1"/>
        <pt x="280" y="14" on="0"/>
        <pt x="225" y="-8" on="0"/>
        <pt x="198" y="-8" on="1"/>
        <pt x="158" y="-8" on="0"/>
        <pt x="92" y="26" on="0"/>
        <pt x="46" y="85" on="0"/>
        <pt x="20" y="167" on="0"/>
        <pt x="20" y="215" on="1"/>
        <pt x="20" y="270" on="0"/>
        <pt x="58" y="372" on="0"/>
        <pt x="123" y="450" on="0"/>
        <pt x="210" y="496" on="0"/>
        <pt x="260" y="496" on="1"/>
        <pt x="289" y="496" on="0"/>
        <pt x="336" y="476" on="0"/>
        <pt x="358" y="459" on="1"/>
        <pt x="377" y="444" on="1"/>
        <pt x="402" y="490" on="1"/>
        <pt x="527" y="481" on="1"/>
        <pt x="485" y="127" on="1"/>
      </contour>
      <contour>
        <pt x="342" y="323" on="1"/>
        <pt x="343" y="335" on="0"/>
        <pt x="332" y="340" on="1"/>
        <pt x="324" y="343" on="0"/>
        <pt x="299" y="349" on="0"/>
        <pt x="284" y="349" on="1"/>
        <pt x="260" y="349" on="0"/>
        <pt x="224" y="329" on="0"/>
        <pt x="200" y="294" on="0"/>
        <pt x="188" y="248" on="0"/>
        <pt x="188" y="221" on="1"/>
        <pt x="188" y="186" on="0"/>
        <pt x="217" y="141" on="0"/>
        <pt x="255" y="141" on="1"/>
        <pt x="269" y="141" on="0"/>
        <pt x="300" y="149" on="0"/>
        <pt x="311" y="154" on="1"/>
        <pt x="319" y="158" on="0"/>
        <pt x="322" y="166" on="0"/>
        <pt x="323" y="173" on="1"/>
      </contour>
    </TTGlyph>
    <TTGlyph name="apple" xMin="78" yMin="0" xMax="466" yMax="650">
      <contour>
        <pt x="208" y="357" on="1"/>
        <pt x="208" y="370" on="0"/>
        <pt x="227" y="388" on="0"/>
        <pt x="239" y="388" on="1"/>
        <pt x="252" y="388" on="0"/>
        <pt x="269" y="370" on="0"/>
        <pt x="269" y="357" on="1"/>
        <pt x="269" y="344" on="0"/>
        <pt x="252" y="327" on="0"/>
        <pt x="239" y="327" on="1"/>
        <pt x="227" y="327" on="0"/>
        <pt x="208" y="344" on="0"/>
      </contour>
      <contour>
        <pt x="405" y="357" on="1"/>
        <pt x="405" y="370" on="0"/>
        <pt x="424" y="388" on="0"/>
        <pt x="436" y="388" on="1"/>
        <pt x="449" y="388" on="0"/>
        <pt x="466" y="370" on="0"/>
        <pt x="466" y="357" on="1"/>
        <pt x="466" y="344" on="0"/>
        <pt x="449" y="327" on="0"/>
        <pt x="436" y="327" on="1"/>
        <pt x="424" y="327" on="0"/>
        <pt x="405" y="344" on="0"/>
      </contour>
      <contour>
        <pt x="78" y="161" on="1"/>
        <pt x="78" y="174" on="0"/>
        <pt x="95" y="191" on="0"/>
        <pt x="108" y="191" on="1"/>
        <pt x="120" y="191" on="0"/>
        <pt x="139" y="174" on="0"/>
        <pt x="139" y="161" on="1"/>
        <pt x="139" y="148" on="0"/>
        <pt x="120" y="130" on="0"/>
        <pt x="108" y="130" on="1"/>
        <pt x="95" y="130" on="0"/>
        <pt x="78" y="148" on="0"/>
      </contour>
      <contour>
        <pt x="78" y="357" on="1"/>
        <pt x="78" y="370" on="0"/>
        <pt x="95" y="388" on="0"/>
        <pt x="108" y="388" on="1"/>
        <pt x="120" y="388" on="0"/>
        <pt x="139" y="370" on="0"/>
        <pt x="139" y="357" on="1"/>
        <pt x="139" y="344" on="0"/>
        <pt x="120" y="327" on="0"/>
        <pt x="108" y="327" on="1"/>
        <pt x="95" y="327" on="0"/>
        <pt x="78" y="344" on="0"/>
      </contour>
      <contour>
        <pt x="275" y="357" on="1"/>
        <pt x="275" y="370" on="0"/>
        <pt x="292" y="388" on="0"/>
        <pt x="305" y="388" on="1"/>
        <pt x="317" y="388" on="0"/>
        <pt x="336" y="370" on="0"/>
        <pt x="336" y="357" on="1"/>
        <pt x="336" y="344" on="0"/>
        <pt x="317" y="327" on="0"/>
        <pt x="305" y="327" on="1"/>
        <pt x="292" y="327" on="0"/>
        <pt x="275" y="344" on="0"/>
      </contour>
      <contour>
        <pt x="340" y="620" on="1"/>
        <pt x="340" y="632" on="0"/>
        <pt x="357" y="650" on="0"/>
        <pt x="371" y="650" on="1"/>
        <pt x="382" y="650" on="0"/>
        <pt x="401" y="632" on="0"/>
        <pt x="401" y="620" on="1"/>
        <pt x="401" y="606" on="0"/>
        <pt x="382" y="589" on="0"/>
        <pt x="371" y="589" on="1"/>
        <pt x="357" y="589" on="0"/>
        <pt x="340" y="606" on="0"/>
      </contour>
      <contour>
        <pt x="78" y="620" on="1"/>
        <pt x="78" y="632" on="0"/>
        <pt x="95" y="650" on="0"/>
        <pt x="108" y="650" on="1"/>
        <pt x="120" y="650" on="0"/>
        <pt x="139" y="632" on="0"/>
        <pt x="139" y="620" on="1"/>
        <pt x="139" y="606" on="0"/>
        <pt x="120" y="589" on="0"/>
        <pt x="108" y="589" on="1"/>
        <pt x="95" y="589" on="0"/>
        <pt x="78" y="606" on="0"/>
      </contour>
      <contour>
        <pt x="275" y="620" on="1"/>
        <pt x="275" y="632" on="0"/>
        <pt x="292" y="650" on="0"/>
        <pt x="305" y="650" on="1"/>
        <pt x="317" y="650" on="0"/>
        <pt x="336" y="632" on="0"/>
        <pt x="336" y="620" on="1"/>
        <pt x="336" y="606" on="0"/>
        <pt x="317" y="589" on="0"/>
        <pt x="305" y="589" on="1"/>
        <pt x="292" y="589" on="0"/>
        <pt x="275" y="606" on="0"/>
      </contour>
      <contour>
        <pt x="405" y="620" on="1"/>
        <pt x="405" y="632" on="0"/>
        <pt x="424" y="650" on="0"/>
        <pt x="436" y="650" on="1"/>
        <pt x="449" y="650" on="0"/>
        <pt x="466" y="632" on="0"/>
        <pt x="466" y="620" on="1"/>
        <pt x="466" y="606" on="0"/>
        <pt x="449" y="589" on="0"/>
        <pt x="436" y="589" on="1"/>
        <pt x="424" y="589" on="0"/>
        <pt x="405" y="606" on="0"/>
      </contour>
      <contour>
        <pt x="208" y="620" on="1"/>
        <pt x="208" y="632" on="0"/>
        <pt x="227" y="650" on="0"/>
        <pt x="239" y="650" on="1"/>
        <pt x="252" y="650" on="0"/>
        <pt x="269" y="632" on="0"/>
        <pt x="269" y="620" on="1"/>
        <pt x="269" y="606" on="0"/>
        <pt x="252" y="589" on="0"/>
        <pt x="239" y="589" on="1"/>
        <pt x="227" y="589" on="0"/>
        <pt x="208" y="606" on="0"/>
      </contour>
      <contour>
        <pt x="340" y="357" on="1"/>
        <pt x="340" y="370" on="0"/>
        <pt x="357" y="388" on="0"/>
        <pt x="371" y="388" on="1"/>
        <pt x="382" y="388" on="0"/>
        <pt x="401" y="370" on="0"/>
        <pt x="401" y="357" on="1"/>
        <pt x="401" y="344" on="0"/>
        <pt x="382" y="327" on="0"/>
        <pt x="371" y="327" on="1"/>
        <pt x="357" y="327" on="0"/>
        <pt x="340" y="344" on="0"/>
      </contour>
      <contour>
        <pt x="208" y="30" on="1"/>
        <pt x="208" y="42" on="0"/>
        <pt x="227" y="61" on="0"/>
        <pt x="239" y="61" on="1"/>
        <pt x="252" y="61" on="0"/>
        <pt x="269" y="42" on="0"/>
        <pt x="269" y="30" on="1"/>
        <pt x="269" y="17" on="0"/>
        <pt x="252" y="0" on="0"/>
        <pt x="239" y="0" on="1"/>
        <pt x="227" y="0" on="0"/>
        <pt x="208" y="17" on="0"/>
      </contour>
      <contour>
        <pt x="78" y="30" on="1"/>
        <pt x="78" y="42" on="0"/>
        <pt x="95" y="61" on="0"/>
        <pt x="108" y="61" on="1"/>
        <pt x="120" y="61" on="0"/>
        <pt x="139" y="42" on="0"/>
        <pt x="139" y="30" on="1"/>
        <pt x="139" y="17" on="0"/>
        <pt x="120" y="0" on="0"/>
        <pt x="108" y="0" on="1"/>
        <pt x="95" y="0" on="0"/>
        <pt x="78" y="17" on="0"/>
      </contour>
      <contour>
        <pt x="208" y="95" on="1"/>
        <pt x="208" y="109" on="0"/>
        <pt x="227" y="125" on="0"/>
        <pt x="239" y="125" on="1"/>
        <pt x="252" y="125" on="0"/>
        <pt x="269" y="109" on="0"/>
        <pt x="269" y="95" on="1"/>
        <pt x="269" y="82" on="0"/>
        <pt x="252" y="65" on="0"/>
        <pt x="239" y="65" on="1"/>
        <pt x="227" y="65" on="0"/>
        <pt x="208" y="82" on="0"/>
      </contour>
      <contour>
        <pt x="78" y="95" on="1"/>
        <pt x="78" y="109" on="0"/>
        <pt x="95" y="125" on="0"/>
        <pt x="108" y="125" on="1"/>
        <pt x="120" y="125" on="0"/>
        <pt x="139" y="109" on="0"/>
        <pt x="139" y="95" on="1"/>
        <pt x="139" y="82" on="0"/>
        <pt x="120" y="65" on="0"/>
        <pt x="108" y="65" on="1"/>
        <pt x="95" y="65" on="0"/>
        <pt x="78" y="82" on="0"/>
      </contour>
      <contour>
        <pt x="144" y="620" on="1"/>
        <pt x="144" y="632" on="0"/>
        <pt x="162" y="650" on="0"/>
        <pt x="174" y="650" on="1"/>
        <pt x="187" y="650" on="0"/>
        <pt x="204" y="632" on="0"/>
        <pt x="204" y="620" on="1"/>
        <pt x="204" y="606" on="0"/>
        <pt x="187" y="589" on="0"/>
        <pt x="174" y="589" on="1"/>
        <pt x="162" y="589" on="0"/>
        <pt x="144" y="606" on="0"/>
      </contour>
      <contour>
        <pt x="78" y="489" on="1"/>
        <pt x="78" y="501" on="0"/>
        <pt x="95" y="518" on="0"/>
        <pt x="108" y="518" on="1"/>
        <pt x="120" y="518" on="0"/>
        <pt x="139" y="501" on="0"/>
        <pt x="139" y="489" on="1"/>
        <pt x="139" y="476" on="0"/>
        <pt x="120" y="458" on="0"/>
        <pt x="108" y="458" on="1"/>
        <pt x="95" y="458" on="0"/>
        <pt x="78" y="476" on="0"/>
      </contour>
      <contour>
        <pt x="275" y="489" on="1"/>
        <pt x="275" y="501" on="0"/>
        <pt x="292" y="518" on="0"/>
        <pt x="305" y="518" on="1"/>
        <pt x="317" y="518" on="0"/>
        <pt x="336" y="501" on="0"/>
        <pt x="336" y="489" on="1"/>
        <pt x="336" y="476" on="0"/>
        <pt x="317" y="458" on="0"/>
        <pt x="305" y="458" on="1"/>
        <pt x="292" y="458" on="0"/>
        <pt x="275" y="476" on="0"/>
      </contour>
      <contour>
        <pt x="208" y="489" on="1"/>
        <pt x="208" y="501" on="0"/>
        <pt x="227" y="518" on="0"/>
        <pt x="239" y="518" on="1"/>
        <pt x="252" y="518" on="0"/>
        <pt x="269" y="501" on="0"/>
        <pt x="269" y="489" on="1"/>
        <pt x="269" y="476" on="0"/>
        <pt x="252" y="458" on="0"/>
        <pt x="239" y="458" on="1"/>
        <pt x="227" y="458" on="0"/>
        <pt x="208" y="476" on="0"/>
      </contour>
      <contour>
        <pt x="405" y="489" on="1"/>
        <pt x="405" y="501" on="0"/>
        <pt x="424" y="518" on="0"/>
        <pt x="436" y="518" on="1"/>
        <pt x="449" y="518" on="0"/>
        <pt x="466" y="501" on="0"/>
        <pt x="466" y="489" on="1"/>
        <pt x="466" y="476" on="0"/>
        <pt x="449" y="458" on="0"/>
        <pt x="436" y="458" on="1"/>
        <pt x="424" y="458" on="0"/>
        <pt x="405" y="476" on="0"/>
      </contour>
      <contour>
        <pt x="340" y="489" on="1"/>
        <pt x="340" y="501" on="0"/>
        <pt x="357" y="518" on="0"/>
        <pt x="371" y="518" on="1"/>
        <pt x="382" y="518" on="0"/>
        <pt x="401" y="501" on="0"/>
        <pt x="401" y="489" on="1"/>
        <pt x="401" y="476" on="0"/>
        <pt x="382" y="458" on="0"/>
        <pt x="371" y="458" on="1"/>
        <pt x="357" y="458" on="0"/>
        <pt x="340" y="476" on="0"/>
      </contour>
      <contour>
        <pt x="144" y="30" on="1"/>
        <pt x="144" y="42" on="0"/>
        <pt x="162" y="61" on="0"/>
        <pt x="174" y="61" on="1"/>
        <pt x="187" y="61" on="0"/>
        <pt x="204" y="42" on="0"/>
        <pt x="204" y="30" on="1"/>
        <pt x="204" y="17" on="0"/>
        <pt x="187" y="0" on="0"/>
        <pt x="174" y="0" on="1"/>
        <pt x="162" y="0" on="0"/>
        <pt x="144" y="17" on="0"/>
      </contour>
      <contour>
        <pt x="78" y="292" on="1"/>
        <pt x="78" y="304" on="0"/>
        <pt x="95" y="322" on="0"/>
        <pt x="108" y="322" on="1"/>
        <pt x="120" y="322" on="0"/>
        <pt x="139" y="304" on="0"/>
        <pt x="139" y="292" on="1"/>
        <pt x="139" y="279" on="0"/>
        <pt x="120" y="262" on="0"/>
        <pt x="108" y="262" on="1"/>
        <pt x="95" y="262" on="0"/>
        <pt x="78" y="279" on="0"/>
      </contour>
      <contour>
        <pt x="78" y="554" on="1"/>
        <pt x="78" y="566" on="0"/>
        <pt x="95" y="584" on="0"/>
        <pt x="108" y="584" on="1"/>
        <pt x="120" y="584" on="0"/>
        <pt x="139" y="566" on="0"/>
        <pt x="139" y="554" on="1"/>
        <pt x="139" y="541" on="0"/>
        <pt x="120" y="524" on="0"/>
        <pt x="108" y="524" on="1"/>
        <pt x="95" y="524" on="0"/>
        <pt x="78" y="541" on="0"/>
      </contour>
      <contour>
        <pt x="405" y="292" on="1"/>
        <pt x="405" y="304" on="0"/>
        <pt x="424" y="322" on="0"/>
        <pt x="436" y="322" on="1"/>
        <pt x="449" y="322" on="0"/>
        <pt x="466" y="304" on="0"/>
        <pt x="466" y="292" on="1"/>
        <pt x="466" y="279" on="0"/>
        <pt x="449" y="262" on="0"/>
        <pt x="436" y="262" on="1"/>
        <pt x="424" y="262" on="0"/>
        <pt x="405" y="279" on="0"/>
      </contour>
      <contour>
        <pt x="78" y="423" on="1"/>
        <pt x="78" y="436" on="0"/>
        <pt x="95" y="453" on="0"/>
        <pt x="108" y="453" on="1"/>
        <pt x="120" y="453" on="0"/>
        <pt x="139" y="436" on="0"/>
        <pt x="139" y="423" on="1"/>
        <pt x="139" y="410" on="0"/>
        <pt x="120" y="394" on="0"/>
        <pt x="108" y="394" on="1"/>
        <pt x="95" y="394" on="0"/>
        <pt x="78" y="410" on="0"/>
      </contour>
      <contour>
        <pt x="208" y="423" on="1"/>
        <pt x="208" y="436" on="0"/>
        <pt x="227" y="453" on="0"/>
        <pt x="239" y="453" on="1"/>
        <pt x="252" y="453" on="0"/>
        <pt x="269" y="436" on="0"/>
        <pt x="269" y="423" on="1"/>
        <pt x="269" y="410" on="0"/>
        <pt x="252" y="394" on="0"/>
        <pt x="239" y="394" on="1"/>
        <pt x="227" y="394" on="0"/>
        <pt x="208" y="410" on="0"/>
      </contour>
      <contour>
        <pt x="208" y="227" on="1"/>
        <pt x="208" y="239" on="0"/>
        <pt x="227" y="256" on="0"/>
        <pt x="239" y="256" on="1"/>
        <pt x="252" y="256" on="0"/>
        <pt x="269" y="239" on="0"/>
        <pt x="269" y="227" on="1"/>
        <pt x="269" y="214" on="0"/>
        <pt x="252" y="197" on="0"/>
        <pt x="239" y="197" on="1"/>
        <pt x="227" y="197" on="0"/>
        <pt x="208" y="214" on="0"/>
      </contour>
      <contour>
        <pt x="405" y="227" on="1"/>
        <pt x="405" y="239" on="0"/>
        <pt x="424" y="256" on="0"/>
        <pt x="436" y="256" on="1"/>
        <pt x="449" y="256" on="0"/>
        <pt x="466" y="239" on="0"/>
        <pt x="466" y="227" on="1"/>
        <pt x="466" y="214" on="0"/>
        <pt x="449" y="197" on="0"/>
        <pt x="436" y="197" on="1"/>
        <pt x="424" y="197" on="0"/>
        <pt x="405" y="214" on="0"/>
      </contour>
      <contour>
        <pt x="78" y="227" on="1"/>
        <pt x="78" y="239" on="0"/>
        <pt x="95" y="256" on="0"/>
        <pt x="108" y="256" on="1"/>
        <pt x="120" y="256" on="0"/>
        <pt x="139" y="239" on="0"/>
        <pt x="139" y="227" on="1"/>
        <pt x="139" y="214" on="0"/>
        <pt x="120" y="197" on="0"/>
        <pt x="108" y="197" on="1"/>
        <pt x="95" y="197" on="0"/>
        <pt x="78" y="214" on="0"/>
      </contour>
      <contour>
        <pt x="275" y="227" on="1"/>
        <pt x="275" y="239" on="0"/>
        <pt x="292" y="256" on="0"/>
        <pt x="305" y="256" on="1"/>
        <pt x="317" y="256" on="0"/>
        <pt x="336" y="239" on="0"/>
        <pt x="336" y="227" on="1"/>
        <pt x="336" y="214" on="0"/>
        <pt x="317" y="197" on="0"/>
        <pt x="305" y="197" on="1"/>
        <pt x="292" y="197" on="0"/>
        <pt x="275" y="214" on="0"/>
      </contour>
      <contour>
        <pt x="340" y="227" on="1"/>
        <pt x="340" y="239" on="0"/>
        <pt x="357" y="256" on="0"/>
        <pt x="371" y="256" on="1"/>
        <pt x="382" y="256" on="0"/>
        <pt x="401" y="239" on="0"/>
        <pt x="401" y="227" on="1"/>
        <pt x="401" y="214" on="0"/>
        <pt x="382" y="197" on="0"/>
        <pt x="371" y="197" on="1"/>
        <pt x="357" y="197" on="0"/>
        <pt x="340" y="214" on="0"/>
      </contour>
    </TTGlyph>
    <TTGlyph name="approxequal" xMin="30" yMin="35" xMax="526" yMax="480">
      <contour>
        <pt x="364" y="289" on="1"/>
        <pt x="338" y="289" on="0"/>
        <pt x="295" y="305" on="0"/>
        <pt x="258" y="325" on="0"/>
        <pt x="226" y="341" on="0"/>
        <pt x="210" y="341" on="1"/>
        <pt x="193" y="341" on="0"/>
        <pt x="161" y="320" on="0"/>
        <pt x="139" y="291" on="1"/>
        <pt x="57" y="332" on="1"/>
        <pt x="68" y="365" on="0"/>
        <pt x="102" y="419" on="0"/>
        <pt x="144" y="458" on="0"/>
        <pt x="193" y="480" on="0"/>
        <pt x="219" y="480" on="1"/>
        <pt x="248" y="480" on="0"/>
        <pt x="294" y="464" on="0"/>
        <pt x="331" y="445" on="0"/>
        <pt x="361" y="429" on="0"/>
        <pt x="375" y="429" on="1"/>
        <pt x="401" y="429" on="0"/>
        <pt x="432" y="460" on="0"/>
        <pt x="444" y="478" on="1"/>
        <pt x="526" y="437" on="1"/>
        <pt x="515" y="405" on="0"/>
        <pt x="481" y="351" on="0"/>
        <pt x="438" y="311" on="0"/>
        <pt x="389" y="289" on="0"/>
      </contour>
      <contour>
        <pt x="337" y="35" on="1"/>
        <pt x="311" y="35" on="0"/>
        <pt x="268" y="51" on="0"/>
        <pt x="231" y="71" on="0"/>
        <pt x="199" y="87" on="0"/>
        <pt x="183" y="87" on="1"/>
        <pt x="166" y="87" on="0"/>
        <pt x="134" y="66" on="0"/>
        <pt x="112" y="37" on="1"/>
        <pt x="30" y="78" on="1"/>
        <pt x="41" y="111" on="0"/>
        <pt x="75" y="165" on="0"/>
        <pt x="117" y="204" on="0"/>
        <pt x="166" y="226" on="0"/>
        <pt x="192" y="226" on="1"/>
        <pt x="221" y="226" on="0"/>
        <pt x="267" y="210" on="0"/>
        <pt x="304" y="191" on="0"/>
        <pt x="334" y="175" on="0"/>
        <pt x="348" y="175" on="1"/>
        <pt x="374" y="175" on="0"/>
        <pt x="405" y="206" on="0"/>
        <pt x="417" y="224" on="1"/>
        <pt x="499" y="183" on="1"/>
        <pt x="488" y="151" on="0"/>
        <pt x="454" y="97" on="0"/>
        <pt x="411" y="57" on="0"/>
        <pt x="362" y="35" on="0"/>
      </contour>
    </TTGlyph>
    <TTGlyph name="aring" xMin="20" yMin="-8" xMax="553" yMax="825">
      <component glyphName="a" x="0" y="0" flags="0x204"/>
      <component glyphName="ring" x="62" y="0" flags="0x4"/>
    </TTGlyph>
    <TTGlyph name="aringacute" xMin="20" yMin="-8" xMax="553" yMax="1046">
      <component glyphName="acute" x="107" y="276" flags="0x4"/>
      <component glyphName="a" x="0" y="0" flags="0x4"/>
      <component glyphName="ring" x="65" y="-20" flags="0x4"/>
    </TTGlyph>
    <TTGlyph name="arrowdown" xMin="142" yMin="-106" xMax="658" yMax="593">
      <contour>
        <pt x="377" y="-106" on="1"/>
        <pt x="369" y="-106" on="0"/>
        <pt x="357" y="-102" on="0"/>
        <pt x="349" y="-94" on="1"/>
        <pt x="142" y="113" on="1"/>
        <pt x="212" y="183" on="1"/>
        <pt x="328" y="89" on="1"/>
        <pt x="328" y="593" on="1"/>
        <pt x="467" y="593" on="1"/>
        <pt x="467" y="86" on="1"/>
        <pt x="588" y="183" on="1"/>
        <pt x="658" y="114" on="1"/>
        <pt x="439" y="-106" on="1"/>
      </contour>
    </TTGlyph>
    <TTGlyph name="arrowdown.cap" xMin="142" yMin="-17" xMax="658" yMax="682">
      <contour>
        <pt x="377" y="-17" on="1"/>
        <pt x="369" y="-17" on="0"/>
        <pt x="357" y="-13" on="0"/>
        <pt x="349" y="-5" on="1"/>
        <pt x="142" y="202" on="1"/>
        <pt x="212" y="272" on="1"/>
        <pt x="328" y="178" on="1"/>
        <pt x="328" y="682" on="1"/>
        <pt x="467" y="682" on="1"/>
        <pt x="467" y="175" on="1"/>
        <pt x="588" y="272" on="1"/>
        <pt x="658" y="203" on="1"/>
        <pt x="439" y="-17" on="1"/>
      </contour>
    </TTGlyph>
    <TTGlyph name="arrowleft" xMin="50" yMin="-17" xMax="749" yMax="499">
      <contour>
        <pt x="50" y="264" on="1"/>
        <pt x="50" y="274" on="0"/>
        <pt x="54" y="284" on="0"/>
        <pt x="62" y="292" on="1"/>
        <pt x="269" y="499" on="1"/>
        <pt x="339" y="429" on="1"/>
        <pt x="245" y="310" on="1"/>
        <pt x="749" y="310" on="1"/>
        <pt x="749" y="177" on="1"/>
        <pt x="242" y="177" on="1"/>
        <pt x="339" y="53" on="1"/>
        <pt x="269" y="-17" on="1"/>
        <pt x="50" y="202" on="1"/>
      </contour>
    </TTGlyph>
    <TTGlyph name="arrowleft.cap" xMin="50" yMin="71" xMax="749" yMax="587">
      <contour>
        <pt x="50" y="352" on="1"/>
        <pt x="50" y="362" on="0"/>
        <pt x="54" y="372" on="0"/>
        <pt x="62" y="380" on="1"/>
        <pt x="269" y="587" on="1"/>
        <pt x="339" y="517" on="1"/>
        <pt x="245" y="398" on="1"/>
        <pt x="749" y="398" on="1"/>
        <pt x="749" y="265" on="1"/>
        <pt x="242" y="265" on="1"/>
        <pt x="339" y="141" on="1"/>
        <pt x="269" y="71" on="1"/>
        <pt x="50" y="290" on="1"/>
      </contour>
    </TTGlyph>
    <TTGlyph name="arrowright" xMin="50" yMin="-13" xMax="749" yMax="503">
      <contour>
        <pt x="749" y="222" on="1"/>
        <pt x="749" y="212" on="0"/>
        <pt x="745" y="202" on="0"/>
        <pt x="737" y="194" on="1"/>
        <pt x="530" y="-13" on="1"/>
        <pt x="460" y="57" on="1"/>
        <pt x="554" y="176" on="1"/>
        <pt x="50" y="176" on="1"/>
        <pt x="50" y="309" on="1"/>
        <pt x="557" y="309" on="1"/>
        <pt x="460" y="433" on="1"/>
        <pt x="530" y="503" on="1"/>
        <pt x="749" y="284" on="1"/>
      </contour>
    </TTGlyph>
    <TTGlyph name="arrowright.cap" xMin="50" yMin="76" xMax="749" yMax="592">
      <contour>
        <pt x="749" y="311" on="1"/>
        <pt x="749" y="301" on="0"/>
        <pt x="745" y="291" on="0"/>
        <pt x="737" y="283" on="1"/>
        <pt x="530" y="76" on="1"/>
        <pt x="460" y="146" on="1"/>
        <pt x="554" y="265" on="1"/>
        <pt x="50" y="265" on="1"/>
        <pt x="50" y="398" on="1"/>
        <pt x="557" y="398" on="1"/>
        <pt x="460" y="522" on="1"/>
        <pt x="530" y="592" on="1"/>
        <pt x="749" y="373" on="1"/>
      </contour>
    </TTGlyph>
    <TTGlyph name="arrowup" xMin="142" yMin="-106" xMax="658" yMax="593">
      <contour>
        <pt x="423" y="593" on="1"/>
        <pt x="433" y="593" on="0"/>
        <pt x="443" y="589" on="0"/>
        <pt x="451" y="581" on="1"/>
        <pt x="658" y="374" on="1"/>
        <pt x="588" y="304" on="1"/>
        <pt x="472" y="398" on="1"/>
        <pt x="472" y="-106" on="1"/>
        <pt x="333" y="-106" on="1"/>
        <pt x="333" y="401" on="1"/>
        <pt x="212" y="304" on="1"/>
        <pt x="142" y="373" on="1"/>
        <pt x="361" y="593" on="1"/>
      </contour>
    </TTGlyph>
    <TTGlyph name="arrowup.cap" xMin="142" yMin="-17" xMax="658" yMax="682">
      <contour>
        <pt x="423" y="682" on="1"/>
        <pt x="433" y="682" on="0"/>
        <pt x="443" y="678" on="0"/>
        <pt x="451" y="670" on="1"/>
        <pt x="658" y="463" on="1"/>
        <pt x="588" y="393" on="1"/>
        <pt x="472" y="487" on="1"/>
        <pt x="472" y="-17" on="1"/>
        <pt x="333" y="-17" on="1"/>
        <pt x="333" y="490" on="1"/>
        <pt x="212" y="393" on="1"/>
        <pt x="142" y="462" on="1"/>
        <pt x="361" y="682" on="1"/>
      </contour>
    </TTGlyph>
    <TTGlyph name="asciicircum" xMin="61" yMin="358" xMax="522" yMax="673">
      <contour>
        <pt x="522" y="439" on="1"/>
        <pt x="396" y="358" on="1"/>
        <pt x="300" y="505" on="1"/>
        <pt x="299" y="505" on="1"/>
        <pt x="168" y="358" on="1"/>
        <pt x="61" y="439" on="1"/>
        <pt x="265" y="673" on="1"/>
        <pt x="374" y="673" on="1"/>
      </contour>
    </TTGlyph>
    <TTGlyph name="asciitilde" xMin="62" yMin="278" xMax="531" yMax="469">
      <contour>
        <pt x="369" y="278" on="1"/>
        <pt x="343" y="278" on="0"/>
        <pt x="300" y="294" on="0"/>
        <pt x="263" y="314" on="0"/>
        <pt x="231" y="330" on="0"/>
        <pt x="215" y="330" on="1"/>
        <pt x="198" y="330" on="0"/>
        <pt x="166" y="309" on="0"/>
        <pt x="144" y="280" on="1"/>
        <pt x="62" y="321" on="1"/>
        <pt x="73" y="354" on="0"/>
        <pt x="107" y="408" on="0"/>
        <pt x="149" y="447" on="0"/>
        <pt x="198" y="469" on="0"/>
        <pt x="224" y="469" on="1"/>
        <pt x="253" y="469" on="0"/>
        <pt x="299" y="453" on="0"/>
        <pt x="336" y="434" on="0"/>
        <pt x="366" y="418" on="0"/>
        <pt x="380" y="418" on="1"/>
        <pt x="406" y="418" on="0"/>
        <pt x="437" y="449" on="0"/>
        <pt x="449" y="467" on="1"/>
        <pt x="531" y="426" on="1"/>
        <pt x="520" y="394" on="0"/>
        <pt x="486" y="340" on="0"/>
        <pt x="443" y="300" on="0"/>
        <pt x="394" y="278" on="0"/>
      </contour>
    </TTGlyph>
    <TTGlyph name="asterisk" xMin="58" yMin="252" xMax="471" yMax="663">
      <contour>
        <pt x="326" y="265" on="1"/>
        <pt x="310" y="253" on="0"/>
        <pt x="302" y="270" on="1"/>
        <pt x="256" y="398" on="1"/>
        <pt x="168" y="252" on="1"/>
        <pt x="77" y="319" on="1"/>
        <pt x="60" y="332" on="0"/>
        <pt x="81" y="350" on="1"/>
        <pt x="202" y="449" on="1"/>
        <pt x="58" y="466" on="1"/>
        <pt x="107" y="569" on="1"/>
        <pt x="112" y="580" on="0"/>
        <pt x="124" y="587" on="0"/>
        <pt x="135" y="579" on="1"/>
        <pt x="231" y="511" on="1"/>
        <pt x="214" y="663" on="1"/>
        <pt x="338" y="663" on="1"/>
        <pt x="357" y="663" on="0"/>
        <pt x="352" y="644" on="1"/>
        <pt x="306" y="513" on="1"/>
        <pt x="438" y="590" on="1"/>
        <pt x="465" y="485" on="1"/>
        <pt x="471" y="465" on="0"/>
        <pt x="446" y="462" on="1"/>
        <pt x="321" y="449" on="1"/>
        <pt x="435" y="331" on="1"/>
      </contour>
    </TTGlyph>
    <TTGlyph name="at" xMin="32" yMin="-99" xMax="717" yMax="584">
      <contour>
        <pt x="332" y="229" on="1"/>
        <pt x="332" y="209" on="0"/>
        <pt x="348" y="185" on="0"/>
        <pt x="365" y="185" on="1"/>
        <pt x="372" y="185" on="0"/>
        <pt x="389" y="189" on="0"/>
        <pt x="399" y="194" on="1"/>
        <pt x="405" y="197" on="0"/>
        <pt x="406" y="205" on="1"/>
        <pt x="417" y="295" on="1"/>
        <pt x="417" y="298" on="0"/>
        <pt x="416" y="301" on="0"/>
        <pt x="411" y="303" on="1"/>
        <pt x="397" y="309" on="0"/>
        <pt x="386" y="309" on="1"/>
        <pt x="364" y="310" on="0"/>
        <pt x="333" y="270" on="0"/>
      </contour>
      <contour>
        <pt x="402" y="108" on="1"/>
        <pt x="384" y="97" on="0"/>
        <pt x="347" y="85" on="0"/>
        <pt x="328" y="85" on="1"/>
        <pt x="284" y="86" on="0"/>
        <pt x="221" y="153" on="0"/>
        <pt x="221" y="218" on="1"/>
        <pt x="221" y="255" on="0"/>
        <pt x="241" y="323" on="0"/>
        <pt x="278" y="376" on="0"/>
        <pt x="333" y="408" on="0"/>
        <pt x="369" y="408" on="1"/>
        <pt x="404" y="408" on="0"/>
        <pt x="434" y="384" on="1"/>
        <pt x="443" y="377" on="1"/>
        <pt x="456" y="402" on="1"/>
        <pt x="536" y="402" on="1"/>
        <pt x="514" y="221" on="1"/>
        <pt x="511" y="195" on="0"/>
        <pt x="511" y="188" on="1"/>
        <pt x="511" y="175" on="0"/>
        <pt x="526" y="162" on="0"/>
        <pt x="538" y="162" on="1"/>
        <pt x="561" y="162" on="0"/>
        <pt x="597" y="221" on="0"/>
        <pt x="597" y="287" on="1"/>
        <pt x="597" y="325" on="0"/>
        <pt x="575" y="396" on="0"/>
        <pt x="552" y="419" on="1"/>
        <pt x="526" y="446" on="0"/>
        <pt x="451" y="473" on="0"/>
        <pt x="409" y="473" on="1"/>
        <pt x="355" y="473" on="0"/>
        <pt x="264" y="434" on="0"/>
        <pt x="198" y="367" on="0"/>
        <pt x="162" y="276" on="0"/>
        <pt x="162" y="224" on="1"/>
        <pt x="162" y="124" on="0"/>
        <pt x="280" y="14" on="0"/>
        <pt x="384" y="14" on="1"/>
        <pt x="417" y="14" on="0"/>
        <pt x="490" y="24" on="0"/>
        <pt x="528" y="32" on="1"/>
        <pt x="626" y="53" on="1"/>
        <pt x="648" y="-19" on="1"/>
        <pt x="621" y="-36" on="0"/>
        <pt x="551" y="-66" on="0"/>
        <pt x="476" y="-87" on="0"/>
        <pt x="399" y="-99" on="0"/>
        <pt x="364" y="-99" on="1"/>
        <pt x="295" y="-99" on="0"/>
        <pt x="174" y="-58" on="0"/>
        <pt x="84" y="20" on="0"/>
        <pt x="32" y="134" on="0"/>
        <pt x="32" y="206" on="1"/>
        <pt x="32" y="286" on="0"/>
        <pt x="88" y="424" on="0"/>
        <pt x="189" y="526" on="0"/>
        <pt x="329" y="584" on="0"/>
        <pt x="413" y="584" on="1"/>
        <pt x="482" y="584" on="0"/>
        <pt x="594" y="543" on="0"/>
        <pt x="673" y="469" on="0"/>
        <pt x="717" y="369" on="0"/>
        <pt x="717" y="311" on="1"/>
        <pt x="717" y="259" on="0"/>
        <pt x="685" y="173" on="0"/>
        <pt x="629" y="111" on="0"/>
        <pt x="556" y="77" on="0"/>
        <pt x="514" y="77" on="1"/>
        <pt x="485" y="77" on="0"/>
        <pt x="428" y="97" on="0"/>
        <pt x="416" y="117" on="1"/>
      </contour>
    </TTGlyph>
    <TTGlyph name="at.cap" xMin="41" yMin="-10" xMax="726" yMax="673">
      <component glyphName="at" x="9" y="89" flags="0x204"/>
    </TTGlyph>
    <TTGlyph name="atilde" xMin="20" yMin="-8" xMax="553" yMax="734">
      <component glyphName="a" x="0" y="0" flags="0x204"/>
      <component glyphName="tilde" x="55" y="0" flags="0x4"/>
    </TTGlyph>
    <TTGlyph name="b" xMin="20" yMin="-8" xMax="532" yMax="709">
      <contour>
        <pt x="240" y="460" on="1"/>
        <pt x="266" y="475" on="0"/>
        <pt x="326" y="496" on="0"/>
        <pt x="354" y="496" on="1"/>
        <pt x="386" y="496" on="0"/>
        <pt x="446" y="470" on="0"/>
        <pt x="469" y="446" on="1"/>
        <pt x="498" y="416" on="0"/>
        <pt x="532" y="327" on="0"/>
        <pt x="532" y="273" on="1"/>
        <pt x="532" y="219" on="0"/>
        <pt x="497" y="118" on="0"/>
        <pt x="435" y="39" on="0"/>
        <pt x="350" y="-8" on="0"/>
        <pt x="301" y="-8" on="1"/>
        <pt x="270" y="-8" on="0"/>
        <pt x="214" y="14" on="0"/>
        <pt x="190" y="31" on="1"/>
        <pt x="170" y="45" on="1"/>
        <pt x="145" y="-2" on="1"/>
        <pt x="20" y="7" on="1"/>
        <pt x="103" y="709" on="1"/>
        <pt x="270" y="709" on="1"/>
      </contour>
      <contour>
        <pt x="205" y="166" on="1"/>
        <pt x="204" y="154" on="0"/>
        <pt x="215" y="150" on="1"/>
        <pt x="223" y="147" on="0"/>
        <pt x="256" y="141" on="0"/>
        <pt x="270" y="141" on="1"/>
        <pt x="295" y="141" on="0"/>
        <pt x="331" y="161" on="0"/>
        <pt x="353" y="195" on="0"/>
        <pt x="363" y="241" on="0"/>
        <pt x="363" y="267" on="1"/>
        <pt x="363" y="302" on="0"/>
        <pt x="334" y="347" on="0"/>
        <pt x="297" y="347" on="1"/>
        <pt x="283" y="347" on="0"/>
        <pt x="249" y="340" on="0"/>
        <pt x="236" y="334" on="1"/>
        <pt x="228" y="330" on="0"/>
        <pt x="225" y="323" on="0"/>
        <pt x="224" y="315" on="1"/>
      </contour>
    </TTGlyph>
    <TTGlyph name="backslash" xMin="41" yMin="0" xMax="451" yMax="663">
      <contour>
        <pt x="283" y="0" on="1"/>
        <pt x="41" y="663" on="1"/>
        <pt x="209" y="663" on="1"/>
        <pt x="451" y="0" on="1"/>
      </contour>
    </TTGlyph>
    <TTGlyph name="bar" xMin="13" yMin="-229" xMax="283" yMax="709">
      <contour>
        <pt x="124" y="709" on="1"/>
        <pt x="283" y="709" on="1"/>
        <pt x="172" y="-229" on="1"/>
        <pt x="13" y="-229" on="1"/>
      </contour>
    </TTGlyph>
    <TTGlyph name="braceleft" xMin="17" yMin="-242" xMax="424" yMax="673">
      <contour>
        <pt x="30" y="270" on="1"/>
        <pt x="64" y="285" on="0"/>
        <pt x="106" y="308" on="0"/>
        <pt x="129" y="333" on="0"/>
        <pt x="136" y="365" on="0"/>
        <pt x="136" y="390" on="1"/>
        <pt x="136" y="415" on="0"/>
        <pt x="133" y="479" on="0"/>
        <pt x="133" y="508" on="1"/>
        <pt x="133" y="550" on="0"/>
        <pt x="159" y="613" on="0"/>
        <pt x="206" y="653" on="0"/>
        <pt x="269" y="673" on="0"/>
        <pt x="307" y="673" on="1"/>
        <pt x="333" y="673" on="0"/>
        <pt x="393" y="663" on="0"/>
        <pt x="424" y="654" on="1"/>
        <pt x="411" y="551" on="1"/>
        <pt x="317" y="526" on="1"/>
        <pt x="307" y="523" on="0"/>
        <pt x="302" y="516" on="0"/>
        <pt x="302" y="506" on="1"/>
        <pt x="302" y="495" on="0"/>
        <pt x="303" y="465" on="0"/>
        <pt x="304" y="435" on="0"/>
        <pt x="305" y="409" on="0"/>
        <pt x="305" y="404" on="1"/>
        <pt x="305" y="371" on="0"/>
        <pt x="291" y="317" on="0"/>
        <pt x="254" y="272" on="0"/>
        <pt x="192" y="233" on="0"/>
        <pt x="144" y="216" on="1"/>
        <pt x="215" y="189" on="0"/>
        <pt x="269" y="127" on="0"/>
        <pt x="270" y="87" on="1"/>
        <pt x="270" y="66" on="0"/>
        <pt x="258" y="13" on="0"/>
        <pt x="245" y="-37" on="0"/>
        <pt x="233" y="-75" on="0"/>
        <pt x="233" y="-81" on="1"/>
        <pt x="233" y="-86" on="0"/>
        <pt x="237" y="-93" on="0"/>
        <pt x="245" y="-95" on="1"/>
        <pt x="333" y="-120" on="1"/>
        <pt x="321" y="-223" on="1"/>
        <pt x="294" y="-231" on="0"/>
        <pt x="228" y="-242" on="0"/>
        <pt x="200" y="-242" on="1"/>
        <pt x="170" y="-242" on="0"/>
        <pt x="119" y="-228" on="0"/>
        <pt x="81" y="-201" on="0"/>
        <pt x="58" y="-160" on="0"/>
        <pt x="58" y="-132" on="1"/>
        <pt x="58" y="-105" on="0"/>
        <pt x="72" y="-44" on="0"/>
        <pt x="88" y="14" on="0"/>
        <pt x="102" y="64" on="0"/>
        <pt x="102" y="79" on="1"/>
        <pt x="102" y="91" on="0"/>
        <pt x="95" y="111" on="0"/>
        <pt x="76" y="130" on="0"/>
        <pt x="43" y="150" on="0"/>
        <pt x="17" y="162" on="1"/>
      </contour>
    </TTGlyph>
    <TTGlyph name="braceleft.cap" xMin="48" yMin="-125" xMax="455" yMax="790">
      <component glyphName="braceleft" x="31" y="117" flags="0x4"/>
    </TTGlyph>
    <TTGlyph name="braceright" xMin="-32" yMin="-242" xMax="375" yMax="673">
      <contour>
        <pt x="362" y="161" on="1"/>
        <pt x="327" y="146" on="0"/>
        <pt x="286" y="123" on="0"/>
        <pt x="263" y="98" on="0"/>
        <pt x="256" y="66" on="0"/>
        <pt x="256" y="41" on="1"/>
        <pt x="256" y="16" on="0"/>
        <pt x="259" y="-48" on="0"/>
        <pt x="259" y="-77" on="1"/>
        <pt x="259" y="-119" on="0"/>
        <pt x="233" y="-182" on="0"/>
        <pt x="186" y="-222" on="0"/>
        <pt x="122" y="-242" on="0"/>
        <pt x="85" y="-242" on="1"/>
        <pt x="59" y="-242" on="0"/>
        <pt x="-1" y="-232" on="0"/>
        <pt x="-32" y="-223" on="1"/>
        <pt x="-19" y="-120" on="1"/>
        <pt x="75" y="-95" on="1"/>
        <pt x="85" y="-92" on="0"/>
        <pt x="90" y="-85" on="0"/>
        <pt x="90" y="-75" on="1"/>
        <pt x="90" y="-65" on="0"/>
        <pt x="89" y="-34" on="0"/>
        <pt x="88" y="-4" on="0"/>
        <pt x="87" y="22" on="0"/>
        <pt x="87" y="27" on="1"/>
        <pt x="87" y="60" on="0"/>
        <pt x="101" y="114" on="0"/>
        <pt x="138" y="159" on="0"/>
        <pt x="200" y="198" on="0"/>
        <pt x="248" y="215" on="1"/>
        <pt x="177" y="242" on="0"/>
        <pt x="123" y="304" on="0"/>
        <pt x="122" y="344" on="1"/>
        <pt x="122" y="365" on="0"/>
        <pt x="134" y="418" on="0"/>
        <pt x="147" y="468" on="0"/>
        <pt x="159" y="506" on="0"/>
        <pt x="159" y="512" on="1"/>
        <pt x="159" y="517" on="0"/>
        <pt x="155" y="524" on="0"/>
        <pt x="147" y="526" on="1"/>
        <pt x="59" y="551" on="1"/>
        <pt x="71" y="654" on="1"/>
        <pt x="98" y="662" on="0"/>
        <pt x="164" y="673" on="0"/>
        <pt x="192" y="673" on="1"/>
        <pt x="222" y="673" on="0"/>
        <pt x="273" y="659" on="0"/>
        <pt x="311" y="632" on="0"/>
        <pt x="334" y="591" on="0"/>
        <pt x="334" y="563" on="1"/>
        <pt x="334" y="536" on="0"/>
        <pt x="320" y="475" on="0"/>
        <pt x="304" y="417" on="0"/>
        <pt x="290" y="367" on="0"/>
        <pt x="290" y="352" on="1"/>
        <pt x="290" y="340" on="0"/>
        <pt x="297" y="320" on="0"/>
        <pt x="316" y="301" on="0"/>
        <pt x="349" y="281" on="0"/>
        <pt x="375" y="269" on="1"/>
      </contour>
    </TTGlyph>
    <TTGlyph name="braceright.cap" xMin="-32" yMin="-125" xMax="375" yMax="790">
      <component glyphName="braceright" x="0" y="117" flags="0x4"/>
    </TTGlyph>
    <TTGlyph name="bracketleft" xMin="10" yMin="-229" xMax="401" yMax="663">
      <contour>
        <pt x="188" y="-82" on="1"/>
        <pt x="313" y="-82" on="1"/>
        <pt x="295" y="-229" on="1"/>
        <pt x="10" y="-229" on="1"/>
        <pt x="116" y="663" on="1"/>
        <pt x="401" y="663" on="1"/>
        <pt x="383" y="516" on="1"/>
        <pt x="258" y="516" on="1"/>
      </contour>
    </TTGlyph>
    <TTGlyph name="bracketleft.cap" xMin="26" yMin="-114" xMax="417" yMax="778">
      <component glyphName="bracketleft" x="16" y="115" flags="0x4"/>
    </TTGlyph>
    <TTGlyph name="bracketright" xMin="-42" yMin="-229" xMax="349" yMax="663">
      <contour>
        <pt x="171" y="516" on="1"/>
        <pt x="46" y="516" on="1"/>
        <pt x="64" y="663" on="1"/>
        <pt x="349" y="663" on="1"/>
        <pt x="243" y="-229" on="1"/>
        <pt x="-42" y="-229" on="1"/>
        <pt x="-24" y="-82" on="1"/>
        <pt x="101" y="-82" on="1"/>
      </contour>
    </TTGlyph>
    <TTGlyph name="bracketright.cap" xMin="-30" yMin="-114" xMax="361" yMax="778">
      <component glyphName="bracketright" x="12" y="115" flags="0x4"/>
    </TTGlyph>
    <TTGlyph name="breve" xMin="88" yMin="559" xMax="432" yMax="738">
      <contour>
        <pt x="241" y="559" on="1"/>
        <pt x="203" y="559" on="0"/>
        <pt x="146" y="585" on="0"/>
        <pt x="108" y="629" on="0"/>
        <pt x="88" y="688" on="0"/>
        <pt x="88" y="720" on="1"/>
        <pt x="192" y="738" on="1"/>
        <pt x="204" y="673" on="0"/>
        <pt x="255" y="673" on="1"/>
        <pt x="282" y="673" on="0"/>
        <pt x="318" y="706" on="0"/>
        <pt x="332" y="738" on="1"/>
        <pt x="432" y="720" on="1"/>
        <pt x="425" y="687" on="0"/>
        <pt x="392" y="628" on="0"/>
        <pt x="344" y="584" on="0"/>
        <pt x="280" y="559" on="0"/>
      </contour>
    </TTGlyph>
    <TTGlyph name="breve.cap" xMin="112" yMin="729" xMax="456" yMax="908">
      <contour>
        <pt x="265" y="729" on="1"/>
        <pt x="227" y="729" on="0"/>
        <pt x="170" y="755" on="0"/>
        <pt x="132" y="799" on="0"/>
        <pt x="112" y="858" on="0"/>
        <pt x="112" y="890" on="1"/>
        <pt x="216" y="908" on="1"/>
        <pt x="228" y="843" on="0"/>
        <pt x="279" y="843" on="1"/>
        <pt x="306" y="843" on="0"/>
        <pt x="342" y="876" on="0"/>
        <pt x="356" y="908" on="1"/>
        <pt x="456" y="890" on="1"/>
        <pt x="449" y="857" on="0"/>
        <pt x="416" y="798" on="0"/>
        <pt x="368" y="754" on="0"/>
        <pt x="304" y="729" on="0"/>
      </contour>
    </TTGlyph>
    <TTGlyph name="brokenbar" xMin="13" yMin="-229" xMax="283" yMax="709">
      <contour>
        <pt x="124" y="709" on="1"/>
        <pt x="283" y="709" on="1"/>
        <pt x="233" y="291" on="1"/>
        <pt x="74" y="291" on="1"/>
      </contour>
      <contour>
        <pt x="62" y="189" on="1"/>
        <pt x="221" y="189" on="1"/>
        <pt x="172" y="-229" on="1"/>
        <pt x="13" y="-229" on="1"/>
      </contour>
    </TTGlyph>
    <TTGlyph name="bullet" xMin="43" yMin="160" xMax="325" yMax="409">
      <contour>
        <pt x="268" y="409" on="1"/>
        <pt x="302" y="409" on="0"/>
        <pt x="325" y="383" on="0"/>
        <pt x="322" y="352" on="1"/>
        <pt x="300" y="160" on="1"/>
        <pt x="43" y="160" on="1"/>
        <pt x="72" y="409" on="1"/>
      </contour>
    </TTGlyph>
    <TTGlyph name="bullet.cap" xMin="47" yMin="206" xMax="329" yMax="455">
      <component glyphName="bullet" x="4" y="46" flags="0x204"/>
    </TTGlyph>
    <TTGlyph name="c" xMin="20" yMin="-8" xMax="497" yMax="496">
      <contour>
        <pt x="485" y="86" on="1"/>
        <pt x="463" y="65" on="0"/>
        <pt x="405" y="30" on="0"/>
        <pt x="343" y="5" on="0"/>
        <pt x="280" y="-8" on="0"/>
        <pt x="253" y="-8" on="1"/>
        <pt x="203" y="-8" on="0"/>
        <pt x="118" y="24" on="0"/>
        <pt x="55" y="84" on="0"/>
        <pt x="20" y="170" on="0"/>
        <pt x="20" y="224" on="1"/>
        <pt x="20" y="282" on="0"/>
        <pt x="61" y="382" on="0"/>
        <pt x="131" y="455" on="0"/>
        <pt x="225" y="496" on="0"/>
        <pt x="279" y="496" on="1"/>
        <pt x="319" y="496" on="0"/>
        <pt x="392" y="471" on="0"/>
        <pt x="449" y="424" on="0"/>
        <pt x="489" y="358" on="0"/>
        <pt x="497" y="317" on="1"/>
        <pt x="387" y="265" on="1"/>
        <pt x="347" y="306" on="1"/>
        <pt x="321" y="332" on="0"/>
        <pt x="292" y="350" on="0"/>
        <pt x="275" y="350" on="1"/>
        <pt x="257" y="350" on="0"/>
        <pt x="226" y="332" on="0"/>
        <pt x="204" y="301" on="0"/>
        <pt x="191" y="260" on="0"/>
        <pt x="191" y="236" on="1"/>
        <pt x="191" y="192" on="0"/>
        <pt x="233" y="139" on="0"/>
        <pt x="279" y="139" on="1"/>
        <pt x="302" y="139" on="0"/>
        <pt x="348" y="149" on="0"/>
        <pt x="383" y="160" on="1"/>
        <pt x="439" y="177" on="1"/>
      </contour>
    </TTGlyph>
    <TTGlyph name="cacute" xMin="20" yMin="-8" xMax="497" yMax="770">
      <component glyphName="c" x="0" y="0" flags="0x204"/>
      <component glyphName="acute" x="65" y="0" flags="0x4"/>
    </TTGlyph>
    <TTGlyph name="caron" xMin="80" yMin="559" xMax="443" yMax="766">
      <contour>
        <pt x="259" y="673" on="1"/>
        <pt x="392" y="766" on="1"/>
        <pt x="443" y="705" on="1"/>
        <pt x="305" y="572" on="1"/>
        <pt x="297" y="564" on="0"/>
        <pt x="284" y="559" on="0"/>
        <pt x="273" y="559" on="1"/>
        <pt x="216" y="559" on="1"/>
        <pt x="205" y="559" on="0"/>
        <pt x="194" y="564" on="0"/>
        <pt x="187" y="572" on="1"/>
        <pt x="80" y="705" on="1"/>
        <pt x="147" y="766" on="1"/>
        <pt x="258" y="673" on="1"/>
      </contour>
    </TTGlyph>
    <TTGlyph name="caron.cap" xMin="103" yMin="729" xMax="466" yMax="936">
      <contour>
        <pt x="282" y="843" on="1"/>
        <pt x="415" y="936" on="1"/>
        <pt x="466" y="875" on="1"/>
        <pt x="328" y="742" on="1"/>
        <pt x="320" y="734" on="0"/>
        <pt x="307" y="729" on="0"/>
        <pt x="296" y="729" on="1"/>
        <pt x="239" y="729" on="1"/>
        <pt x="228" y="729" on="0"/>
        <pt x="217" y="734" on="0"/>
        <pt x="210" y="742" on="1"/>
        <pt x="103" y="875" on="1"/>
        <pt x="170" y="936" on="1"/>
        <pt x="281" y="843" on="1"/>
      </contour>
    </TTGlyph>
    <TTGlyph name="ccaron" xMin="20" yMin="-8" xMax="497" yMax="766">
      <component glyphName="c" x="0" y="0" flags="0x204"/>
      <component glyphName="caron" x="45" y="0" flags="0x4"/>
    </TTGlyph>
    <TTGlyph name="ccedilla" xMin="20" yMin="-248" xMax="497" yMax="496">
      <contour>
        <pt x="485" y="86" on="1"/>
        <pt x="447" y="49" on="0"/>
        <pt x="338" y="1" on="0"/>
        <pt x="287" y="-5" on="1"/>
        <pt x="279" y="-15" on="0"/>
        <pt x="273" y="-27" on="0"/>
        <pt x="273" y="-32" on="1"/>
        <pt x="273" y="-40" on="0"/>
        <pt x="301" y="-52" on="0"/>
        <pt x="336" y="-71" on="0"/>
        <pt x="364" y="-101" on="0"/>
        <pt x="364" y="-126" on="1"/>
        <pt x="364" y="-153" on="0"/>
        <pt x="333" y="-197" on="0"/>
        <pt x="277" y="-228" on="0"/>
        <pt x="200" y="-247" on="0"/>
        <pt x="155" y="-248" on="1"/>
        <pt x="149" y="-161" on="1"/>
        <pt x="201" y="-153" on="1"/>
        <pt x="234" y="-149" on="0"/>
        <pt x="234" y="-134" on="1"/>
        <pt x="234" y="-126" on="0"/>
        <pt x="210" y="-113" on="0"/>
        <pt x="182" y="-99" on="0"/>
        <pt x="158" y="-80" on="0"/>
        <pt x="158" y="-65" on="1"/>
        <pt x="158" y="-40" on="0"/>
        <pt x="200" y="-3" on="1"/>
        <pt x="160" y="4" on="0"/>
        <pt x="94" y="42" on="0"/>
        <pt x="46" y="101" on="0"/>
        <pt x="20" y="177" on="0"/>
        <pt x="20" y="224" on="1"/>
        <pt x="20" y="282" on="0"/>
        <pt x="61" y="382" on="0"/>
        <pt x="131" y="455" on="0"/>
        <pt x="225" y="496" on="0"/>
        <pt x="279" y="496" on="1"/>
        <pt x="319" y="496" on="0"/>
        <pt x="392" y="471" on="0"/>
        <pt x="449" y="424" on="0"/>
        <pt x="489" y="358" on="0"/>
        <pt x="497" y="317" on="1"/>
        <pt x="387" y="265" on="1"/>
        <pt x="347" y="306" on="1"/>
        <pt x="321" y="332" on="0"/>
        <pt x="292" y="350" on="0"/>
        <pt x="275" y="350" on="1"/>
        <pt x="257" y="350" on="0"/>
        <pt x="226" y="332" on="0"/>
        <pt x="204" y="301" on="0"/>
        <pt x="191" y="260" on="0"/>
        <pt x="191" y="236" on="1"/>
        <pt x="191" y="192" on="0"/>
        <pt x="233" y="139" on="0"/>
        <pt x="279" y="139" on="1"/>
        <pt x="302" y="139" on="0"/>
        <pt x="348" y="149" on="0"/>
        <pt x="383" y="160" on="1"/>
        <pt x="439" y="177" on="1"/>
      </contour>
    </TTGlyph>
    <TTGlyph name="ccircumflex" xMin="20" yMin="-8" xMax="497" yMax="753">
      <component glyphName="c" x="0" y="0" flags="0x204"/>
      <component glyphName="circumflex" x="59" y="0" flags="0x4"/>
    </TTGlyph>
    <TTGlyph name="cdotaccent" xMin="20" yMin="-8" xMax="497" yMax="713">
      <component glyphName="c" x="0" y="0" flags="0x204"/>
      <component glyphName="dotaccent" x="45" y="0" flags="0x4"/>
    </TTGlyph>
    <TTGlyph name="cedilla" xMin="80" yMin="-248" xMax="295" yMax="37">
      <contour>
        <pt x="233" y="11" on="1"/>
        <pt x="216" y="-7" on="0"/>
        <pt x="204" y="-25" on="0"/>
        <pt x="204" y="-32" on="1"/>
        <pt x="204" y="-40" on="0"/>
        <pt x="232" y="-52" on="0"/>
        <pt x="267" y="-71" on="0"/>
        <pt x="295" y="-101" on="0"/>
        <pt x="295" y="-126" on="1"/>
        <pt x="295" y="-153" on="0"/>
        <pt x="264" y="-197" on="0"/>
        <pt x="208" y="-228" on="0"/>
        <pt x="131" y="-247" on="0"/>
        <pt x="86" y="-248" on="1"/>
        <pt x="80" y="-161" on="1"/>
        <pt x="132" y="-153" on="1"/>
        <pt x="165" y="-149" on="0"/>
        <pt x="165" y="-134" on="1"/>
        <pt x="165" y="-126" on="0"/>
        <pt x="141" y="-113" on="0"/>
        <pt x="113" y="-99" on="0"/>
        <pt x="89" y="-80" on="0"/>
        <pt x="89" y="-65" on="1"/>
        <pt x="89" y="-45" on="0"/>
        <pt x="136" y="3" on="0"/>
        <pt x="179" y="37" on="1"/>
      </contour>
    </TTGlyph>
    <TTGlyph name="cent" xMin="94" yMin="-131" xMax="571" yMax="629">
      <contour>
        <pt x="441" y="481" on="1"/>
        <pt x="454" y="476" on="0"/>
        <pt x="492" y="452" on="0"/>
        <pt x="531" y="412" on="0"/>
        <pt x="564" y="354" on="0"/>
        <pt x="571" y="316" on="1"/>
        <pt x="461" y="264" on="1"/>
        <pt x="421" y="305" on="1"/>
        <pt x="395" y="331" on="0"/>
        <pt x="366" y="349" on="0"/>
        <pt x="349" y="349" on="1"/>
        <pt x="331" y="349" on="0"/>
        <pt x="300" y="331" on="0"/>
        <pt x="278" y="300" on="0"/>
        <pt x="265" y="259" on="0"/>
        <pt x="265" y="235" on="1"/>
        <pt x="265" y="191" on="0"/>
        <pt x="307" y="138" on="0"/>
        <pt x="353" y="138" on="1"/>
        <pt x="371" y="138" on="0"/>
        <pt x="420" y="149" on="0"/>
        <pt x="457" y="160" on="1"/>
        <pt x="513" y="177" on="1"/>
        <pt x="559" y="86" on="1"/>
        <pt x="537" y="65" on="0"/>
        <pt x="487" y="34" on="0"/>
        <pt x="440" y="14" on="0"/>
        <pt x="398" y="3" on="0"/>
        <pt x="384" y="0" on="1"/>
        <pt x="349" y="-131" on="1"/>
        <pt x="245" y="-131" on="1"/>
        <pt x="260" y="-1" on="1"/>
        <pt x="231" y="6" on="0"/>
        <pt x="172" y="38" on="0"/>
        <pt x="124" y="93" on="0"/>
        <pt x="94" y="171" on="0"/>
        <pt x="94" y="223" on="1"/>
        <pt x="94" y="281" on="0"/>
        <pt x="132" y="376" on="0"/>
        <pt x="195" y="445" on="0"/>
        <pt x="276" y="486" on="0"/>
        <pt x="318" y="490" on="1"/>
        <pt x="355" y="629" on="1"/>
        <pt x="459" y="629" on="1"/>
      </contour>
    </TTGlyph>
    <TTGlyph name="cent.lprop" xMin="48" yMin="-131" xMax="525" yMax="629">
      <component glyphName="cent" x="-46" y="0" flags="0x4"/>
    </TTGlyph>
    <TTGlyph name="cent.oprop" xMin="54" yMin="-131" xMax="485" yMax="550">
      <contour>
        <pt x="472" y="77" on="1"/>
        <pt x="441" y="46" on="0"/>
        <pt x="352" y="5" on="0"/>
        <pt x="309" y="-3" on="1"/>
        <pt x="275" y="-131" on="1"/>
        <pt x="171" y="-131" on="1"/>
        <pt x="186" y="4" on="1"/>
        <pt x="127" y="24" on="0"/>
        <pt x="54" y="124" on="0"/>
        <pt x="54" y="199" on="1"/>
        <pt x="54" y="244" on="0"/>
        <pt x="82" y="322" on="0"/>
        <pt x="132" y="384" on="0"/>
        <pt x="199" y="426" on="0"/>
        <pt x="238" y="435" on="1"/>
        <pt x="272" y="550" on="1"/>
        <pt x="376" y="550" on="1"/>
        <pt x="362" y="427" on="1"/>
        <pt x="408" y="408" on="0"/>
        <pt x="474" y="331" on="0"/>
        <pt x="485" y="277" on="1"/>
        <pt x="385" y="230" on="1"/>
        <pt x="349" y="267" on="1"/>
        <pt x="326" y="290" on="0"/>
        <pt x="301" y="306" on="0"/>
        <pt x="285" y="306" on="1"/>
        <pt x="253" y="306" on="0"/>
        <pt x="212" y="252" on="0"/>
        <pt x="212" y="209" on="1"/>
        <pt x="212" y="171" on="0"/>
        <pt x="247" y="128" on="0"/>
        <pt x="289" y="128" on="1"/>
        <pt x="305" y="128" on="0"/>
        <pt x="349" y="137" on="0"/>
        <pt x="381" y="148" on="1"/>
        <pt x="431" y="163" on="1"/>
      </contour>
    </TTGlyph>
    <TTGlyph name="cent.otab" xMin="115" yMin="-131" xMax="546" yMax="550">
      <component glyphName="cent.oprop" x="61" y="0" flags="0x4"/>
    </TTGlyph>
    <TTGlyph name="circumflex" xMin="62" yMin="546" xMax="425" yMax="753">
      <contour>
        <pt x="289" y="753" on="1"/>
        <pt x="300" y="753" on="0"/>
        <pt x="313" y="748" on="0"/>
        <pt x="319" y="740" on="1"/>
        <pt x="425" y="607" on="1"/>
        <pt x="359" y="546" on="1"/>
        <pt x="248" y="638" on="1"/>
        <pt x="247" y="638" on="1"/>
        <pt x="114" y="546" on="1"/>
        <pt x="62" y="607" on="1"/>
        <pt x="201" y="740" on="1"/>
        <pt x="209" y="748" on="0"/>
        <pt x="221" y="753" on="0"/>
        <pt x="232" y="753" on="1"/>
      </contour>
    </TTGlyph>
    <TTGlyph name="circumflex.cap" xMin="89" yMin="716" xMax="452" yMax="923">
      <contour>
        <pt x="316" y="923" on="1"/>
        <pt x="327" y="923" on="0"/>
        <pt x="340" y="918" on="0"/>
        <pt x="346" y="910" on="1"/>
        <pt x="452" y="777" on="1"/>
        <pt x="386" y="716" on="1"/>
        <pt x="275" y="808" on="1"/>
        <pt x="274" y="808" on="1"/>
        <pt x="141" y="716" on="1"/>
        <pt x="89" y="777" on="1"/>
        <pt x="228" y="910" on="1"/>
        <pt x="236" y="918" on="0"/>
        <pt x="248" y="923" on="0"/>
        <pt x="259" y="923" on="1"/>
      </contour>
    </TTGlyph>
    <TTGlyph name="colon" xMin="10" yMin="0" xMax="239" yMax="469">
      <contour>
        <pt x="164" y="171" on="1"/>
        <pt x="187" y="171" on="0"/>
        <pt x="203" y="153" on="0"/>
        <pt x="201" y="132" on="1"/>
        <pt x="186" y="0" on="1"/>
        <pt x="10" y="0" on="1"/>
        <pt x="30" y="171" on="1"/>
      </contour>
      <contour>
        <pt x="200" y="469" on="1"/>
        <pt x="223" y="469" on="0"/>
        <pt x="239" y="451" on="0"/>
        <pt x="237" y="430" on="1"/>
        <pt x="222" y="298" on="1"/>
        <pt x="46" y="298" on="1"/>
        <pt x="66" y="469" on="1"/>
      </contour>
    </TTGlyph>
    <TTGlyph name="comma" xMin="-28" yMin="-178" xMax="200" yMax="171">
      <contour>
        <pt x="190" y="60" on="1"/>
        <pt x="186" y="25" on="0"/>
        <pt x="174" y="-28" on="0"/>
        <pt x="141" y="-79" on="0"/>
        <pt x="82" y="-137" on="0"/>
        <pt x="32" y="-178" on="1"/>
        <pt x="-28" y="-133" on="1"/>
        <pt x="51" y="-17" on="1"/>
        <pt x="57" y="-9" on="0"/>
        <pt x="55" y="1" on="0"/>
        <pt x="47" y="7" on="1"/>
        <pt x="35" y="16" on="1"/>
        <pt x="20" y="27" on="0"/>
        <pt x="12" y="43" on="0"/>
        <pt x="14" y="62" on="1"/>
        <pt x="27" y="171" on="1"/>
        <pt x="161" y="171" on="1"/>
        <pt x="184" y="171" on="0"/>
        <pt x="200" y="153" on="0"/>
        <pt x="198" y="132" on="1"/>
      </contour>
    </TTGlyph>
    <TTGlyph name="commaaccent" xMin="68" yMin="-323" xMax="240" yMax="-58">
      <contour>
        <pt x="68" y="-309" on="1"/>
        <pt x="114" y="-58" on="1"/>
        <pt x="199" y="-58" on="1"/>
        <pt x="209" y="-58" on="0"/>
        <pt x="219" y="-63" on="0"/>
        <pt x="224" y="-68" on="1"/>
        <pt x="232" y="-78" on="0"/>
        <pt x="240" y="-103" on="0"/>
        <pt x="240" y="-115" on="1"/>
        <pt x="240" y="-136" on="0"/>
        <pt x="222" y="-180" on="0"/>
        <pt x="197" y="-220" on="1"/>
        <pt x="134" y="-323" on="1"/>
      </contour>
    </TTGlyph>
    <TTGlyph name="copyright" xMin="52" yMin="-10" xMax="720" yMax="672">
      <contour>
        <pt x="505" y="251" on="1"/>
        <pt x="474" y="222" on="0"/>
        <pt x="406" y="191" on="0"/>
        <pt x="374" y="191" on="1"/>
        <pt x="317" y="191" on="0"/>
        <pt x="250" y="265" on="0"/>
        <pt x="250" y="322" on="1"/>
        <pt x="250" y="353" on="0"/>
        <pt x="270" y="409" on="0"/>
        <pt x="307" y="452" on="0"/>
        <pt x="360" y="477" on="0"/>
        <pt x="393" y="477" on="1"/>
        <pt x="431" y="477" on="0"/>
        <pt x="497" y="431" on="0"/>
        <pt x="514" y="383" on="1"/>
        <pt x="500" y="375" on="0"/>
        <pt x="470" y="357" on="0"/>
        <pt x="456" y="349" on="1"/>
        <pt x="425" y="377" on="1"/>
        <pt x="415" y="385" on="0"/>
        <pt x="400" y="393" on="0"/>
        <pt x="390" y="393" on="1"/>
        <pt x="368" y="393" on="0"/>
        <pt x="341" y="354" on="0"/>
        <pt x="341" y="327" on="1"/>
        <pt x="341" y="276" on="0"/>
        <pt x="388" y="276" on="1"/>
        <pt x="406" y="276" on="0"/>
        <pt x="430" y="285" on="1"/>
        <pt x="479" y="303" on="1"/>
      </contour>
      <contour>
        <pt x="413" y="564" on="1"/>
        <pt x="359" y="564" on="0"/>
        <pt x="268" y="524" on="0"/>
        <pt x="203" y="455" on="0"/>
        <pt x="167" y="360" on="0"/>
        <pt x="167" y="305" on="1"/>
        <pt x="167" y="257" on="0"/>
        <pt x="195" y="180" on="0"/>
        <pt x="246" y="126" on="0"/>
        <pt x="317" y="98" on="0"/>
        <pt x="359" y="98" on="1"/>
        <pt x="413" y="98" on="0"/>
        <pt x="504" y="138" on="0"/>
        <pt x="569" y="207" on="0"/>
        <pt x="605" y="302" on="0"/>
        <pt x="605" y="357" on="1"/>
        <pt x="605" y="405" on="0"/>
        <pt x="577" y="482" on="0"/>
        <pt x="526" y="536" on="0"/>
        <pt x="455" y="564" on="0"/>
      </contour>
      <contour>
        <pt x="355" y="-10" on="1"/>
        <pt x="288" y="-10" on="0"/>
        <pt x="177" y="39" on="0"/>
        <pt x="97" y="124" on="0"/>
        <pt x="52" y="236" on="0"/>
        <pt x="52" y="299" on="1"/>
        <pt x="52" y="369" on="0"/>
        <pt x="106" y="504" on="0"/>
        <pt x="204" y="608" on="0"/>
        <pt x="337" y="672" on="0"/>
        <pt x="417" y="672" on="1"/>
        <pt x="484" y="672" on="0"/>
        <pt x="595" y="623" on="0"/>
        <pt x="675" y="538" on="0"/>
        <pt x="720" y="426" on="0"/>
        <pt x="720" y="363" on="1"/>
        <pt x="720" y="292" on="0"/>
        <pt x="666" y="158" on="0"/>
        <pt x="568" y="54" on="0"/>
        <pt x="434" y="-10" on="0"/>
      </contour>
    </TTGlyph>
    <TTGlyph name="currency" xMin="57" yMin="61" xMax="621" yMax="601">
      <contour>
        <pt x="333" y="248" on="1"/>
        <pt x="369" y="248" on="0"/>
        <pt x="407" y="305" on="0"/>
        <pt x="407" y="342" on="1"/>
        <pt x="407" y="373" on="0"/>
        <pt x="375" y="414" on="0"/>
        <pt x="345" y="414" on="1"/>
        <pt x="309" y="414" on="0"/>
        <pt x="271" y="357" on="0"/>
        <pt x="271" y="320" on="1"/>
        <pt x="271" y="289" on="0"/>
        <pt x="303" y="248" on="0"/>
      </contour>
      <contour>
        <pt x="328" y="124" on="1"/>
        <pt x="275" y="124" on="0"/>
        <pt x="235" y="145" on="1"/>
        <pt x="143" y="61" on="1"/>
        <pt x="57" y="163" on="1"/>
        <pt x="144" y="243" on="1"/>
        <pt x="138" y="260" on="0"/>
        <pt x="131" y="297" on="0"/>
        <pt x="131" y="317" on="1"/>
        <pt x="131" y="346" on="0"/>
        <pt x="145" y="400" on="0"/>
        <pt x="158" y="424" on="1"/>
        <pt x="96" y="499" on="1"/>
        <pt x="206" y="601" on="1"/>
        <pt x="271" y="524" on="1"/>
        <pt x="308" y="538" on="0"/>
        <pt x="350" y="538" on="1"/>
        <pt x="402" y="538" on="0"/>
        <pt x="443" y="517" on="1"/>
        <pt x="535" y="601" on="1"/>
        <pt x="621" y="499" on="1"/>
        <pt x="534" y="419" on="1"/>
        <pt x="540" y="402" on="0"/>
        <pt x="547" y="365" on="0"/>
        <pt x="547" y="345" on="1"/>
        <pt x="547" y="316" on="0"/>
        <pt x="533" y="262" on="0"/>
        <pt x="520" y="238" on="1"/>
        <pt x="582" y="163" on="1"/>
        <pt x="472" y="61" on="1"/>
        <pt x="407" y="138" on="1"/>
        <pt x="370" y="124" on="0"/>
      </contour>
    </TTGlyph>
    <TTGlyph name="d" xMin="20" yMin="-8" xMax="558" yMax="709">
      <contour>
        <pt x="391" y="709" on="1"/>
        <pt x="558" y="709" on="1"/>
        <pt x="488" y="127" on="1"/>
        <pt x="556" y="108" on="1"/>
        <pt x="546" y="24" on="1"/>
        <pt x="521" y="10" on="0"/>
        <pt x="462" y="-3" on="0"/>
        <pt x="439" y="-3" on="1"/>
        <pt x="373" y="-3" on="0"/>
        <pt x="340" y="47" on="1"/>
        <pt x="310" y="30" on="1"/>
        <pt x="281" y="13" on="0"/>
        <pt x="223" y="-8" on="0"/>
        <pt x="196" y="-8" on="1"/>
        <pt x="156" y="-8" on="0"/>
        <pt x="91" y="26" on="0"/>
        <pt x="45" y="85" on="0"/>
        <pt x="20" y="167" on="0"/>
        <pt x="20" y="215" on="1"/>
        <pt x="20" y="269" on="0"/>
        <pt x="56" y="370" on="0"/>
        <pt x="119" y="449" on="0"/>
        <pt x="204" y="496" on="0"/>
        <pt x="254" y="496" on="1"/>
        <pt x="284" y="496" on="0"/>
        <pt x="336" y="475" on="0"/>
        <pt x="360" y="458" on="1"/>
      </contour>
      <contour>
        <pt x="345" y="321" on="1"/>
        <pt x="346" y="335" on="0"/>
        <pt x="335" y="340" on="1"/>
        <pt x="327" y="343" on="0"/>
        <pt x="300" y="349" on="0"/>
        <pt x="283" y="349" on="1"/>
        <pt x="258" y="349" on="0"/>
        <pt x="222" y="329" on="0"/>
        <pt x="199" y="294" on="0"/>
        <pt x="188" y="248" on="0"/>
        <pt x="188" y="222" on="1"/>
        <pt x="188" y="187" on="0"/>
        <pt x="216" y="141" on="0"/>
        <pt x="253" y="141" on="1"/>
        <pt x="267" y="141" on="0"/>
        <pt x="303" y="149" on="0"/>
        <pt x="314" y="154" on="1"/>
        <pt x="322" y="158" on="0"/>
        <pt x="325" y="166" on="0"/>
        <pt x="326" y="173" on="1"/>
      </contour>
    </TTGlyph>
    <TTGlyph name="dagger" xMin="62" yMin="-229" xMax="576" yMax="663">
      <contour>
        <pt x="576" y="450" on="1"/>
        <pt x="559" y="296" on="1"/>
        <pt x="504" y="296" on="1"/>
        <pt x="487" y="296" on="0"/>
        <pt x="458" y="298" on="0"/>
        <pt x="440" y="301" on="1"/>
        <pt x="383" y="311" on="1"/>
        <pt x="385" y="283" on="1"/>
        <pt x="386" y="269" on="0"/>
        <pt x="385" y="244" on="0"/>
        <pt x="382" y="220" on="1"/>
        <pt x="360" y="29" on="1"/>
        <pt x="358" y="9" on="0"/>
        <pt x="352" y="-28" on="0"/>
        <pt x="345" y="-56" on="1"/>
        <pt x="305" y="-229" on="1"/>
        <pt x="193" y="-229" on="1"/>
        <pt x="193" y="-56" on="1"/>
        <pt x="193" y="-28" on="0"/>
        <pt x="196" y="9" on="0"/>
        <pt x="198" y="29" on="1"/>
        <pt x="220" y="220" on="1"/>
        <pt x="223" y="244" on="0"/>
        <pt x="228" y="269" on="0"/>
        <pt x="232" y="283" on="1"/>
        <pt x="240" y="311" on="1"/>
        <pt x="182" y="301" on="1"/>
        <pt x="164" y="298" on="0"/>
        <pt x="134" y="296" on="0"/>
        <pt x="117" y="296" on="1"/>
        <pt x="62" y="296" on="1"/>
        <pt x="79" y="450" on="1"/>
        <pt x="135" y="450" on="1"/>
        <pt x="152" y="450" on="0"/>
        <pt x="181" y="448" on="0"/>
        <pt x="199" y="445" on="1"/>
        <pt x="258" y="435" on="1"/>
        <pt x="256" y="464" on="1"/>
        <pt x="254" y="481" on="0"/>
        <pt x="255" y="514" on="0"/>
        <pt x="257" y="536" on="1"/>
        <pt x="272" y="663" on="1"/>
        <pt x="435" y="663" on="1"/>
        <pt x="420" y="536" on="1"/>
        <pt x="418" y="514" on="0"/>
        <pt x="412" y="481" on="0"/>
        <pt x="407" y="464" on="1"/>
        <pt x="399" y="435" on="1"/>
        <pt x="457" y="445" on="1"/>
        <pt x="475" y="448" on="0"/>
        <pt x="505" y="450" on="0"/>
        <pt x="522" y="450" on="1"/>
      </contour>
    </TTGlyph>
    <TTGlyph name="daggerdbl" xMin="25" yMin="-229" xMax="577" yMax="663">
      <contour>
        <pt x="435" y="663" on="1"/>
        <pt x="419" y="528" on="1"/>
        <pt x="417" y="506" on="0"/>
        <pt x="413" y="481" on="0"/>
        <pt x="408" y="464" on="1"/>
        <pt x="399" y="435" on="1"/>
        <pt x="457" y="445" on="1"/>
        <pt x="475" y="448" on="0"/>
        <pt x="505" y="450" on="0"/>
        <pt x="522" y="450" on="1"/>
        <pt x="577" y="450" on="1"/>
        <pt x="560" y="296" on="1"/>
        <pt x="504" y="296" on="1"/>
        <pt x="487" y="296" on="0"/>
        <pt x="458" y="298" on="0"/>
        <pt x="440" y="301" on="1"/>
        <pt x="381" y="311" on="1"/>
        <pt x="383" y="282" on="1"/>
        <pt x="387" y="212" on="0"/>
        <pt x="370" y="151" on="1"/>
        <pt x="362" y="123" on="1"/>
        <pt x="420" y="133" on="1"/>
        <pt x="438" y="136" on="0"/>
        <pt x="468" y="138" on="0"/>
        <pt x="485" y="138" on="1"/>
        <pt x="540" y="138" on="1"/>
        <pt x="523" y="-16" on="1"/>
        <pt x="467" y="-16" on="1"/>
        <pt x="450" y="-16" on="0"/>
        <pt x="421" y="-14" on="0"/>
        <pt x="403" y="-11" on="1"/>
        <pt x="344" y="-1" on="1"/>
        <pt x="346" y="-30" on="1"/>
        <pt x="348" y="-47" on="0"/>
        <pt x="347" y="-80" on="0"/>
        <pt x="345" y="-102" on="1"/>
        <pt x="330" y="-229" on="1"/>
        <pt x="167" y="-229" on="1"/>
        <pt x="183" y="-94" on="1"/>
        <pt x="185" y="-72" on="0"/>
        <pt x="189" y="-47" on="0"/>
        <pt x="194" y="-30" on="1"/>
        <pt x="203" y="-1" on="1"/>
        <pt x="145" y="-11" on="1"/>
        <pt x="127" y="-14" on="0"/>
        <pt x="97" y="-16" on="0"/>
        <pt x="80" y="-16" on="1"/>
        <pt x="25" y="-16" on="1"/>
        <pt x="42" y="138" on="1"/>
        <pt x="98" y="138" on="1"/>
        <pt x="115" y="138" on="0"/>
        <pt x="144" y="136" on="0"/>
        <pt x="162" y="133" on="1"/>
        <pt x="221" y="123" on="1"/>
        <pt x="219" y="152" on="1"/>
        <pt x="215" y="222" on="0"/>
        <pt x="232" y="283" on="1"/>
        <pt x="240" y="311" on="1"/>
        <pt x="182" y="301" on="1"/>
        <pt x="164" y="298" on="0"/>
        <pt x="134" y="296" on="0"/>
        <pt x="117" y="296" on="1"/>
        <pt x="62" y="296" on="1"/>
        <pt x="79" y="450" on="1"/>
        <pt x="135" y="450" on="1"/>
        <pt x="152" y="450" on="0"/>
        <pt x="181" y="448" on="0"/>
        <pt x="199" y="445" on="1"/>
        <pt x="258" y="435" on="1"/>
        <pt x="256" y="464" on="1"/>
        <pt x="254" y="481" on="0"/>
        <pt x="255" y="514" on="0"/>
        <pt x="257" y="536" on="1"/>
        <pt x="272" y="663" on="1"/>
      </contour>
    </TTGlyph>
    <TTGlyph name="dcaron" xMin="20" yMin="-8" xMax="754" yMax="709">
      <component glyphName="d" x="0" y="0" flags="0x4"/>
      <component glyphName="commaaccent" x="514" y="767" flags="0x4"/>
    </TTGlyph>
    <TTGlyph name="dcroat" xMin="20" yMin="-8" xMax="612" yMax="709">
      <contour>
        <pt x="371" y="547" on="1"/>
        <pt x="252" y="547" on="1"/>
        <pt x="264" y="641" on="1"/>
        <pt x="382" y="641" on="1"/>
        <pt x="391" y="709" on="1"/>
        <pt x="558" y="709" on="1"/>
        <pt x="550" y="641" on="1"/>
        <pt x="612" y="630" on="1"/>
        <pt x="603" y="547" on="1"/>
        <pt x="538" y="547" on="1"/>
        <pt x="488" y="127" on="1"/>
        <pt x="556" y="108" on="1"/>
        <pt x="546" y="24" on="1"/>
        <pt x="521" y="10" on="0"/>
        <pt x="462" y="-3" on="0"/>
        <pt x="439" y="-3" on="1"/>
        <pt x="373" y="-3" on="0"/>
        <pt x="340" y="47" on="1"/>
        <pt x="310" y="30" on="1"/>
        <pt x="281" y="13" on="0"/>
        <pt x="223" y="-8" on="0"/>
        <pt x="196" y="-8" on="1"/>
        <pt x="156" y="-8" on="0"/>
        <pt x="91" y="26" on="0"/>
        <pt x="45" y="85" on="0"/>
        <pt x="20" y="167" on="0"/>
        <pt x="20" y="215" on="1"/>
        <pt x="20" y="269" on="0"/>
        <pt x="56" y="370" on="0"/>
        <pt x="119" y="449" on="0"/>
        <pt x="204" y="496" on="0"/>
        <pt x="254" y="496" on="1"/>
        <pt x="284" y="496" on="0"/>
        <pt x="336" y="475" on="0"/>
        <pt x="360" y="458" on="1"/>
      </contour>
      <contour>
        <pt x="345" y="321" on="1"/>
        <pt x="346" y="335" on="0"/>
        <pt x="335" y="340" on="1"/>
        <pt x="327" y="343" on="0"/>
        <pt x="300" y="349" on="0"/>
        <pt x="283" y="349" on="1"/>
        <pt x="258" y="349" on="0"/>
        <pt x="222" y="329" on="0"/>
        <pt x="199" y="294" on="0"/>
        <pt x="188" y="248" on="0"/>
        <pt x="188" y="222" on="1"/>
        <pt x="188" y="187" on="0"/>
        <pt x="216" y="141" on="0"/>
        <pt x="253" y="141" on="1"/>
        <pt x="267" y="141" on="0"/>
        <pt x="303" y="149" on="0"/>
        <pt x="314" y="154" on="1"/>
        <pt x="322" y="158" on="0"/>
        <pt x="325" y="166" on="0"/>
        <pt x="326" y="173" on="1"/>
      </contour>
    </TTGlyph>
    <TTGlyph name="degree" xMin="64" yMin="309" xMax="418" yMax="673">
      <contour>
        <pt x="418" y="506" on="1"/>
        <pt x="418" y="462" on="0"/>
        <pt x="387" y="390" on="0"/>
        <pt x="334" y="338" on="0"/>
        <pt x="266" y="309" on="0"/>
        <pt x="230" y="309" on="1"/>
        <pt x="196" y="309" on="0"/>
        <pt x="136" y="333" on="0"/>
        <pt x="91" y="377" on="0"/>
        <pt x="64" y="439" on="0"/>
        <pt x="64" y="477" on="1"/>
        <pt x="64" y="521" on="0"/>
        <pt x="95" y="593" on="0"/>
        <pt x="148" y="645" on="0"/>
        <pt x="216" y="673" on="0"/>
        <pt x="252" y="673" on="1"/>
        <pt x="286" y="673" on="0"/>
        <pt x="346" y="649" on="0"/>
        <pt x="391" y="605" on="0"/>
        <pt x="418" y="543" on="0"/>
      </contour>
      <contour>
        <pt x="296" y="498" on="1"/>
        <pt x="296" y="524" on="0"/>
        <pt x="269" y="551" on="0"/>
        <pt x="246" y="551" on="1"/>
        <pt x="217" y="551" on="0"/>
        <pt x="186" y="512" on="0"/>
        <pt x="186" y="484" on="1"/>
        <pt x="186" y="458" on="0"/>
        <pt x="213" y="431" on="0"/>
        <pt x="236" y="431" on="1"/>
        <pt x="265" y="431" on="0"/>
        <pt x="296" y="470" on="0"/>
      </contour>
    </TTGlyph>
    <TTGlyph name="dieresis" xMin="70" yMin="570" xMax="442" yMax="714">
      <contour>
        <pt x="195" y="714" on="1"/>
        <pt x="215" y="714" on="0"/>
        <pt x="227" y="701" on="0"/>
        <pt x="225" y="682" on="1"/>
        <pt x="212" y="570" on="1"/>
        <pt x="70" y="570" on="1"/>
        <pt x="87" y="714" on="1"/>
      </contour>
      <contour>
        <pt x="410" y="714" on="1"/>
        <pt x="430" y="714" on="0"/>
        <pt x="442" y="701" on="0"/>
        <pt x="440" y="682" on="1"/>
        <pt x="427" y="570" on="1"/>
        <pt x="285" y="570" on="1"/>
        <pt x="302" y="714" on="1"/>
      </contour>
    </TTGlyph>
    <TTGlyph name="dieresis.cap" xMin="80" yMin="740" xMax="452" yMax="884">
      <contour>
        <pt x="205" y="884" on="1"/>
        <pt x="225" y="884" on="0"/>
        <pt x="237" y="871" on="0"/>
        <pt x="235" y="852" on="1"/>
        <pt x="222" y="740" on="1"/>
        <pt x="80" y="740" on="1"/>
        <pt x="97" y="884" on="1"/>
      </contour>
      <contour>
        <pt x="420" y="884" on="1"/>
        <pt x="440" y="884" on="0"/>
        <pt x="452" y="871" on="0"/>
        <pt x="450" y="852" on="1"/>
        <pt x="437" y="740" on="1"/>
        <pt x="295" y="740" on="1"/>
        <pt x="312" y="884" on="1"/>
      </contour>
    </TTGlyph>
    <TTGlyph name="divide" xMin="58" yMin="0" xMax="497" yMax="527">
      <contour>
        <pt x="497" y="334" on="1"/>
        <pt x="480" y="193" on="1"/>
        <pt x="58" y="193" on="1"/>
        <pt x="75" y="334" on="1"/>
      </contour>
      <contour>
        <pt x="304" y="153" on="1"/>
        <pt x="324" y="153" on="0"/>
        <pt x="338" y="138" on="0"/>
        <pt x="336" y="118" on="1"/>
        <pt x="322" y="0" on="1"/>
        <pt x="172" y="0" on="1"/>
        <pt x="190" y="153" on="1"/>
      </contour>
      <contour>
        <pt x="349" y="527" on="1"/>
        <pt x="369" y="527" on="0"/>
        <pt x="383" y="512" on="0"/>
        <pt x="381" y="492" on="1"/>
        <pt x="367" y="374" on="1"/>
        <pt x="217" y="374" on="1"/>
        <pt x="235" y="527" on="1"/>
      </contour>
    </TTGlyph>
    <TTGlyph name="dollar" xMin="41" yMin="-131" xMax="598" yMax="793">
      <contour>
        <pt x="166" y="163" on="1"/>
        <pt x="226" y="152" on="0"/>
        <pt x="301" y="143" on="0"/>
        <pt x="329" y="143" on="1"/>
        <pt x="380" y="143" on="0"/>
        <pt x="428" y="171" on="0"/>
        <pt x="428" y="197" on="1"/>
        <pt x="428" y="208" on="0"/>
        <pt x="420" y="224" on="0"/>
        <pt x="399" y="239" on="0"/>
        <pt x="363" y="255" on="0"/>
        <pt x="336" y="264" on="1"/>
        <pt x="298" y="277" on="1"/>
        <pt x="249" y="294" on="0"/>
        <pt x="172" y="332" on="0"/>
        <pt x="118" y="380" on="0"/>
        <pt x="90" y="442" on="0"/>
        <pt x="90" y="482" on="1"/>
        <pt x="90" y="525" on="0"/>
        <pt x="125" y="592" on="0"/>
        <pt x="186" y="639" on="0"/>
        <pt x="270" y="667" on="0"/>
        <pt x="319" y="671" on="1"/>
        <pt x="354" y="793" on="1"/>
        <pt x="457" y="793" on="1"/>
        <pt x="443" y="667" on="1"/>
        <pt x="481" y="662" on="0"/>
        <pt x="555" y="642" on="0"/>
        <pt x="594" y="629" on="1"/>
        <pt x="570" y="509" on="1"/>
        <pt x="502" y="513" on="1"/>
        <pt x="460" y="516" on="0"/>
        <pt x="390" y="520" on="0"/>
        <pt x="364" y="520" on="1"/>
        <pt x="304" y="520" on="0"/>
        <pt x="257" y="503" on="0"/>
        <pt x="257" y="484" on="1"/>
        <pt x="257" y="470" on="0"/>
        <pt x="289" y="450" on="0"/>
        <pt x="333" y="436" on="1"/>
        <pt x="384" y="419" on="1"/>
        <pt x="440" y="400" on="0"/>
        <pt x="521" y="361" on="0"/>
        <pt x="573" y="313" on="0"/>
        <pt x="598" y="252" on="0"/>
        <pt x="598" y="211" on="1"/>
        <pt x="598" y="168" on="0"/>
        <pt x="567" y="92" on="0"/>
        <pt x="507" y="34" on="0"/>
        <pt x="419" y="-4" on="0"/>
        <pt x="362" y="-8" on="1"/>
        <pt x="328" y="-131" on="1"/>
        <pt x="224" y="-131" on="1"/>
        <pt x="239" y="-2" on="1"/>
        <pt x="186" y="6" on="0"/>
        <pt x="84" y="40" on="0"/>
        <pt x="41" y="63" on="1"/>
        <pt x="85" y="178" on="1"/>
      </contour>
    </TTGlyph>
    <TTGlyph name="dollar.lprop" xMin="20" yMin="-131" xMax="577" yMax="793">
      <component glyphName="dollar" x="-21" y="0" flags="0x4"/>
    </TTGlyph>
    <TTGlyph name="dollar.oprop" xMin="35" yMin="-131" xMax="477" yMax="619">
      <contour>
        <pt x="451" y="355" on="1"/>
        <pt x="375" y="361" on="1"/>
        <pt x="354" y="363" on="0"/>
        <pt x="306" y="365" on="0"/>
        <pt x="286" y="365" on="1"/>
        <pt x="249" y="365" on="0"/>
        <pt x="219" y="356" on="0"/>
        <pt x="219" y="346" on="1"/>
        <pt x="219" y="338" on="0"/>
        <pt x="237" y="329" on="0"/>
        <pt x="260" y="324" on="1"/>
        <pt x="302" y="314" on="1"/>
        <pt x="336" y="306" on="0"/>
        <pt x="399" y="286" on="0"/>
        <pt x="447" y="255" on="0"/>
        <pt x="475" y="208" on="0"/>
        <pt x="475" y="172" on="1"/>
        <pt x="475" y="134" on="0"/>
        <pt x="447" y="70" on="0"/>
        <pt x="422" y="47" on="1"/>
        <pt x="377" y="7" on="0"/>
        <pt x="307" y="-2" on="1"/>
        <pt x="273" y="-131" on="1"/>
        <pt x="170" y="-131" on="1"/>
        <pt x="185" y="0" on="1"/>
        <pt x="146" y="7" on="0"/>
        <pt x="69" y="31" on="0"/>
        <pt x="35" y="46" on="1"/>
        <pt x="70" y="151" on="1"/>
        <pt x="124" y="142" on="1"/>
        <pt x="171" y="134" on="0"/>
        <pt x="240" y="126" on="0"/>
        <pt x="267" y="126" on="1"/>
        <pt x="296" y="126" on="0"/>
        <pt x="322" y="139" on="0"/>
        <pt x="322" y="150" on="1"/>
        <pt x="322" y="158" on="0"/>
        <pt x="304" y="167" on="0"/>
        <pt x="278" y="173" on="1"/>
        <pt x="224" y="186" on="1"/>
        <pt x="151" y="203" on="0"/>
        <pt x="68" y="273" on="0"/>
        <pt x="68" y="337" on="1"/>
        <pt x="68" y="372" on="0"/>
        <pt x="95" y="427" on="0"/>
        <pt x="143" y="466" on="0"/>
        <pt x="207" y="489" on="0"/>
        <pt x="244" y="493" on="1"/>
        <pt x="278" y="619" on="1"/>
        <pt x="381" y="619" on="1"/>
        <pt x="366" y="489" on="1"/>
        <pt x="395" y="484" on="0"/>
        <pt x="451" y="469" on="0"/>
        <pt x="477" y="458" on="1"/>
      </contour>
    </TTGlyph>
    <TTGlyph name="dollar.otab" xMin="100" yMin="-131" xMax="542" yMax="619">
      <contour>
        <pt x="516" y="355" on="1"/>
        <pt x="440" y="361" on="1"/>
        <pt x="419" y="363" on="0"/>
        <pt x="371" y="365" on="0"/>
        <pt x="351" y="365" on="1"/>
        <pt x="314" y="365" on="0"/>
        <pt x="284" y="356" on="0"/>
        <pt x="284" y="346" on="1"/>
        <pt x="284" y="338" on="0"/>
        <pt x="302" y="329" on="0"/>
        <pt x="325" y="324" on="1"/>
        <pt x="367" y="314" on="1"/>
        <pt x="401" y="306" on="0"/>
        <pt x="464" y="286" on="0"/>
        <pt x="512" y="255" on="0"/>
        <pt x="540" y="208" on="0"/>
        <pt x="540" y="172" on="1"/>
        <pt x="540" y="134" on="0"/>
        <pt x="512" y="70" on="0"/>
        <pt x="487" y="47" on="1"/>
        <pt x="442" y="7" on="0"/>
        <pt x="372" y="-2" on="1"/>
        <pt x="338" y="-131" on="1"/>
        <pt x="235" y="-131" on="1"/>
        <pt x="250" y="0" on="1"/>
        <pt x="211" y="7" on="0"/>
        <pt x="134" y="31" on="0"/>
        <pt x="100" y="46" on="1"/>
        <pt x="135" y="151" on="1"/>
        <pt x="189" y="142" on="1"/>
        <pt x="236" y="134" on="0"/>
        <pt x="305" y="126" on="0"/>
        <pt x="332" y="126" on="1"/>
        <pt x="361" y="126" on="0"/>
        <pt x="387" y="139" on="0"/>
        <pt x="387" y="150" on="1"/>
        <pt x="387" y="158" on="0"/>
        <pt x="369" y="167" on="0"/>
        <pt x="343" y="173" on="1"/>
        <pt x="289" y="186" on="1"/>
        <pt x="216" y="203" on="0"/>
        <pt x="133" y="273" on="0"/>
        <pt x="133" y="337" on="1"/>
        <pt x="133" y="372" on="0"/>
        <pt x="160" y="427" on="0"/>
        <pt x="208" y="466" on="0"/>
        <pt x="272" y="489" on="0"/>
        <pt x="309" y="493" on="1"/>
        <pt x="343" y="619" on="1"/>
        <pt x="446" y="619" on="1"/>
        <pt x="431" y="489" on="1"/>
        <pt x="460" y="484" on="0"/>
        <pt x="516" y="469" on="0"/>
        <pt x="542" y="458" on="1"/>
      </contour>
    </TTGlyph>
    <TTGlyph name="dotaccent" xMin="170" yMin="564" xMax="333" yMax="713">
      <contour>
        <pt x="300" y="713" on="1"/>
        <pt x="321" y="713" on="0"/>
        <pt x="333" y="699" on="0"/>
        <pt x="331" y="680" on="1"/>
        <pt x="317" y="564" on="1"/>
        <pt x="170" y="564" on="1"/>
        <pt x="188" y="713" on="1"/>
      </contour>
    </TTGlyph>
    <TTGlyph name="dotaccent.cap" xMin="182" yMin="734" xMax="345" yMax="883">
      <contour>
        <pt x="312" y="883" on="1"/>
        <pt x="333" y="883" on="0"/>
        <pt x="345" y="869" on="0"/>
        <pt x="343" y="850" on="1"/>
        <pt x="329" y="734" on="1"/>
        <pt x="182" y="734" on="1"/>
        <pt x="200" y="883" on="1"/>
      </contour>
    </TTGlyph>
    <TTGlyph name="dotlessi" xMin="22" yMin="0" xMax="247" yMax="488">
      <contour>
        <pt x="80" y="488" on="1"/>
        <pt x="247" y="488" on="1"/>
        <pt x="189" y="0" on="1"/>
        <pt x="22" y="0" on="1"/>
      </contour>
    </TTGlyph>
    <TTGlyph name="e" xMin="20" yMin="-8" xMax="507" yMax="496">
      <contour>
        <pt x="187" y="198" on="1"/>
        <pt x="192" y="168" on="0"/>
        <pt x="241" y="134" on="0"/>
        <pt x="281" y="134" on="1"/>
        <pt x="307" y="134" on="0"/>
        <pt x="365" y="144" on="0"/>
        <pt x="391" y="150" on="1"/>
        <pt x="441" y="162" on="1"/>
        <pt x="483" y="70" on="1"/>
        <pt x="465" y="55" on="0"/>
        <pt x="413" y="26" on="0"/>
        <pt x="353" y="5" on="0"/>
        <pt x="289" y="-8" on="0"/>
        <pt x="259" y="-8" on="1"/>
        <pt x="206" y="-8" on="0"/>
        <pt x="119" y="25" on="0"/>
        <pt x="55" y="87" on="0"/>
        <pt x="20" y="173" on="0"/>
        <pt x="20" y="227" on="1"/>
        <pt x="20" y="288" on="0"/>
        <pt x="63" y="387" on="0"/>
        <pt x="135" y="458" on="0"/>
        <pt x="230" y="496" on="0"/>
        <pt x="282" y="496" on="1"/>
        <pt x="328" y="496" on="0"/>
        <pt x="410" y="466" on="0"/>
        <pt x="472" y="409" on="0"/>
        <pt x="507" y="327" on="0"/>
        <pt x="507" y="275" on="1"/>
        <pt x="507" y="258" on="0"/>
        <pt x="503" y="225" on="0"/>
        <pt x="501" y="216" on="1"/>
        <pt x="497" y="198" on="0"/>
        <pt x="474" y="198" on="1"/>
      </contour>
      <contour>
        <pt x="350" y="300" on="1"/>
        <pt x="349" y="329" on="0"/>
        <pt x="311" y="366" on="0"/>
        <pt x="280" y="366" on="1"/>
        <pt x="245" y="366" on="0"/>
        <pt x="202" y="332" on="0"/>
        <pt x="194" y="300" on="1"/>
      </contour>
    </TTGlyph>
    <TTGlyph name="eacute" xMin="20" yMin="-8" xMax="507" yMax="770">
      <component glyphName="e" x="0" y="0" flags="0x4"/>
      <component glyphName="acute" x="58" y="0" flags="0x4"/>
    </TTGlyph>
    <TTGlyph name="ebreve" xMin="20" yMin="-8" xMax="507" yMax="738">
      <component glyphName="e" x="0" y="0" flags="0x4"/>
      <component glyphName="breve" x="53" y="0" flags="0x4"/>
    </TTGlyph>
    <TTGlyph name="ecaron" xMin="20" yMin="-8" xMax="507" yMax="766">
      <component glyphName="e" x="0" y="0" flags="0x4"/>
      <component glyphName="caron" x="51" y="0" flags="0x4"/>
    </TTGlyph>
    <TTGlyph name="ecircumflex" xMin="20" yMin="-8" xMax="507" yMax="753">
      <component glyphName="e" x="0" y="0" flags="0x4"/>
      <component glyphName="circumflex" x="64" y="0" flags="0x4"/>
    </TTGlyph>
    <TTGlyph name="edieresis" xMin="20" yMin="-8" xMax="507" yMax="714">
      <component glyphName="e" x="0" y="0" flags="0x4"/>
      <component glyphName="dieresis" x="48" y="0" flags="0x4"/>
    </TTGlyph>
    <TTGlyph name="edotaccent" xMin="20" yMin="-8" xMax="507" yMax="713">
      <component glyphName="e" x="0" y="0" flags="0x4"/>
      <component glyphName="dotaccent" x="55" y="0" flags="0x4"/>
    </TTGlyph>
    <TTGlyph name="egrave" xMin="20" yMin="-8" xMax="507" yMax="771">
      <component glyphName="e" x="0" y="0" flags="0x4"/>
      <component glyphName="grave" x="48" y="0" flags="0x4"/>
    </TTGlyph>
    <TTGlyph name="eight" xMin="51" yMin="-10" xMax="620" yMax="673">
      <contour>
        <pt x="163" y="350" on="1"/>
        <pt x="137" y="373" on="0"/>
        <pt x="100" y="437" on="0"/>
        <pt x="100" y="477" on="1"/>
        <pt x="100" y="517" on="0"/>
        <pt x="138" y="589" on="0"/>
        <pt x="208" y="642" on="0"/>
        <pt x="304" y="673" on="0"/>
        <pt x="363" y="673" on="1"/>
        <pt x="418" y="673" on="0"/>
        <pt x="509" y="644" on="0"/>
        <pt x="574" y="593" on="0"/>
        <pt x="610" y="526" on="0"/>
        <pt x="610" y="489" on="1"/>
        <pt x="610" y="444" on="0"/>
        <pt x="563" y="371" on="0"/>
        <pt x="529" y="348" on="1"/>
        <pt x="567" y="325" on="0"/>
        <pt x="620" y="261" on="0"/>
        <pt x="620" y="215" on="1"/>
        <pt x="620" y="163" on="0"/>
        <pt x="572" y="80" on="0"/>
        <pt x="493" y="21" on="0"/>
        <pt x="389" y="-10" on="0"/>
        <pt x="332" y="-10" on="1"/>
        <pt x="273" y="-10" on="0"/>
        <pt x="171" y="21" on="0"/>
        <pt x="95" y="78" on="0"/>
        <pt x="51" y="155" on="0"/>
        <pt x="51" y="202" on="1"/>
        <pt x="51" y="256" on="0"/>
        <pt x="115" y="329" on="0"/>
      </contour>
      <contour>
        <pt x="287" y="292" on="1"/>
        <pt x="270" y="299" on="0"/>
        <pt x="253" y="290" on="0"/>
        <pt x="243" y="281" on="1"/>
        <pt x="229" y="268" on="0"/>
        <pt x="219" y="242" on="0"/>
        <pt x="219" y="228" on="1"/>
        <pt x="219" y="190" on="0"/>
        <pt x="287" y="138" on="0"/>
        <pt x="341" y="138" on="1"/>
        <pt x="383" y="138" on="0"/>
        <pt x="443" y="177" on="0"/>
        <pt x="443" y="206" on="1"/>
        <pt x="443" y="221" on="0"/>
        <pt x="416" y="241" on="0"/>
        <pt x="388" y="252" on="1"/>
      </contour>
      <contour>
        <pt x="399" y="399" on="1"/>
        <pt x="411" y="394" on="0"/>
        <pt x="424" y="399" on="0"/>
        <pt x="431" y="406" on="1"/>
        <pt x="458" y="433" on="0"/>
        <pt x="458" y="460" on="1"/>
        <pt x="458" y="495" on="0"/>
        <pt x="397" y="531" on="0"/>
        <pt x="353" y="531" on="1"/>
        <pt x="318" y="531" on="0"/>
        <pt x="263" y="504" on="0"/>
        <pt x="263" y="475" on="1"/>
        <pt x="263" y="461" on="0"/>
        <pt x="287" y="444" on="0"/>
        <pt x="315" y="433" on="1"/>
      </contour>
    </TTGlyph>
    <TTGlyph name="eight.lprop" xMin="35" yMin="-10" xMax="604" yMax="673">
      <component glyphName="eight" x="-16" y="0" flags="0x4"/>
    </TTGlyph>
    <TTGlyph name="eight.oprop" xMin="32" yMin="-8" xMax="594" yMax="673">
      <component glyphName="eight.otab" x="-18" y="0" flags="0x4"/>
    </TTGlyph>
    <TTGlyph name="eight.otab" xMin="50" yMin="-8" xMax="612" yMax="673">
      <contour>
        <pt x="162" y="352" on="1"/>
        <pt x="133" y="375" on="0"/>
        <pt x="101" y="442" on="0"/>
        <pt x="101" y="478" on="1"/>
        <pt x="101" y="521" on="0"/>
        <pt x="140" y="593" on="0"/>
        <pt x="210" y="645" on="0"/>
        <pt x="304" y="673" on="0"/>
        <pt x="360" y="673" on="1"/>
        <pt x="415" y="673" on="0"/>
        <pt x="504" y="644" on="0"/>
        <pt x="567" y="595" on="0"/>
        <pt x="602" y="531" on="0"/>
        <pt x="602" y="496" on="1"/>
        <pt x="602" y="451" on="0"/>
        <pt x="552" y="376" on="0"/>
        <pt x="513" y="350" on="1"/>
        <pt x="559" y="327" on="0"/>
        <pt x="612" y="258" on="0"/>
        <pt x="612" y="213" on="1"/>
        <pt x="612" y="162" on="0"/>
        <pt x="565" y="80" on="0"/>
        <pt x="486" y="23" on="0"/>
        <pt x="383" y="-8" on="0"/>
        <pt x="328" y="-8" on="1"/>
        <pt x="270" y="-8" on="0"/>
        <pt x="169" y="22" on="0"/>
        <pt x="94" y="77" on="0"/>
        <pt x="50" y="154" on="0"/>
        <pt x="50" y="200" on="1"/>
        <pt x="50" y="254" on="0"/>
        <pt x="114" y="331" on="0"/>
      </contour>
      <contour>
        <pt x="289" y="294" on="1"/>
        <pt x="274" y="300" on="0"/>
        <pt x="255" y="296" on="0"/>
        <pt x="245" y="288" on="1"/>
        <pt x="231" y="276" on="0"/>
        <pt x="215" y="244" on="0"/>
        <pt x="215" y="226" on="1"/>
        <pt x="215" y="188" on="0"/>
        <pt x="277" y="134" on="0"/>
        <pt x="337" y="134" on="1"/>
        <pt x="382" y="134" on="0"/>
        <pt x="439" y="174" on="0"/>
        <pt x="439" y="204" on="1"/>
        <pt x="439" y="223" on="0"/>
        <pt x="415" y="243" on="0"/>
        <pt x="389" y="254" on="1"/>
      </contour>
      <contour>
        <pt x="391" y="400" on="1"/>
        <pt x="405" y="394" on="0"/>
        <pt x="419" y="397" on="0"/>
        <pt x="427" y="405" on="1"/>
        <pt x="439" y="418" on="0"/>
        <pt x="455" y="450" on="0"/>
        <pt x="455" y="468" on="1"/>
        <pt x="455" y="486" on="0"/>
        <pt x="439" y="513" on="0"/>
        <pt x="411" y="529" on="0"/>
        <pt x="375" y="537" on="0"/>
        <pt x="355" y="537" on="1"/>
        <pt x="317" y="537" on="0"/>
        <pt x="260" y="511" on="0"/>
        <pt x="260" y="482" on="1"/>
        <pt x="260" y="462" on="0"/>
        <pt x="290" y="441" on="0"/>
        <pt x="319" y="429" on="1"/>
      </contour>
    </TTGlyph>
    <TTGlyph name="ellipsis" xMin="10" yMin="0" xMax="707" yMax="171">
      <contour>
        <pt x="164" y="171" on="1"/>
        <pt x="187" y="171" on="0"/>
        <pt x="203" y="153" on="0"/>
        <pt x="201" y="132" on="1"/>
        <pt x="186" y="0" on="1"/>
        <pt x="10" y="0" on="1"/>
        <pt x="30" y="171" on="1"/>
      </contour>
      <contour>
        <pt x="416" y="171" on="1"/>
        <pt x="439" y="171" on="0"/>
        <pt x="455" y="153" on="0"/>
        <pt x="453" y="132" on="1"/>
        <pt x="438" y="0" on="1"/>
        <pt x="262" y="0" on="1"/>
        <pt x="282" y="171" on="1"/>
      </contour>
      <contour>
        <pt x="668" y="171" on="1"/>
        <pt x="691" y="171" on="0"/>
        <pt x="707" y="153" on="0"/>
        <pt x="705" y="132" on="1"/>
        <pt x="690" y="0" on="1"/>
        <pt x="514" y="0" on="1"/>
        <pt x="534" y="171" on="1"/>
      </contour>
    </TTGlyph>
    <TTGlyph name="emacron" xMin="20" yMin="-8" xMax="507" yMax="703">
      <component glyphName="e" x="0" y="0" flags="0x4"/>
      <component glyphName="macron" x="57" y="0" flags="0x4"/>
    </TTGlyph>
    <TTGlyph name="emdash" xMin="30" yMin="176" xMax="1006" yMax="309">
      <contour>
        <pt x="30" y="176" on="1"/>
        <pt x="46" y="309" on="1"/>
        <pt x="1006" y="309" on="1"/>
        <pt x="990" y="176" on="1"/>
      </contour>
    </TTGlyph>
    <TTGlyph name="emdash.cap" xMin="40" yMin="264" xMax="1016" yMax="397">
      <component glyphName="emdash" x="10" y="88" flags="0x204"/>
    </TTGlyph>
    <TTGlyph name="endash" xMin="30" yMin="176" xMax="526" yMax="309">
      <contour>
        <pt x="30" y="176" on="1"/>
        <pt x="46" y="309" on="1"/>
        <pt x="526" y="309" on="1"/>
        <pt x="510" y="176" on="1"/>
      </contour>
    </TTGlyph>
    <TTGlyph name="endash.cap" xMin="40" yMin="264" xMax="536" yMax="397">
      <component glyphName="endash" x="10" y="88" flags="0x204"/>
    </TTGlyph>
    <TTGlyph name="eng" xMin="20" yMin="-213" xMax="520" yMax="496">
      <contour>
        <pt x="481" y="-14" on="1"/>
        <pt x="473" y="-74" on="0"/>
        <pt x="445" y="-151" on="0"/>
        <pt x="420" y="-174" on="1"/>
        <pt x="378" y="-213" on="0"/>
        <pt x="307" y="-213" on="1"/>
        <pt x="280" y="-213" on="0"/>
        <pt x="217" y="-202" on="0"/>
        <pt x="185" y="-191" on="1"/>
        <pt x="195" y="-104" on="1"/>
        <pt x="258" y="-93" on="1"/>
        <pt x="288" y="-88" on="0"/>
        <pt x="307" y="-68" on="0"/>
        <pt x="310" y="-45" on="1"/>
        <pt x="349" y="276" on="1"/>
        <pt x="350" y="282" on="0"/>
        <pt x="351" y="297" on="0"/>
        <pt x="351" y="302" on="1"/>
        <pt x="351" y="323" on="0"/>
        <pt x="327" y="342" on="0"/>
        <pt x="297" y="342" on="1"/>
        <pt x="283" y="342" on="0"/>
        <pt x="250" y="337" on="0"/>
        <pt x="236" y="332" on="1"/>
        <pt x="229" y="330" on="0"/>
        <pt x="226" y="323" on="0"/>
        <pt x="225" y="318" on="1"/>
        <pt x="187" y="0" on="1"/>
        <pt x="20" y="0" on="1"/>
        <pt x="78" y="488" on="1"/>
        <pt x="206" y="488" on="1"/>
        <pt x="218" y="443" on="1"/>
        <pt x="244" y="458" on="1"/>
        <pt x="276" y="476" on="0"/>
        <pt x="337" y="496" on="0"/>
        <pt x="367" y="496" on="1"/>
        <pt x="432" y="496" on="0"/>
        <pt x="475" y="455" on="1"/>
        <pt x="496" y="435" on="0"/>
        <pt x="520" y="373" on="0"/>
        <pt x="520" y="331" on="1"/>
        <pt x="520" y="318" on="0"/>
        <pt x="518" y="290" on="0"/>
        <pt x="516" y="276" on="1"/>
      </contour>
    </TTGlyph>
    <TTGlyph name="eogonek" xMin="20" yMin="-229" xMax="507" yMax="496">
      <contour>
        <pt x="259" y="-8" on="1"/>
        <pt x="206" y="-8" on="0"/>
        <pt x="119" y="25" on="0"/>
        <pt x="55" y="87" on="0"/>
        <pt x="20" y="173" on="0"/>
        <pt x="20" y="227" on="1"/>
        <pt x="20" y="288" on="0"/>
        <pt x="63" y="387" on="0"/>
        <pt x="135" y="458" on="0"/>
        <pt x="230" y="496" on="0"/>
        <pt x="282" y="496" on="1"/>
        <pt x="328" y="496" on="0"/>
        <pt x="410" y="466" on="0"/>
        <pt x="472" y="409" on="0"/>
        <pt x="507" y="327" on="0"/>
        <pt x="507" y="275" on="1"/>
        <pt x="507" y="258" on="0"/>
        <pt x="503" y="225" on="0"/>
        <pt x="501" y="216" on="1"/>
        <pt x="497" y="198" on="0"/>
        <pt x="474" y="198" on="1"/>
        <pt x="187" y="198" on="1"/>
        <pt x="192" y="168" on="0"/>
        <pt x="241" y="134" on="0"/>
        <pt x="281" y="134" on="1"/>
        <pt x="307" y="134" on="0"/>
        <pt x="365" y="144" on="0"/>
        <pt x="391" y="150" on="1"/>
        <pt x="441" y="162" on="1"/>
        <pt x="483" y="70" on="1"/>
        <pt x="418" y="29" on="0"/>
        <pt x="345" y="-49" on="0"/>
        <pt x="345" y="-84" on="1"/>
        <pt x="345" y="-125" on="0"/>
        <pt x="398" y="-125" on="1"/>
        <pt x="407" y="-125" on="0"/>
        <pt x="441" y="-121" on="0"/>
        <pt x="456" y="-119" on="1"/>
        <pt x="469" y="-201" on="1"/>
        <pt x="445" y="-215" on="0"/>
        <pt x="380" y="-229" on="0"/>
        <pt x="355" y="-229" on="1"/>
        <pt x="326" y="-229" on="0"/>
        <pt x="279" y="-212" on="0"/>
        <pt x="245" y="-183" on="0"/>
        <pt x="227" y="-144" on="0"/>
        <pt x="227" y="-122" on="1"/>
        <pt x="227" y="-86" on="0"/>
        <pt x="265" y="-28" on="0"/>
        <pt x="288" y="-6" on="1"/>
        <pt x="282" y="-7" on="0"/>
        <pt x="264" y="-8" on="0"/>
      </contour>
      <contour>
        <pt x="350" y="300" on="1"/>
        <pt x="349" y="329" on="0"/>
        <pt x="311" y="366" on="0"/>
        <pt x="280" y="366" on="1"/>
        <pt x="245" y="366" on="0"/>
        <pt x="202" y="332" on="0"/>
        <pt x="194" y="300" on="1"/>
      </contour>
    </TTGlyph>
    <TTGlyph name="equal" xMin="46" yMin="73" xMax="510" yMax="422">
      <contour>
        <pt x="510" y="422" on="1"/>
        <pt x="493" y="281" on="1"/>
        <pt x="71" y="281" on="1"/>
        <pt x="88" y="422" on="1"/>
      </contour>
      <contour>
        <pt x="485" y="214" on="1"/>
        <pt x="468" y="73" on="1"/>
        <pt x="46" y="73" on="1"/>
        <pt x="63" y="214" on="1"/>
      </contour>
    </TTGlyph>
    <TTGlyph name="estimated" xMin="62" yMin="-10" xMax="825" yMax="673">
      <contour>
        <pt x="208" y="323" on="1"/>
        <pt x="200" y="323" on="0"/>
        <pt x="200" y="317" on="1"/>
        <pt x="200" y="130" on="1"/>
        <pt x="200" y="123" on="0"/>
        <pt x="206" y="115" on="0"/>
        <pt x="212" y="109" on="1"/>
        <pt x="256" y="64" on="0"/>
        <pt x="377" y="11" on="0"/>
        <pt x="446" y="11" on="1"/>
        <pt x="520" y="11" on="0"/>
        <pt x="645" y="71" on="0"/>
        <pt x="690" y="121" on="1"/>
        <pt x="746" y="121" on="1"/>
        <pt x="692" y="61" on="0"/>
        <pt x="536" y="-10" on="0"/>
        <pt x="445" y="-10" on="1"/>
        <pt x="366" y="-10" on="0"/>
        <pt x="226" y="43" on="0"/>
        <pt x="122" y="135" on="0"/>
        <pt x="62" y="260" on="0"/>
        <pt x="62" y="331" on="1"/>
        <pt x="62" y="402" on="0"/>
        <pt x="122" y="527" on="0"/>
        <pt x="226" y="620" on="0"/>
        <pt x="366" y="673" on="0"/>
        <pt x="445" y="673" on="1"/>
        <pt x="523" y="673" on="0"/>
        <pt x="661" y="620" on="0"/>
        <pt x="764" y="527" on="0"/>
        <pt x="825" y="402" on="0"/>
        <pt x="825" y="331" on="1"/>
        <pt x="825" y="323" on="1"/>
      </contour>
      <contour>
        <pt x="686" y="537" on="1"/>
        <pt x="686" y="543" on="0"/>
        <pt x="679" y="553" on="0"/>
        <pt x="673" y="559" on="1"/>
        <pt x="631" y="603" on="0"/>
        <pt x="512" y="653" on="0"/>
        <pt x="446" y="653" on="1"/>
        <pt x="377" y="653" on="0"/>
        <pt x="257" y="601" on="0"/>
        <pt x="212" y="556" on="1"/>
        <pt x="206" y="550" on="0"/>
        <pt x="200" y="540" on="0"/>
        <pt x="200" y="532" on="1"/>
        <pt x="200" y="347" on="1"/>
        <pt x="200" y="342" on="0"/>
        <pt x="208" y="342" on="1"/>
        <pt x="678" y="342" on="1"/>
        <pt x="686" y="342" on="0"/>
        <pt x="686" y="347" on="1"/>
      </contour>
    </TTGlyph>
    <TTGlyph name="eth" xMin="28" yMin="-8" xMax="538" yMax="752">
      <contour>
        <pt x="358" y="434" on="1"/>
        <pt x="353" y="460" on="0"/>
        <pt x="331" y="517" on="0"/>
        <pt x="313" y="540" on="1"/>
        <pt x="208" y="485" on="1"/>
        <pt x="158" y="574" on="1"/>
        <pt x="226" y="611" on="1"/>
        <pt x="209" y="622" on="0"/>
        <pt x="167" y="643" on="0"/>
        <pt x="150" y="651" on="1"/>
        <pt x="208" y="741" on="1"/>
        <pt x="244" y="732" on="0"/>
        <pt x="322" y="699" on="0"/>
        <pt x="354" y="679" on="1"/>
        <pt x="489" y="752" on="1"/>
        <pt x="538" y="660" on="1"/>
        <pt x="440" y="607" on="1"/>
        <pt x="485" y="555" on="0"/>
        <pt x="536" y="419" on="0"/>
        <pt x="536" y="334" on="1"/>
        <pt x="536" y="272" on="0"/>
        <pt x="505" y="150" on="0"/>
        <pt x="438" y="53" on="0"/>
        <pt x="333" y="-8" on="0"/>
        <pt x="259" y="-8" on="1"/>
        <pt x="214" y="-8" on="0"/>
        <pt x="131" y="22" on="0"/>
        <pt x="66" y="81" on="0"/>
        <pt x="28" y="168" on="0"/>
        <pt x="28" y="225" on="1"/>
        <pt x="28" y="276" on="0"/>
        <pt x="61" y="363" on="0"/>
        <pt x="119" y="426" on="0"/>
        <pt x="198" y="462" on="0"/>
        <pt x="243" y="462" on="1"/>
        <pt x="269" y="462" on="0"/>
        <pt x="331" y="448" on="0"/>
      </contour>
      <contour>
        <pt x="272" y="142" on="1"/>
        <pt x="317" y="142" on="0"/>
        <pt x="367" y="224" on="0"/>
        <pt x="367" y="299" on="1"/>
        <pt x="367" y="310" on="0"/>
        <pt x="361" y="319" on="0"/>
        <pt x="354" y="322" on="1"/>
        <pt x="342" y="327" on="0"/>
        <pt x="308" y="335" on="0"/>
        <pt x="288" y="335" on="1"/>
        <pt x="242" y="335" on="0"/>
        <pt x="191" y="283" on="0"/>
        <pt x="191" y="239" on="1"/>
        <pt x="191" y="194" on="0"/>
        <pt x="234" y="142" on="0"/>
      </contour>
    </TTGlyph>
    <TTGlyph name="exclam" xMin="38" yMin="0" xMax="288" yMax="663">
      <contour>
        <pt x="270" y="514" on="1"/>
        <pt x="265" y="477" on="0"/>
        <pt x="251" y="404" on="0"/>
        <pt x="238" y="353" on="1"/>
        <pt x="204" y="223" on="1"/>
        <pt x="95" y="223" on="1"/>
        <pt x="92" y="353" on="1"/>
        <pt x="90" y="404" on="0"/>
        <pt x="92" y="477" on="0"/>
        <pt x="97" y="514" on="1"/>
        <pt x="115" y="663" on="1"/>
        <pt x="288" y="663" on="1"/>
      </contour>
      <contour>
        <pt x="199" y="159" on="1"/>
        <pt x="214" y="159" on="0"/>
        <pt x="225" y="146" on="0"/>
        <pt x="223" y="132" on="1"/>
        <pt x="207" y="0" on="1"/>
        <pt x="38" y="0" on="1"/>
        <pt x="57" y="159" on="1"/>
      </contour>
    </TTGlyph>
    <TTGlyph name="exclamdown" xMin="15" yMin="-175" xMax="265" yMax="488">
      <component glyphName="exclam" x="303" y="488" scale="-0.99994" flags="0x4"/>
    </TTGlyph>
    <TTGlyph name="exclamdown.cap" xMin="37" yMin="0" xMax="287" yMax="663">
      <component glyphName="exclam" x="325" y="663" scale="-0.99994" flags="0x4"/>
    </TTGlyph>
    <TTGlyph name="f" xMin="14" yMin="-206" xMax="491" yMax="724">
      <contour>
        <pt x="111" y="484" on="1"/>
        <pt x="100" y="511" on="0"/>
        <pt x="100" y="543" on="1"/>
        <pt x="100" y="583" on="0"/>
        <pt x="132" y="650" on="0"/>
        <pt x="189" y="698" on="0"/>
        <pt x="269" y="724" on="0"/>
        <pt x="316" y="724" on="1"/>
        <pt x="363" y="724" on="0"/>
        <pt x="455" y="693" on="0"/>
        <pt x="491" y="661" on="1"/>
        <pt x="445" y="567" on="1"/>
        <pt x="402" y="577" on="1"/>
        <pt x="363" y="586" on="0"/>
        <pt x="336" y="586" on="1"/>
        <pt x="301" y="586" on="0"/>
        <pt x="267" y="554" on="0"/>
        <pt x="267" y="525" on="1"/>
        <pt x="267" y="504" on="0"/>
        <pt x="273" y="488" on="1"/>
        <pt x="425" y="488" on="1"/>
        <pt x="409" y="359" on="1"/>
        <pt x="265" y="359" on="1"/>
        <pt x="199" y="-206" on="1"/>
        <pt x="32" y="-206" on="1"/>
        <pt x="98" y="359" on="1"/>
        <pt x="14" y="359" on="1"/>
        <pt x="27" y="466" on="1"/>
      </contour>
    </TTGlyph>
    <TTGlyph name="f_f" xMin="14" yMin="-206" xMax="853" yMax="724">
      <contour>
        <pt x="27" y="466" on="1"/>
        <pt x="108" y="483" on="1"/>
        <pt x="106" y="498" on="0"/>
        <pt x="105" y="517" on="0"/>
        <pt x="105" y="526" on="1"/>
        <pt x="105" y="571" on="0"/>
        <pt x="137" y="641" on="0"/>
        <pt x="193" y="690" on="0"/>
        <pt x="267" y="715" on="0"/>
        <pt x="309" y="715" on="1"/>
        <pt x="387" y="715" on="0"/>
        <pt x="466" y="668" on="1"/>
        <pt x="433" y="572" on="1"/>
        <pt x="391" y="576" on="1"/>
        <pt x="378" y="578" on="0"/>
        <pt x="356" y="579" on="0"/>
        <pt x="343" y="579" on="1"/>
        <pt x="302" y="579" on="0"/>
        <pt x="270" y="548" on="0"/>
        <pt x="270" y="510" on="1"/>
        <pt x="270" y="505" on="0"/>
        <pt x="270" y="494" on="0"/>
        <pt x="271" y="488" on="1"/>
        <pt x="474" y="488" on="1"/>
        <pt x="470" y="508" on="0"/>
        <pt x="470" y="531" on="1"/>
        <pt x="470" y="571" on="0"/>
        <pt x="499" y="641" on="0"/>
        <pt x="551" y="693" on="0"/>
        <pt x="626" y="724" on="0"/>
        <pt x="673" y="724" on="1"/>
        <pt x="718" y="724" on="0"/>
        <pt x="811" y="692" on="0"/>
        <pt x="853" y="659" on="1"/>
        <pt x="806" y="567" on="1"/>
        <pt x="766" y="577" on="1"/>
        <pt x="748" y="582" on="0"/>
        <pt x="718" y="586" on="0"/>
        <pt x="703" y="586" on="1"/>
        <pt x="673" y="586" on="0"/>
        <pt x="636" y="554" on="0"/>
        <pt x="636" y="517" on="1"/>
        <pt x="636" y="509" on="0"/>
        <pt x="637" y="494" on="0"/>
        <pt x="638" y="488" on="1"/>
        <pt x="787" y="488" on="1"/>
        <pt x="771" y="359" on="1"/>
        <pt x="627" y="359" on="1"/>
        <pt x="561" y="-206" on="1"/>
        <pt x="394" y="-206" on="1"/>
        <pt x="460" y="359" on="1"/>
        <pt x="265" y="359" on="1"/>
        <pt x="199" y="-206" on="1"/>
        <pt x="32" y="-206" on="1"/>
        <pt x="98" y="359" on="1"/>
        <pt x="14" y="359" on="1"/>
      </contour>
    </TTGlyph>
</ttFont>
